<svg xmlns="http://www.w3.org/2000/svg" viewBox="0 0 144 50"><defs><style>.cls-1{opacity:0.3;}.cls-2{fill:#334d5c;}.cls-3{fill:#fff;}</style></defs><title>001_inici_1</title><g id="Capa_2" data-name="Capa 2"><g id="_0-_Inici_dreta_esquerra" data-name="0- Inici dreta esquerra"><g id="Boto_Inici" data-name="Boto Inici"><g class="cls-1"><rect class="cls-2" y="5" width="144" height="45" rx="9.76" ry="9.76"/></g><rect class="cls-2" width="144" height="45" rx="9.76" ry="9.76"/></g><path class="cls-3" d="M41.73,9.68h3.12V32.4H41.73Z"/><path class="cls-3" d="M65.33,16.9A6.71,6.71,0,0,1,67,21.79V32.4H64V22.6A4.22,4.22,0,0,0,59.45,18a5.18,5.18,0,0,0-3.75,1.48,5.81,5.81,0,0,0-1.64,3.75V32.4H51V15.23h3v3.64q1.72-3.67,6.53-3.73A6.31,6.31,0,0,1,65.33,16.9Z"/><path class="cls-3" d="M75.28,8.93a1.92,1.92,0,0,1,.54,1.4,1.92,1.92,0,0,1-.54,1.4,1.92,1.92,0,0,1-2.69,0,1.92,1.92,0,0,1-.54-1.4,1.92,1.92,0,0,1,.54-1.4,1.92,1.92,0,0,1,2.69,0Zm-2.84,6.3h3V32.4h-3Z"/><path class="cls-3" d="M88.48,17.83a6,6,0,0,0-3,.75,5.29,5.29,0,0,0-2.06,2.11,6.44,6.44,0,0,0-.75,3.15A6.56,6.56,0,0,0,83.4,27a5.37,5.37,0,0,0,2,2.13,5.63,5.63,0,0,0,2.94.76,7.73,7.73,0,0,0,3-.55,5.69,5.69,0,0,0,2.21-1.59l1.72,1.75a7.6,7.6,0,0,1-3,2.24,10.17,10.17,0,0,1-4.07.78,8.86,8.86,0,0,1-4.45-1.1,7.8,7.8,0,0,1-3-3.07,9.12,9.12,0,0,1-1.09-4.5,9.21,9.21,0,0,1,1.09-4.51,7.78,7.78,0,0,1,3-3.08,8.87,8.87,0,0,1,4.45-1.1,10.88,10.88,0,0,1,3.91.67A7.56,7.56,0,0,1,95,17.73l-1.66,2.08A6.8,6.8,0,0,0,88.48,17.83Z"/><path class="cls-3" d="M102.42,8.93a1.92,1.92,0,0,1,.54,1.4,1.92,1.92,0,0,1-.54,1.4,1.92,1.92,0,0,1-2.69,0,1.92,1.92,0,0,1-.54-1.4,1.92,1.92,0,0,1,.54-1.4,1.92,1.92,0,0,1,2.69,0Zm-2.84,6.3h3V32.4h-3Z"/></g></g></svg>