<svg xmlns="http://www.w3.org/2000/svg" viewBox="0 0 162 55.63"><defs><style>.cls-1{opacity:0.3;}.cls-2{fill:#334d5c;}.cls-3{fill:#fff;}</style></defs><title>002_credits_1</title><g id="Capa_2" data-name="Capa 2"><g id="_1-_Pantalla_Inici" data-name="1- Pantalla Inici"><g id="Crèdits"><g id="Boto_Sortir" data-name="Boto Sortir"><g class="cls-1"><rect class="cls-2" y="5" width="162" height="50.62" rx="9.76" ry="9.76"/></g><rect class="cls-2" width="162" height="50.62" rx="9.76" ry="9.76"/></g><path class="cls-3" d="M40.2,15.82a8.75,8.75,0,0,0-11.14,3.57,8.74,8.74,0,0,0,7.6,13.13,8.91,8.91,0,0,0,3.51-.73,10.14,10.14,0,0,0,3.05-2l1.88,2a12.67,12.67,0,0,1-4,2.65,11.93,11.93,0,0,1-10.55-.58,11.47,11.47,0,0,1-5.81-10.08A11.19,11.19,0,0,1,26.32,18a11.38,11.38,0,0,1,4.3-4.17,12.1,12.1,0,0,1,6-1.53,12.23,12.23,0,0,1,4.59.89,11.37,11.37,0,0,1,3.85,2.52l-1.85,2.24A9.38,9.38,0,0,0,40.2,15.82Z"/><path class="cls-3" d="M54.58,18.93a7.15,7.15,0,0,1,3.7-1v2.92a5.52,5.52,0,0,0-6.1,5.29v9.06h-3V18h3v3.7A6.21,6.21,0,0,1,54.58,18.93Z"/><path class="cls-3" d="M74.48,20.3a9.65,9.65,0,0,1,2,6.54q0,.65,0,1H62.92a5.85,5.85,0,0,0,1.93,3.67,5.72,5.72,0,0,0,3.88,1.36,7.26,7.26,0,0,0,2.84-.55,6.81,6.81,0,0,0,2.29-1.56l1.66,1.72a8.66,8.66,0,0,1-3.05,2.11,10.17,10.17,0,0,1-4,.75A9.12,9.12,0,0,1,64,34.23,7.63,7.63,0,0,1,61,31.16a9.21,9.21,0,0,1-1.09-4.51A9.13,9.13,0,0,1,61,22.15a7.93,7.93,0,0,1,3-3.08,8.76,8.76,0,0,1,4.45-1.12A7.57,7.57,0,0,1,74.48,20.3Zm-.68,5.18a5,5,0,0,0-5.32-5,5.43,5.43,0,0,0-3.78,1.36,5.72,5.72,0,0,0-1.8,3.67ZM66.4,10.8,69.87,15l-2.56.33-4-3.18Z"/><path class="cls-3" d="M96.66,11.13V35.22h-3V31.81A6.83,6.83,0,0,1,91,34.45a7.64,7.64,0,0,1-3.81.92,8.19,8.19,0,0,1-4.3-1.12A7.68,7.68,0,0,1,80,31.14a9.73,9.73,0,0,1-1-4.56,9.47,9.47,0,0,1,1-4.5A7.63,7.63,0,0,1,82.91,19a8.23,8.23,0,0,1,4.27-1.1,7.91,7.91,0,0,1,3.86.91,6.47,6.47,0,0,1,2.6,2.63V11.13ZM90.83,32a5.47,5.47,0,0,0,2.06-2.18,6.56,6.56,0,0,0,.75-3.15,6.64,6.64,0,0,0-.75-3.18,5.46,5.46,0,0,0-2.06-2.17,5.77,5.77,0,0,0-3-.78,5.69,5.69,0,0,0-3,.79,5.59,5.59,0,0,0-2.06,2.19,7,7,0,0,0,0,6.3A5.47,5.47,0,0,0,84.82,32a6.18,6.18,0,0,0,6,0Z"/><path class="cls-3" d="M105.57,11.74a2.09,2.09,0,0,1,0,2.79,1.92,1.92,0,0,1-2.69,0,2.09,2.09,0,0,1,0-2.79,1.92,1.92,0,0,1,2.69,0ZM102.73,18h3V35.22h-3Z"/><path class="cls-3" d="M120.84,34.08a7.39,7.39,0,0,1-4,1.27,4.58,4.58,0,0,1-3.31-1.22,4.89,4.89,0,0,1-1.27-3.68V20.93H109.8V18.63h2.44V14h3.05v4.61h5.26v2.31h-5.26v9a3.18,3.18,0,0,0,.52,2,1.92,1.92,0,0,0,1.56.62,5.44,5.44,0,0,0,2.66-.81Z"/><path class="cls-3" d="M131.54,20.8a8.43,8.43,0,0,0-2.45-.39,4.19,4.19,0,0,0-2.19.5,1.68,1.68,0,0,0-.83,1.54A1.71,1.71,0,0,0,127,24a13.43,13.43,0,0,0,2.81,1.09,22.07,22.07,0,0,1,2.92,1,5.19,5.19,0,0,1,1.93,1.53,4.17,4.17,0,0,1,.8,2.66,4.21,4.21,0,0,1-1.83,3.7,7.83,7.83,0,0,1-4.56,1.27,11.4,11.4,0,0,1-3.72-.62,8.44,8.44,0,0,1-3-1.75l1.14-2.21a8,8,0,0,0,2.65,1.56,8.79,8.79,0,0,0,3.07.58,4.59,4.59,0,0,0,2.4-.55,1.84,1.84,0,0,0,.91-1.69,1.92,1.92,0,0,0-1-1.75,13,13,0,0,0-2.91-1.17,19.43,19.43,0,0,1-2.81-1,5,5,0,0,1-1.85-1.48,4,4,0,0,1-.76-2.53,4.08,4.08,0,0,1,1.75-3.6,7.57,7.57,0,0,1,4.38-1.2,10.92,10.92,0,0,1,3.07.44A9.22,9.22,0,0,1,135,19.54l-1.1,2.3A10.3,10.3,0,0,0,131.54,20.8Z"/></g></g></g></svg>