<svg xmlns="http://www.w3.org/2000/svg" viewBox="0 0 211.82 56.81"><defs><style>.cls-1{fill:#fff;}</style></defs><title>101_titol_joc</title><g id="Capa_2" data-name="Capa 2"><g id="_1-_Pantalla_Inici" data-name="1- Pantalla Inici"><g id="Títol_Trivial" data-name="Títol Trivial"><path class="cls-1" d="M0,4.79H42.07v8.77H26V56.36H16.06V13.56H0Z"/><path class="cls-1" d="M61.26,18.68a15.94,15.94,0,0,1,8-2.1v9.28q-6.12-.37-9.76,2.84a10.94,10.94,0,0,0-3.65,8.66v19H46.27V16.95h9.58v7.59A14.24,14.24,0,0,1,61.26,18.68Z"/><path class="cls-1" d="M83.55.37l9.21,3.76-9.43,7.59L75.89,11ZM76,16.95h9.58V56.36H76Z"/><path class="cls-1" d="M91.36,17l10-.07,10.31,30,10.09-30h9.65l-15,39.42h-9.87Z"/><path class="cls-1" d="M145.59,1.62a5.74,5.74,0,0,1,1.55,4.13,5.64,5.64,0,0,1-1.55,4.05,5.52,5.52,0,0,1-7.81,0,5.64,5.64,0,0,1-1.55-4.05,5.74,5.74,0,0,1,1.55-4.13,5.52,5.52,0,0,1,7.81,0ZM137,16.95h9.58V56.36H137Z"/><path class="cls-1" d="M181.69,56.36V51.58a12.91,12.91,0,0,1-5.31,3.9,19.53,19.53,0,0,1-7.44,1.33,15.85,15.85,0,0,1-7.26-1.58,11.6,11.6,0,0,1-4.83-4.38,11.85,11.85,0,0,1-1.69-6.26,10.48,10.48,0,0,1,3.9-8.66q3.91-3.13,11.05-3.21h11.49v-1a6.64,6.64,0,0,0-2.28-5.38q-2.28-1.92-6.63-1.92A22.77,22.77,0,0,0,161,28.07l-3.46-6.63A43.63,43.63,0,0,1,166,17.72a30.92,30.92,0,0,1,8.88-1.14q7.66,0,11.9,3.68T191,30.58l.07,25.79Zm-3.39-8.88a6.79,6.79,0,0,0,3.32-4.83V39.12h-9.95A10.81,10.81,0,0,0,166,40.27a4.07,4.07,0,0,0-1.8,3.72,4.79,4.79,0,0,0,1.88,4,8.08,8.08,0,0,0,5.12,1.47A12.51,12.51,0,0,0,178.3,47.49Z"/><path class="cls-1" d="M202.25,1.69h9.58V56.36h-9.58Z"/></g></g></g></svg>