<svg xmlns="http://www.w3.org/2000/svg" viewBox="0 0 109.26 151.4"><defs><style>.cls-1{fill:#efc94c;}.cls-2{fill:#fff;}</style></defs><title>102_historia_1</title><g id="Capa_2" data-name="Capa 2"><g id="_1-_Pantalla_Inici" data-name="1- Pantalla Inici"><path class="cls-1" d="M.49,130.13H3.4v9.43H15.48v-9.43h2.93v21.15H15.48v-9.09H3.4v9.09H.49Z"/><path class="cls-1" d="M26.83,129.43a1.94,1.94,0,0,1,0,2.6,1.79,1.79,0,0,1-2.51,0,1.94,1.94,0,0,1,0-2.6,1.79,1.79,0,0,1,2.51,0Zm-2.64,5.86H27v16H24.18Z"/><path class="cls-1" d="M39,137.86a7.86,7.86,0,0,0-2.28-.36,3.89,3.89,0,0,0-2,.47,1.56,1.56,0,0,0-.77,1.43,1.6,1.6,0,0,0,.86,1.47,12.5,12.5,0,0,0,2.61,1,20.59,20.59,0,0,1,2.72,1,4.83,4.83,0,0,1,1.8,1.42,3.88,3.88,0,0,1,.74,2.48,3.92,3.92,0,0,1-1.71,3.44,7.29,7.29,0,0,1-4.24,1.18,10.6,10.6,0,0,1-3.46-.57,7.85,7.85,0,0,1-2.83-1.63l1.06-2.05a7.5,7.5,0,0,0,2.46,1.45,8.18,8.18,0,0,0,2.85.54,4.27,4.27,0,0,0,2.24-.51,1.71,1.71,0,0,0,.85-1.57,1.79,1.79,0,0,0-.89-1.63,12.18,12.18,0,0,0-2.7-1.09,18,18,0,0,1-2.61-.92A4.64,4.64,0,0,1,31.93,142a3.71,3.71,0,0,1-.71-2.36,3.8,3.8,0,0,1,1.63-3.35,7.05,7.05,0,0,1,4.08-1.12,10.17,10.17,0,0,1,2.85.41,8.58,8.58,0,0,1,2.43,1.1l-1,2.14A9.62,9.62,0,0,0,39,137.86Z"/><path class="cls-1" d="M54.94,150.22a6.88,6.88,0,0,1-3.75,1.18,4.26,4.26,0,0,1-3.08-1.13,4.55,4.55,0,0,1-1.18-3.43V138H44.67v-2.14h2.27v-4.29h2.84v4.29h4.89V138H49.77v8.34a3,3,0,0,0,.48,1.9,1.79,1.79,0,0,0,1.45.57,5.07,5.07,0,0,0,2.48-.75Z"/><path class="cls-1" d="M69,136.23a7.39,7.39,0,0,1,2.9,2.85,9,9,0,0,1,0,8.38,7.36,7.36,0,0,1-2.9,2.87,9.35,9.35,0,0,1-8.52,0,7.39,7.39,0,0,1-2.9-2.86,9,9,0,0,1,0-8.4,7.39,7.39,0,0,1,2.9-2.85,9.35,9.35,0,0,1,8.52,0Zm-7,2.14a5,5,0,0,0-1.9,2,6.14,6.14,0,0,0-.68,2.92,6.29,6.29,0,0,0,.68,3,4.89,4.89,0,0,0,1.9,2,5.47,5.47,0,0,0,2.79.71,5.41,5.41,0,0,0,2.76-.71,4.89,4.89,0,0,0,1.9-2,6.29,6.29,0,0,0,.68-3,6.14,6.14,0,0,0-.68-2.92,5,5,0,0,0-1.9-2,5.32,5.32,0,0,0-2.76-.72A5.38,5.38,0,0,0,62,138.38Zm1-9.82,3.23,3.93-2.39.3-3.75-3Z"/><path class="cls-1" d="M81.95,136.13a6.66,6.66,0,0,1,3.44-.92v2.72a5.14,5.14,0,0,0-5.68,4.92v8.43H76.9v-16h2.81v3.44A5.79,5.79,0,0,1,81.95,136.13Z"/><path class="cls-1" d="M91.09,129.43a1.94,1.94,0,0,1,0,2.6,1.79,1.79,0,0,1-2.51,0,1.94,1.94,0,0,1,0-2.6,1.79,1.79,0,0,1,2.51,0Zm-2.64,5.86h2.81v16H88.44Z"/><path class="cls-1" d="M106.48,151.28V149q-1.78,2.36-5.59,2.36a6.38,6.38,0,0,1-2.92-.63A4.67,4.67,0,0,1,96,149a4.73,4.73,0,0,1-.68-2.51,4.1,4.1,0,0,1,1.59-3.4,7.11,7.11,0,0,1,4.43-1.28h5.08v-.75a3.3,3.3,0,0,0-1-2.61,4.45,4.45,0,0,0-3-.92,8.69,8.69,0,0,0-4.92,1.72l-1.18-1.93a14.68,14.68,0,0,1,3.19-1.62,10.88,10.88,0,0,1,3.49-.5,6.68,6.68,0,0,1,4.62,1.46,5.31,5.31,0,0,1,1.66,4.09l0,10.51Zm-1.68-3.16a3.75,3.75,0,0,0,1.65-2.52V144h-4.68a5.46,5.46,0,0,0-2.82.57,2,2,0,0,0-.92,1.81,2.35,2.35,0,0,0,.94,2,4,4,0,0,0,2.51.73A5.72,5.72,0,0,0,104.8,148.12Z"/><g id="Tipus_categories" data-name="Tipus categories"><g id="Historia"><rect class="cls-1" width="109" height="109" rx="22.04" ry="22.04"/><g id="Icona_Historia" data-name="Icona Historia"><path class="cls-2" d="M61.3,31.16a.94.94,0,0,0-.57,1.79,20.56,20.56,0,0,1,14.4,19.68v28c-2.29-.24-8.05-.77-14.9-.82l1.71-16.25L69.89,60a.94.94,0,0,0,.55-.74l.94-7.5a.94.94,0,0,0-1.11-1,118,118,0,0,1-13.93,1.86.94.94,0,0,0-.89,1l.92,14.75-1.5,3h-.72l-1.5-3,.92-14.75a.94.94,0,0,0-.89-1,118.09,118.09,0,0,1-13.93-1.86.94.94,0,0,0-1.11,1l.94,7.5a.93.93,0,0,0,.55.74l7.95,3.53,1.71,16.25c-6.85.05-12.62.58-14.9.82v-28A20.53,20.53,0,0,1,48.39,32.91a.94.94,0,1,0-.55-1.79A22.4,22.4,0,0,0,32,52.62V81.7a.94.94,0,0,0,.94.94H33a152.13,152.13,0,0,1,16.77-.93.94.94,0,0,0,.93-1l-.19-1.78h5.35a.94.94,0,0,0,0-1.88H50.36L48.87,62.84a.94.94,0,0,0-.55-.76l-8-3.54-.71-5.7a116.58,116.58,0,0,0,12,1.6l-.88,14.07a.94.94,0,0,0,.1.48l1.88,3.75a.94.94,0,0,0,.84.52h1.88a.94.94,0,0,0,.84-.52L58.15,69a.94.94,0,0,0,.1-.48l-.88-14.07a116.61,116.61,0,0,0,12-1.6l-.71,5.7-8,3.54a.94.94,0,0,0-.55.76L58.26,80.66a.94.94,0,0,0,.93,1A152.3,152.3,0,0,1,76,82.63a.93.93,0,0,0,.74-.23.94.94,0,0,0,.32-.7V52.62A22.43,22.43,0,0,0,61.3,31.16Z"/><path class="cls-2" d="M51.69,38.55a.94.94,0,0,0,.94.94h3.75a.94.94,0,0,0,.94-.94c0-3.57,2.15-10.59,2.17-10.66a.94.94,0,0,0-.75-1.2,27.52,27.52,0,0,0-4.23-.33h0a27.53,27.53,0,0,0-4.23.33.94.94,0,0,0-.75,1.2C49.53,28,51.69,35,51.69,38.55Zm1.88-10.29v2.79a.94.94,0,1,0,1.88,0V28.26c.65,0,1.3.06,1.94.14a53.22,53.22,0,0,0-1.91,9.22H53.53a53.31,53.31,0,0,0-1.91-9.22C52.26,28.33,52.91,28.29,53.56,28.26Z"/></g></g></g></g></g></svg>