<svg xmlns="http://www.w3.org/2000/svg" viewBox="0 0 158.28 157.23"><defs><style>.cls-1{fill:#e27a3f;}.cls-2{fill:#fff;}</style></defs><title>103_tecnologia_1</title><g id="Capa_2" data-name="Capa 2"><g id="_1-_Pantalla_Inici" data-name="1- Pantalla Inici"><path class="cls-1" d="M0,130.13H16.53v2.66H9.7v18.49H6.8V132.79H0Z"/><path class="cls-1" d="M29.43,137.39a9,9,0,0,1,1.9,6.09q0,.6,0,.91H18.67a5.44,5.44,0,0,0,1.8,3.41,5.32,5.32,0,0,0,3.61,1.27,6.76,6.76,0,0,0,2.64-.51,6.37,6.37,0,0,0,2.13-1.45l1.54,1.6a8.06,8.06,0,0,1-2.84,2,9.45,9.45,0,0,1-3.69.7,8.48,8.48,0,0,1-4.18-1,7.1,7.1,0,0,1-2.84-2.85,8.58,8.58,0,0,1-1-4.2,8.49,8.49,0,0,1,1-4.18,7.38,7.38,0,0,1,2.83-2.87,8.16,8.16,0,0,1,4.14-1A7,7,0,0,1,29.43,137.39Zm-.63,4.82a4.63,4.63,0,0,0-5-4.68,5.06,5.06,0,0,0-3.52,1.27,5.33,5.33,0,0,0-1.68,3.42Z"/><path class="cls-1" d="M41.81,137.71a5.56,5.56,0,0,0-2.79.69,4.93,4.93,0,0,0-1.92,2,6,6,0,0,0-.69,2.93,6.11,6.11,0,0,0,.68,2.93,5,5,0,0,0,1.87,2,5.24,5.24,0,0,0,2.73.71,7.19,7.19,0,0,0,2.78-.51,5.29,5.29,0,0,0,2.05-1.48l1.6,1.63a7.06,7.06,0,0,1-2.76,2.08,9.46,9.46,0,0,1-3.79.73,8.25,8.25,0,0,1-4.14-1,7.26,7.26,0,0,1-2.83-2.86,8.49,8.49,0,0,1-1-4.18,8.58,8.58,0,0,1,1-4.2,7.24,7.24,0,0,1,2.83-2.87,8.25,8.25,0,0,1,4.14-1,10.13,10.13,0,0,1,3.64.62,7,7,0,0,1,2.7,1.8l-1.54,1.93A6.33,6.33,0,0,0,41.81,137.71Z"/><path class="cls-1" d="M65.44,136.85A6.25,6.25,0,0,1,67,141.4v9.88H64.23v-9.12A3.93,3.93,0,0,0,60,137.86a4.83,4.83,0,0,0-3.49,1.38A5.4,5.4,0,0,0,55,142.73v8.55H52.15v-16H55v3.38q1.6-3.41,6.07-3.47A5.87,5.87,0,0,1,65.44,136.85Z"/><path class="cls-1" d="M82.95,136.23a7.39,7.39,0,0,1,2.9,2.85,9,9,0,0,1,0,8.38,7.36,7.36,0,0,1-2.9,2.87,9.35,9.35,0,0,1-8.52,0,7.39,7.39,0,0,1-2.9-2.86,9,9,0,0,1,0-8.4,7.39,7.39,0,0,1,2.9-2.85,9.35,9.35,0,0,1,8.52,0Zm-7,2.14a5,5,0,0,0-1.9,2,6.14,6.14,0,0,0-.68,2.92,6.29,6.29,0,0,0,.68,3,4.89,4.89,0,0,0,1.9,2,5.47,5.47,0,0,0,2.79.71,5.41,5.41,0,0,0,2.76-.71,4.89,4.89,0,0,0,1.9-2,6.29,6.29,0,0,0,.68-3,6.14,6.14,0,0,0-.68-2.92,5,5,0,0,0-1.9-2,5.32,5.32,0,0,0-2.76-.72A5.38,5.38,0,0,0,75.91,138.38Z"/><path class="cls-1" d="M91,128.86h2.81v22.42H91Z"/><path class="cls-1" d="M110.32,136.23a7.39,7.39,0,0,1,2.9,2.85,9,9,0,0,1,0,8.38,7.36,7.36,0,0,1-2.9,2.87,9.35,9.35,0,0,1-8.52,0,7.39,7.39,0,0,1-2.9-2.86,9,9,0,0,1,0-8.4,7.39,7.39,0,0,1,2.9-2.85,9.35,9.35,0,0,1,8.52,0Zm-7,2.14a5,5,0,0,0-1.9,2,6.14,6.14,0,0,0-.68,2.92,6.29,6.29,0,0,0,.68,3,4.89,4.89,0,0,0,1.9,2,5.47,5.47,0,0,0,2.79.71,5.41,5.41,0,0,0,2.76-.71,4.89,4.89,0,0,0,1.9-2,6.29,6.29,0,0,0,.68-3,6.14,6.14,0,0,0-.68-2.92,5,5,0,0,0-1.9-2,5.32,5.32,0,0,0-2.76-.72A5.38,5.38,0,0,0,103.28,138.38Z"/><path class="cls-1" d="M132.33,135.29v14.35a7.78,7.78,0,0,1-1,4,6.71,6.71,0,0,1-2.85,2.64,9.48,9.48,0,0,1-4.29.92,10.92,10.92,0,0,1-6.59-2.24l1.24-2.05a8.54,8.54,0,0,0,2.45,1.43,8,8,0,0,0,2.78.47,5.55,5.55,0,0,0,4-1.39,4.86,4.86,0,0,0,1.48-3.72V147.5a6,6,0,0,1-2.3,2.25,6.77,6.77,0,0,1-3.32.8,7.26,7.26,0,0,1-3.79-1,6.68,6.68,0,0,1-2.55-2.73,8.62,8.62,0,0,1-.91-4,8.38,8.38,0,0,1,.91-4,6.64,6.64,0,0,1,2.55-2.69,7.35,7.35,0,0,1,3.79-1,6.85,6.85,0,0,1,3.34.79,5.87,5.87,0,0,1,2.28,2.24v-2.93ZM127,147.59a4.86,4.86,0,0,0,1.8-1.92,5.8,5.8,0,0,0,.65-2.76,5.87,5.87,0,0,0-.65-2.79,4.86,4.86,0,0,0-1.8-1.92,5,5,0,0,0-2.63-.7,5,5,0,0,0-2.64.7,4.93,4.93,0,0,0-1.83,1.92,5.76,5.76,0,0,0-.67,2.79,5.53,5.53,0,0,0,1.45,3.87,4.83,4.83,0,0,0,3.69,1.51A5,5,0,0,0,127,147.59Z"/><path class="cls-1" d="M140.11,129.43a1.94,1.94,0,0,1,0,2.6,1.79,1.79,0,0,1-2.51,0,1.94,1.94,0,0,1,0-2.6,1.79,1.79,0,0,1,2.51,0Zm-2.64,5.86h2.81v16h-2.81Z"/><path class="cls-1" d="M155.5,151.28V149q-1.78,2.36-5.59,2.36a6.38,6.38,0,0,1-2.92-.63,4.67,4.67,0,0,1-1.93-1.75,4.73,4.73,0,0,1-.68-2.51,4.1,4.1,0,0,1,1.59-3.4,7.11,7.11,0,0,1,4.43-1.28h5.08v-.75a3.3,3.3,0,0,0-1-2.61,4.45,4.45,0,0,0-3-.92,8.69,8.69,0,0,0-4.92,1.72l-1.18-1.93a14.68,14.68,0,0,1,3.19-1.62,10.88,10.88,0,0,1,3.49-.5,6.68,6.68,0,0,1,4.62,1.46,5.31,5.31,0,0,1,1.66,4.09l0,10.51Zm-1.68-3.16a3.75,3.75,0,0,0,1.65-2.52V144h-4.68a5.46,5.46,0,0,0-2.82.57,2,2,0,0,0-.92,1.81,2.35,2.35,0,0,0,.94,2,4,4,0,0,0,2.51.73A5.72,5.72,0,0,0,153.83,148.12Z"/><g id="Tipus_categories" data-name="Tipus categories"><g id="Tecnologia"><rect class="cls-1" x="25.62" width="109" height="109" rx="22.04" ry="22.04"/><g id="Icona_Tecnologia" data-name="Icona Tecnologia"><path class="cls-2" d="M102.87,31.46H57.38a3.13,3.13,0,0,0-3.12,3.12V66a3.13,3.13,0,0,0,3.12,3.12H73v2.27a3.78,3.78,0,0,1-3.78,3.78H65.75a1.19,1.19,0,0,0,0,2.39H94.49a1.19,1.19,0,1,0,0-2.39H91.06a3.78,3.78,0,0,1-3.78-3.78V69.11h15.59A3.13,3.13,0,0,0,106,66V34.58A3.13,3.13,0,0,0,102.87,31.46ZM74.05,75.16a6.13,6.13,0,0,0,1.3-3.78V69.11H84.9v2.27a6.13,6.13,0,0,0,1.3,3.78ZM103.61,66a.74.74,0,0,1-.74.74H57.38a.74.74,0,0,1-.74-.74V59.72h47Zm0-8.65h-47V34.58a.74.74,0,0,1,.74-.74h45.49a.74.74,0,0,1,.74.74V57.33Z"/><circle class="cls-2" cx="80.12" cy="63.22" r="1.29"/><path class="cls-2" d="M82.17,39.67a1.19,1.19,0,0,0-1.69,0L72.05,48.1a1.19,1.19,0,0,0,1.69,1.69l8.43-8.43A1.19,1.19,0,0,0,82.17,39.67Z"/><path class="cls-2" d="M87.16,44.56a1.19,1.19,0,0,0-1.69,0l-3.36,3.36a1.19,1.19,0,1,0,1.69,1.69l3.36-3.36A1.19,1.19,0,0,0,87.16,44.56Z"/></g></g></g></g></g></svg>