<svg xmlns="http://www.w3.org/2000/svg" viewBox="0 0 139.64 157.23"><defs><style>.cls-1{fill:#45b29d;}.cls-2{fill:#fff;}</style></defs><title>104_geografia_1</title><g id="Capa_2" data-name="Capa 2"><g id="_1-_Pantalla_Inici" data-name="1- Pantalla Inici"><path class="cls-1" d="M16.5,140.94h2.57v7.76a12.81,12.81,0,0,1-3.75,2,12.76,12.76,0,0,1-4.26.76,11.15,11.15,0,0,1-5.59-1.44A10.7,10.7,0,0,1,0,140.67a10.33,10.33,0,0,1,1.48-5.42,10.63,10.63,0,0,1,4-3.88,11.53,11.53,0,0,1,5.68-1.42,12.2,12.2,0,0,1,4.31.79,11.56,11.56,0,0,1,3.64,2.15L17.49,135a9.23,9.23,0,0,0-2.92-1.83,9.12,9.12,0,0,0-3.37-.65A8.26,8.26,0,0,0,7,133.6a8.08,8.08,0,0,0-3,3,8.19,8.19,0,0,0,0,8.23,8.27,8.27,0,0,0,3,3,8.17,8.17,0,0,0,4.17,1.1,8.88,8.88,0,0,0,2.7-.44,10.06,10.06,0,0,0,2.55-1.22Z"/><path class="cls-1" d="M36.32,137.39a9,9,0,0,1,1.9,6.09q0,.6,0,.91H25.56a5.44,5.44,0,0,0,1.8,3.41A5.32,5.32,0,0,0,31,149.07a6.76,6.76,0,0,0,2.64-.51,6.37,6.37,0,0,0,2.13-1.45l1.54,1.6a8.06,8.06,0,0,1-2.84,2,9.45,9.45,0,0,1-3.69.7,8.48,8.48,0,0,1-4.18-1,7.1,7.1,0,0,1-2.84-2.85,8.58,8.58,0,0,1-1-4.2,8.49,8.49,0,0,1,1-4.18,7.38,7.38,0,0,1,2.83-2.87,8.16,8.16,0,0,1,4.14-1A7,7,0,0,1,36.32,137.39Zm-.63,4.82a4.63,4.63,0,0,0-5-4.68,5.06,5.06,0,0,0-3.52,1.27,5.33,5.33,0,0,0-1.68,3.42Z"/><path class="cls-1" d="M52.95,136.23a7.39,7.39,0,0,1,2.9,2.85,9,9,0,0,1,0,8.38,7.36,7.36,0,0,1-2.9,2.87,9.35,9.35,0,0,1-8.52,0,7.39,7.39,0,0,1-2.9-2.86,9,9,0,0,1,0-8.4,7.39,7.39,0,0,1,2.9-2.85,9.35,9.35,0,0,1,8.52,0Zm-7,2.14a5,5,0,0,0-1.9,2,6.14,6.14,0,0,0-.68,2.92,6.29,6.29,0,0,0,.68,3,4.89,4.89,0,0,0,1.9,2,5.47,5.47,0,0,0,2.79.71,5.41,5.41,0,0,0,2.76-.71,4.89,4.89,0,0,0,1.9-2,6.29,6.29,0,0,0,.68-3,6.14,6.14,0,0,0-.68-2.92,5,5,0,0,0-1.9-2,5.32,5.32,0,0,0-2.76-.72A5.38,5.38,0,0,0,45.91,138.38Z"/><path class="cls-1" d="M75,135.29v14.35a7.78,7.78,0,0,1-1,4,6.71,6.71,0,0,1-2.85,2.64,9.48,9.48,0,0,1-4.29.92A10.92,10.92,0,0,1,60.21,155l1.24-2.05a8.54,8.54,0,0,0,2.45,1.43,8,8,0,0,0,2.78.47,5.55,5.55,0,0,0,4-1.39,4.86,4.86,0,0,0,1.48-3.72V147.5a6,6,0,0,1-2.3,2.25,6.77,6.77,0,0,1-3.32.8,7.26,7.26,0,0,1-3.79-1,6.68,6.68,0,0,1-2.55-2.73,8.62,8.62,0,0,1-.91-4,8.38,8.38,0,0,1,.91-4,6.64,6.64,0,0,1,2.55-2.69,7.35,7.35,0,0,1,3.79-1,6.85,6.85,0,0,1,3.34.79,5.87,5.87,0,0,1,2.28,2.24v-2.93Zm-5.29,12.3a4.86,4.86,0,0,0,1.8-1.92,5.8,5.8,0,0,0,.65-2.76,5.87,5.87,0,0,0-.65-2.79,4.86,4.86,0,0,0-1.8-1.92,5,5,0,0,0-2.63-.7,5,5,0,0,0-2.64.7,4.93,4.93,0,0,0-1.83,1.92,5.76,5.76,0,0,0-.67,2.79,5.53,5.53,0,0,0,1.45,3.87A4.83,4.83,0,0,0,67,148.29,5,5,0,0,0,69.67,147.59Z"/><path class="cls-1" d="M85.14,136.13a6.66,6.66,0,0,1,3.44-.92v2.72a5.14,5.14,0,0,0-5.68,4.92v8.43H80.09v-16H82.9v3.44A5.79,5.79,0,0,1,85.14,136.13Z"/><path class="cls-1" d="M100.7,151.28V149q-1.78,2.36-5.59,2.36a6.38,6.38,0,0,1-2.92-.63A4.67,4.67,0,0,1,90.26,149a4.73,4.73,0,0,1-.68-2.51,4.1,4.1,0,0,1,1.59-3.4,7.11,7.11,0,0,1,4.43-1.28h5.08v-.75a3.31,3.31,0,0,0-1-2.61,4.45,4.45,0,0,0-3-.92,8.69,8.69,0,0,0-4.92,1.72l-1.18-1.93a14.69,14.69,0,0,1,3.19-1.62,10.88,10.88,0,0,1,3.49-.5,6.69,6.69,0,0,1,4.62,1.46,5.31,5.31,0,0,1,1.66,4.09l0,10.51ZM99,148.12a3.75,3.75,0,0,0,1.65-2.52V144H96a5.46,5.46,0,0,0-2.83.57,2,2,0,0,0-.92,1.81,2.35,2.35,0,0,0,.94,2,4,4,0,0,0,2.51.73A5.72,5.72,0,0,0,99,148.12Z"/><path class="cls-1" d="M112.57,131.85a2.45,2.45,0,0,0-.73,1.9v2.08h4.41V138h-4.41v13.29H109V138H107v-2.14H109v-1.72a5.64,5.64,0,0,1,.74-3,4.81,4.81,0,0,1,1.95-1.84,5.62,5.62,0,0,1,2.6-.62,6.22,6.22,0,0,1,2.78.73l-.67,2.3a4.82,4.82,0,0,0-2.05-.51A2.58,2.58,0,0,0,112.57,131.85Zm8.9-2.42a1.94,1.94,0,0,1,0,2.6,1.79,1.79,0,0,1-2.51,0,1.94,1.94,0,0,1,0-2.6,1.79,1.79,0,0,1,2.51,0Zm-2.64,5.86h2.81v16h-2.81Z"/><path class="cls-1" d="M136.86,151.28V149q-1.78,2.36-5.59,2.36a6.38,6.38,0,0,1-2.92-.63,4.67,4.67,0,0,1-1.93-1.75,4.73,4.73,0,0,1-.68-2.51,4.1,4.1,0,0,1,1.59-3.4,7.11,7.11,0,0,1,4.43-1.28h5.08v-.75a3.31,3.31,0,0,0-1-2.61,4.45,4.45,0,0,0-3-.92,8.69,8.69,0,0,0-4.92,1.72l-1.18-1.93a14.69,14.69,0,0,1,3.19-1.62,10.88,10.88,0,0,1,3.49-.5,6.69,6.69,0,0,1,4.62,1.46,5.31,5.31,0,0,1,1.66,4.09l0,10.51Zm-1.68-3.16a3.75,3.75,0,0,0,1.65-2.52V144h-4.68a5.46,5.46,0,0,0-2.83.57,2,2,0,0,0-.92,1.81,2.35,2.35,0,0,0,.94,2,4,4,0,0,0,2.51.73A5.72,5.72,0,0,0,135.19,148.12Z"/><g id="Tipus_categories" data-name="Tipus categories"><g id="Geografia"><rect class="cls-1" x="15.88" width="109" height="109" rx="22.04" ry="22.04"/><g id="Icona_Geografia" data-name="Icona Geografia"><path class="cls-2" d="M90.74,34.14A28.8,28.8,0,1,0,99.18,54.5,28.61,28.61,0,0,0,90.74,34.14Zm-6.87,3.94,1.27-5.26A26.33,26.33,0,0,1,95.65,47.44l-.66.13a2.6,2.6,0,0,0-2,1.92l-.26,1a0,0,0,0,1,0,0h0L91.11,49.4a2.61,2.61,0,0,0-2.76-.22l-1.92,1a2.6,2.6,0,0,0,.29,4.73l.09,0a0,0,0,0,1,0,.06l-1.19,1.37a0,0,0,0,1,0,0l-3.22-2.08a2.6,2.6,0,0,0-4,1.76l-.25,1.52a2.59,2.59,0,0,0,.79,2.32l1.68,1.57a0,0,0,0,1,0,0l-2.74,4.15A2.6,2.6,0,0,0,77.45,67l-.24,5.94v0l-3.64,3.57a0,0,0,0,1,0,0l-2.36-1.38,0,0s-1.15-5.2-1.19-5.32l-1-2.8a2.61,2.61,0,0,0-2.21-1.68l-4.77-.41,0,0-2.71-4.68a0,0,0,0,1,0,0l.68-4.54v0L64,52.49h0l4,1.68a2.6,2.6,0,0,0,.72.18l5.59.61a2.59,2.59,0,0,0,1.79-.47l3.7-2.66a2.61,2.61,0,0,0,.86-3.17l-.34-.77a2.59,2.59,0,0,0-2.23-1.53l-10.4-.57h0a.07.07,0,0,1,0,0h0l3.12-.84A2.61,2.61,0,0,0,72,44.26l3.82-3.6h0l5.75-.59A2.6,2.6,0,0,0,83.88,38.08ZM64.41,36l2.15-4a2.92,2.92,0,0,0,.28-2l-.29-1.42a26.31,26.31,0,0,1,7.71,0,3.83,3.83,0,0,1-.36.36l-3,1.22a2.93,2.93,0,0,0-1.13.81L65,36.48a.36.36,0,0,1-.54,0A.51.51,0,0,1,64.41,36Zm-11.19-1.3v3.84a3.14,3.14,0,0,1-1.44,2.64L49,42.94a5.68,5.68,0,0,0-1.61,1.57l-2.5,3.66A26.27,26.27,0,0,1,53.22,34.67Zm1.67,37.78-.36,2.94a26.35,26.35,0,0,1-9-12.39h1.63a.58.58,0,0,1,.49.27L51,68.4a3.16,3.16,0,0,0,.53.62l3.2,2.92A.58.58,0,0,1,54.89,72.45Zm15.49,8.29A26.08,26.08,0,0,1,56.91,77l.52-4.24a3.15,3.15,0,0,0-1-2.71s-3.27-3-3.3-3l-3.29-5.13a3.13,3.13,0,0,0-2.65-1.45H44.82a26.22,26.22,0,0,1-.68-5.94q0-.33,0-.66L49.53,46a3.12,3.12,0,0,1,.89-.87l2.75-1.79a5.69,5.69,0,0,0,2.6-4.79v-5.8A26.11,26.11,0,0,1,64,29l.3,1.44a.36.36,0,0,1,0,.24l-2.15,4a6.35,6.35,0,0,0-.31.92,2.92,2.92,0,0,0,2.86,3.48,2.94,2.94,0,0,0,2.22-1l4.74-5.54a.36.36,0,0,1,.14-.1l3-1.22A2.93,2.93,0,0,0,76,30.48l1.15-1.34a26.07,26.07,0,0,1,5.75,2.29c0,.07-1.48,6.05-1.48,6.05a0,0,0,0,1,0,0l-5.75.59a2.61,2.61,0,0,0-1.52.69l-3.82,3.6h0l-3.12.84a2.6,2.6,0,0,0,.53,5.1l10.4.57,0,0,.34.77a0,0,0,0,1,0,0l-3.7,2.66h0l-5.6-.61-4-1.68a2.61,2.61,0,0,0-2.56.32l-4.17,3.14a2.58,2.58,0,0,0-1,1.69l-.68,4.54A2.61,2.61,0,0,0,57,61.5l2.71,4.68a2.6,2.6,0,0,0,2,1.28l4.77.41,0,0,1,2.8,1.09,5a2.6,2.6,0,0,0,1.22,1.69l2.36,1.38a2.6,2.6,0,0,0,3.13-.39L79,74.79A2.59,2.59,0,0,0,79.77,73L80,67.1v0l2.74-4.15a2.59,2.59,0,0,0-.39-3.33L80.68,58a0,0,0,0,1,0,0l.25-1.52a0,0,0,0,1,0,0h0l3.22,2.08a2.61,2.61,0,0,0,3.37-.48l1.19-1.37a2.6,2.6,0,0,0-1-4.13l-.09,0h0a.07.07,0,0,1,0,0h0l1.92-1h0l1.54,1.15a2.6,2.6,0,0,0,4.08-1.45l.26-1a0,0,0,0,1,0,0l.75-.14a26.24,26.24,0,0,1-25.84,30.8Z"/></g></g></g></g></g></svg>