<svg xmlns="http://www.w3.org/2000/svg" viewBox="0 0 109 151.4"><defs><style>.cls-1{fill:#df5a49;}.cls-2{fill:#fff;}</style></defs><title>105_art_1</title><g id="Capa_2" data-name="Capa 2"><g id="_1-_Pantalla_Inici" data-name="1- Pantalla Inici"><path class="cls-1" d="M50.5,151.28l-2.24-5.14H37.11l-2.21,5.14H31.86l9.4-21.15h3l9.37,21.15Zm-12.24-7.76h8.88l-4.47-10.27Z"/><path class="cls-1" d="M61.49,136.13a6.66,6.66,0,0,1,3.44-.92v2.72a5.14,5.14,0,0,0-5.68,4.92v8.43H56.45v-16h2.81v3.44A5.79,5.79,0,0,1,61.49,136.13Z"/><path class="cls-1" d="M76.57,150.22a6.88,6.88,0,0,1-3.75,1.18,4.26,4.26,0,0,1-3.08-1.13,4.55,4.55,0,0,1-1.18-3.43V138H66.3v-2.14h2.27v-4.29H71.4v4.29H76.3V138H71.4v8.34a3,3,0,0,0,.48,1.9,1.79,1.79,0,0,0,1.45.57,5.07,5.07,0,0,0,2.48-.75Z"/><g id="Tipus_categories" data-name="Tipus categories"><g id="Art"><rect class="cls-1" width="109" height="109" rx="22.04" ry="22.04"/><g id="Icona_Art" data-name="Icona Art"><path class="cls-2" d="M81.9,28.48c-1.62-1.62-4.86-.69-10.2,2.9a109.87,109.87,0,0,0-15.33,13c-7.93,7.93-14,15.71-16,20.52a7,7,0,0,0-1-.29,8.05,8.05,0,0,0-6.19,1.44,9,9,0,0,0-3.47,5.08,14.82,14.82,0,0,1-3.07,5.78,1.32,1.32,0,0,0,.12,1.84,10,10,0,0,0,6.72,2.51,12.18,12.18,0,0,0,7.05-2.34,14.15,14.15,0,0,0,2-1.7,8.39,8.39,0,0,0,2.25-7C49.46,68.56,57.68,62.3,66,54A109.87,109.87,0,0,0,79,38.68C82.6,33.34,83.52,30.1,81.9,28.48Zm-41.33,47A11.47,11.47,0,0,1,39,76.81a8.63,8.63,0,0,1-9.5.75,17.37,17.37,0,0,0,2.76-5.75h0l0-.07a6.41,6.41,0,0,1,2.43-3.51,5.42,5.42,0,0,1,4.15-1A4,4,0,0,1,41.54,69,5.43,5.43,0,0,1,40.57,75.45Zm3.28-7.68a4.89,4.89,0,0,0-1.17-1.46,31.65,31.65,0,0,1,3.94-6.68l4.12,4.12A31.07,31.07,0,0,1,43.85,67.78Zm9-5.61-4.65-4.65c.8-1,1.67-2.11,2.6-3.21l5.26,5.26Q54.41,61,52.87,62.17ZM76.42,37.8A110.29,110.29,0,0,1,64.11,52.15c-2.09,2.09-4.11,4-6,5.69l-5.53-5.53c1.75-2,3.67-4,5.68-6A110.34,110.34,0,0,1,72.58,34c5.27-3.65,7.09-3.65,7.44-3.61C80.07,30.71,80.06,32.53,76.42,37.8Z"/><path class="cls-2" d="M39.45,71.9a1.32,1.32,0,0,0-1.79.52,1,1,0,0,1-.13.18,6.28,6.28,0,0,1-.76.65,5,5,0,0,1-1.63.77,1.32,1.32,0,1,0,.67,2.55,7.6,7.6,0,0,0,2.5-1.18,12.19,12.19,0,0,0,1.16-1,3.58,3.58,0,0,0,.5-.7A1.32,1.32,0,0,0,39.45,71.9Z"/></g></g></g></g></g></svg>