<svg xmlns="http://www.w3.org/2000/svg" viewBox="0 0 109 151.49"><defs><style>.cls-1{fill:#7dce49;}.cls-2{fill:#fff;}</style></defs><title>106_ciencia_1</title><g id="Capa_2" data-name="Capa 2"><g id="_1-_Pantalla_Inici" data-name="1- Pantalla Inici"><path class="cls-1" d="M15.09,133.22a8.14,8.14,0,0,0-10.36,3.32,8.15,8.15,0,0,0,3,11.13,8,8,0,0,0,4.11,1.09,8.29,8.29,0,0,0,3.26-.68,9.42,9.42,0,0,0,2.84-1.86l1.75,1.9a11.78,11.78,0,0,1-3.72,2.46,11.1,11.1,0,0,1-9.82-.54,10.68,10.68,0,0,1-5.41-9.38,10.42,10.42,0,0,1,1.46-5.42,10.59,10.59,0,0,1,4-3.88,11.24,11.24,0,0,1,5.59-1.42,11.38,11.38,0,0,1,4.28.83,10.58,10.58,0,0,1,3.58,2.34L17.9,135.2A8.74,8.74,0,0,0,15.09,133.22Z"/><path class="cls-1" d="M26.07,129.43a1.94,1.94,0,0,1,0,2.6,1.79,1.79,0,0,1-2.51,0,1.94,1.94,0,0,1,0-2.6,1.79,1.79,0,0,1,2.51,0Zm-2.64,5.86h2.81v16H23.43Z"/><path class="cls-1" d="M43.73,137.39a9,9,0,0,1,1.9,6.09q0,.6,0,.91H33a5.44,5.44,0,0,0,1.8,3.41,5.32,5.32,0,0,0,3.61,1.27,6.75,6.75,0,0,0,2.64-.51,6.37,6.37,0,0,0,2.13-1.45l1.54,1.6a8.06,8.06,0,0,1-2.84,2,9.46,9.46,0,0,1-3.69.7,8.49,8.49,0,0,1-4.18-1,7.1,7.1,0,0,1-2.84-2.85,8.58,8.58,0,0,1-1-4.2,8.49,8.49,0,0,1,1-4.18A7.38,7.38,0,0,1,34,136.25a8.16,8.16,0,0,1,4.14-1A7,7,0,0,1,43.73,137.39Zm-.63,4.82a4.63,4.63,0,0,0-5-4.68,5.06,5.06,0,0,0-3.52,1.27,5.33,5.33,0,0,0-1.68,3.42Zm-6.89-13.66,3.23,3.93-2.39.3-3.75-3Z"/><path class="cls-1" d="M62.76,136.85a6.25,6.25,0,0,1,1.6,4.55v9.88H61.55v-9.12a3.93,3.93,0,0,0-4.26-4.29,4.82,4.82,0,0,0-3.49,1.38,5.4,5.4,0,0,0-1.53,3.49v8.55H49.47v-16h2.81v3.38q1.6-3.41,6.07-3.47A5.87,5.87,0,0,1,62.76,136.85Z"/><path class="cls-1" d="M76,137.71a5.56,5.56,0,0,0-2.79.69,4.93,4.93,0,0,0-1.92,2,6,6,0,0,0-.69,2.93,6.11,6.11,0,0,0,.68,2.93,5,5,0,0,0,1.87,2,5.24,5.24,0,0,0,2.73.71,7.19,7.19,0,0,0,2.78-.51,5.29,5.29,0,0,0,2.05-1.48l1.6,1.63a7.07,7.07,0,0,1-2.76,2.08,9.47,9.47,0,0,1-3.79.73,8.25,8.25,0,0,1-4.14-1,7.26,7.26,0,0,1-2.83-2.86,8.49,8.49,0,0,1-1-4.18,8.58,8.58,0,0,1,1-4.2,7.24,7.24,0,0,1,2.83-2.87,8.25,8.25,0,0,1,4.14-1,10.13,10.13,0,0,1,3.64.62,7,7,0,0,1,2.7,1.8l-1.54,1.93A6.33,6.33,0,0,0,76,137.71Z"/><path class="cls-1" d="M89,129.43a1.94,1.94,0,0,1,0,2.6,1.79,1.79,0,0,1-2.51,0,1.94,1.94,0,0,1,0-2.6,1.79,1.79,0,0,1,2.51,0Zm-2.64,5.86h2.81v16H86.36Z"/><path class="cls-1" d="M104.4,151.28V149q-1.78,2.36-5.59,2.36a6.37,6.37,0,0,1-2.92-.63A4.66,4.66,0,0,1,94,149a4.72,4.72,0,0,1-.68-2.51,4.1,4.1,0,0,1,1.59-3.4,7.11,7.11,0,0,1,4.43-1.28h5.08v-.75a3.3,3.3,0,0,0-1-2.61,4.45,4.45,0,0,0-3-.92,8.7,8.7,0,0,0-4.92,1.72l-1.18-1.93a14.67,14.67,0,0,1,3.19-1.62,10.88,10.88,0,0,1,3.49-.5,6.68,6.68,0,0,1,4.62,1.46,5.31,5.31,0,0,1,1.66,4.09l0,10.51Zm-1.68-3.16a3.76,3.76,0,0,0,1.65-2.52V144H99.68a5.46,5.46,0,0,0-2.82.57,2,2,0,0,0-.92,1.81,2.35,2.35,0,0,0,.94,2,4,4,0,0,0,2.51.73A5.72,5.72,0,0,0,102.72,148.12Z"/><g id="Tipus_categories" data-name="Tipus categories"><g id="Ciencia"><rect class="cls-1" width="109" height="109" rx="22.04" ry="22.04"/><g id="Icona_CIència" data-name="Icona CIència"><path class="cls-2" d="M72.57,48.77V34.2a2.85,2.85,0,0,0-.32-5.69H59.57a2.85,2.85,0,0,0-.32,5.69V48.77a18.42,18.42,0,0,0-7.43,5.33,1,1,0,1,0,1.46,1.22,16.51,16.51,0,0,1,7.24-5,1,1,0,0,0,.64-.9V34.21h5.39a1,1,0,1,0,0-1.9h-7a1,1,0,0,1,0-1.9H72.25a1,1,0,1,1,0,1.9h-1.9a1,1,0,1,0,0,1.9h.32V49.43a1,1,0,0,0,.64.9A16.49,16.49,0,1,1,59.71,81.19,1,1,0,1,0,59,82.95,18.39,18.39,0,1,0,72.57,48.77Z"/><circle class="cls-2" cx="73" cy="69.26" r="0.95"/><circle class="cls-2" cx="69.2" cy="73.06" r="0.95"/><path class="cls-2" d="M60.54,77.4a1,1,0,0,0-.81,1.72,14.58,14.58,0,0,0,18.81-20.5,1,1,0,0,0-1-.47l-.35,0-.13,0a7.3,7.3,0,0,0-2.84,1.53,3.22,3.22,0,0,1-2.46.92,3.14,3.14,0,0,1-2.33-1,5,5,0,0,0-7.14,0,3.14,3.14,0,0,1-2.33,1,3.22,3.22,0,0,1-2.46-.92,7.3,7.3,0,0,0-2.84-1.53l-.13,0-.35,0a1,1,0,0,0-1,.46l0,0a1,1,0,0,0,1,1.41h0a5.45,5.45,0,0,1,2.1,1.17,5.31,5.31,0,0,0,7.22-.16,3.14,3.14,0,0,1,4.66,0,5.31,5.31,0,0,0,7.22.16,5.58,5.58,0,0,1,1.76-1.06A12.68,12.68,0,0,1,60.54,77.4Z"/><path class="cls-2" d="M47.66,49.27V30.39a2.85,2.85,0,0,0-.32-5.69H34.66a2.85,2.85,0,0,0-.32,5.69V45.63a1,1,0,1,0,1.9,0V30.41h5.39a1,1,0,0,0,0-1.9h-7a1,1,0,0,1,0-1.9H47.34a1,1,0,0,1,0,1.9h-1.9a1,1,0,0,0,0,1.9h.32v19a1,1,0,0,0,.05.31L55,76.47a4.15,4.15,0,0,1-4.22,5.93H31.17A4.15,4.15,0,0,1,27,76.47l9.24-26.72a1,1,0,0,0-1.8-.62L25.15,75.84a6,6,0,0,0,6,8.45H50.83a6,6,0,0,0,6-8.45L47.66,49.27Z"/><path class="cls-2" d="M32.9,68.93a1,1,0,0,0-1.48.44l-2.67,7.72a2.74,2.74,0,0,0,.11,2.49,2.74,2.74,0,0,0,2.32.91H50.83a2.29,2.29,0,0,0,2.42-3.4l-2.67-7.72a1,1,0,0,0-1.48-.44,3.05,3.05,0,0,1-2.2.71,3.14,3.14,0,0,1-2.33-1,5,5,0,0,0-7.14,0,3.14,3.14,0,0,1-2.33,1,3.05,3.05,0,0,1-2.2-.71ZM38.67,70a3.14,3.14,0,0,1,4.66,0,5,5,0,0,0,3.57,1.5,5.41,5.41,0,0,0,2.27-.43l2.28,6.6a1.83,1.83,0,0,1,.13.76,1.83,1.83,0,0,1-.76.13H31.17a1.83,1.83,0,0,1-.76-.13,1.83,1.83,0,0,1,.13-.76l2.28-6.6a5.41,5.41,0,0,0,2.27.43A5,5,0,0,0,38.67,70Z"/></g></g></g></g></g></svg>