<svg xmlns="http://www.w3.org/2000/svg" viewBox="0 0 256.79 94"><defs><style>.cls-1{opacity:0.3;}.cls-2{fill:#334d5c;}.cls-3{fill:#406172;}.cls-4{fill:#fff;}</style></defs><title>107_botojugar_1</title><g id="Capa_2" data-name="Capa 2"><g id="_1-_Pantalla_Inici" data-name="1- Pantalla Inici"><g id="Botó_Girar_copia" data-name="Botó Girar copia"><g id="Boto_Sortir" data-name="Boto Sortir"><g class="cls-1"><rect class="cls-2" y="5" width="256.79" height="89" rx="9.76" ry="9.76"/></g><rect class="cls-3" width="256.79" height="89" rx="9.76" ry="9.76"/></g><path class="cls-4" d="M63.29,56.46A9.65,9.65,0,0,1,56,59.14a11.3,11.3,0,0,1-5.21-1.23,12.72,12.72,0,0,1-4.22-3.5l2.23-3.51a11.39,11.39,0,0,0,3.43,2.82,8,8,0,0,0,3.72,1,5,5,0,0,0,3.93-1.54,6.36,6.36,0,0,0,1.37-4.38V30H49.6V25.79H65.89V48.91Q65.89,53.79,63.29,56.46Z"/><path class="cls-4" d="M81,52.58a9.34,9.34,0,0,0,7,2.58,9.2,9.2,0,0,0,6.92-2.58,9.86,9.86,0,0,0,2.51-7.18V25.79h4.55V45.4q0,6.49-3.72,10.18T88,59.28q-6.58,0-10.33-3.7T73.9,45.4V25.79h4.55V45.4A9.8,9.8,0,0,0,81,52.58Z"/><path class="cls-4" d="M133.63,42.75h4V54.92a21.13,21.13,0,0,1-12.55,4.36A17.49,17.49,0,0,1,116.34,57a16.77,16.77,0,0,1-8.57-14.71,16.19,16.19,0,0,1,2.32-8.5,16.68,16.68,0,0,1,6.35-6.09,18.1,18.1,0,0,1,8.9-2.23,19.14,19.14,0,0,1,6.75,1.23,18.15,18.15,0,0,1,5.71,3.36l-2.6,3.32a14.44,14.44,0,0,0-4.57-2.87,14.28,14.28,0,0,0-5.28-1,13,13,0,0,0-6.54,1.71,12.66,12.66,0,0,0-4.71,4.64,12.83,12.83,0,0,0,0,12.91,13,13,0,0,0,4.74,4.69,12.8,12.8,0,0,0,6.54,1.73,13.91,13.91,0,0,0,4.24-.69,15.82,15.82,0,0,0,4-1.92Z"/><path class="cls-4" d="M170.91,59l-3.5-8.05H149.92L146.46,59h-4.78l14.73-33.16h4.74L175.83,59ZM151.72,46.78h13.93l-7-16.11Z"/><path class="cls-4" d="M202.07,59l-6.58-10.42q-1.14.1-1.85.09h-8.43V59h-4.55V25.79h13q6.3,0,9.73,2.91T206.81,37a11.75,11.75,0,0,1-1.87,6.77,10.48,10.48,0,0,1-5.38,4L207.28,59ZM193.64,44.5q4.26,0,6.54-1.87a6.73,6.73,0,0,0,2.27-5.52,6.48,6.48,0,0,0-2.27-5.38q-2.27-1.82-6.54-1.82h-8.43V44.5Z"/></g></g></g></svg>