<svg xmlns="http://www.w3.org/2000/svg" viewBox="0 0 349.6 71.03"><defs><style>.cls-1{fill:#fff;}</style></defs><title>201_categoria</title><g id="Capa_2" data-name="Capa 2"><g id="_2-_Pantalla_Random_categories" data-name="2- Pantalla Random categories"><g id="Títol_Categories" data-name="Títol Categories"><path class="cls-1" d="M35,14.74a17.52,17.52,0,0,0-16.32.52,16.59,16.59,0,0,0-6.26,6.3,17.51,17.51,0,0,0-2.28,8.8,17.5,17.5,0,0,0,2.28,8.8,16.85,16.85,0,0,0,6.26,6.34,17.08,17.08,0,0,0,8.77,2.32,18.43,18.43,0,0,0,7.41-1.62,21.24,21.24,0,0,0,6.59-4.49l5.82,6.48a30.43,30.43,0,0,1-9.43,6.52A26.58,26.58,0,0,1,26.89,57.1a27,27,0,0,1-13.63-3.54,25.92,25.92,0,0,1-9.73-9.62A26.24,26.24,0,0,1,0,30.5,25.65,25.65,0,0,1,3.61,17.09a25.93,25.93,0,0,1,9.84-9.5A27.94,27.94,0,0,1,27.26,4.13,27.91,27.91,0,0,1,38.09,6.34a26.6,26.6,0,0,1,9.06,6.12l-5.75,7.22A19.43,19.43,0,0,0,35,14.74Z"/><path class="cls-1" d="M78.17,56.36V51.58a12.92,12.92,0,0,1-5.3,3.9,19.53,19.53,0,0,1-7.44,1.33,15.85,15.85,0,0,1-7.26-1.58,11.61,11.61,0,0,1-4.83-4.38,11.85,11.85,0,0,1-1.69-6.26,10.48,10.48,0,0,1,3.91-8.66q3.9-3.13,11.05-3.21H78.1v-1a6.64,6.64,0,0,0-2.28-5.38q-2.28-1.92-6.63-1.92a22.77,22.77,0,0,0-11.71,3.68L54,21.44a43.66,43.66,0,0,1,8.44-3.72,30.93,30.93,0,0,1,8.88-1.14q7.66,0,11.9,3.68t4.31,10.31l.07,25.79Zm-3.39-8.88a6.79,6.79,0,0,0,3.32-4.83V39.12H68.15a10.81,10.81,0,0,0-5.64,1.14A4.07,4.07,0,0,0,60.71,44a4.79,4.79,0,0,0,1.88,4,8.08,8.08,0,0,0,5.12,1.47A12.51,12.51,0,0,0,74.78,47.49Z"/><path class="cls-1" d="M121.42,53.93a18.7,18.7,0,0,1-9.87,2.87,11.81,11.81,0,0,1-8.33-3Q100,50.84,100,45V25.57H94.46l-.07-7H100V7.74h9.5V18.57h11.27v7H109.49V43.32a5.74,5.74,0,0,0,1,3.87,4,4,0,0,0,3.09,1.14,13.72,13.72,0,0,0,5.6-1.62Z"/><path class="cls-1" d="M159.18,22q4.75,5.38,4.75,15.1,0,1.92-.07,2.87h-29.1A11,11,0,0,0,146,49a15,15,0,0,0,5.78-1.14,14.14,14.14,0,0,0,4.83-3.28L161.8,50a19.94,19.94,0,0,1-7.18,5,24.17,24.17,0,0,1-9.39,1.77,21.92,21.92,0,0,1-10.65-2.5,17.5,17.5,0,0,1-7.11-7A21.18,21.18,0,0,1,125,36.77,21.16,21.16,0,0,1,127.5,26.3a18,18,0,0,1,7.11-7.11A21,21,0,0,1,145,16.65Q154.43,16.65,159.18,22Zm-4,11.57a9.57,9.57,0,0,0-2.87-6.93,11.2,11.2,0,0,0-14.26,0,11.23,11.23,0,0,0-3.5,7Z"/><path class="cls-1" d="M208.22,16.95V52.61a18.36,18.36,0,0,1-2.54,9.76,16.71,16.71,0,0,1-7.22,6.41A24.84,24.84,0,0,1,187.59,71a28.94,28.94,0,0,1-16.65-5.23l3.83-6.93A20.28,20.28,0,0,0,187.07,63a12.4,12.4,0,0,0,8.44-2.73,9.35,9.35,0,0,0,3.13-7.44V48.19a13.1,13.1,0,0,1-5.16,4.6,16.26,16.26,0,0,1-7.37,1.58A17.36,17.36,0,0,1,177,52a16.34,16.34,0,0,1-6.19-6.71,21.41,21.41,0,0,1-2.21-9.91,20.8,20.8,0,0,1,2.21-9.76A16.21,16.21,0,0,1,177,19a17.58,17.58,0,0,1,9.14-2.36,16,16,0,0,1,7.33,1.62,13.53,13.53,0,0,1,5.19,4.57V16.95ZM195.73,43.73a11.48,11.48,0,0,0,2.91-8.14,11.49,11.49,0,0,0-2.91-8.14,10.63,10.63,0,0,0-15.1,0,11.78,11.78,0,0,0-3,8.1,11.74,11.74,0,0,0,3,8.14,10.67,10.67,0,0,0,15.1,0Z"/><path class="cls-1" d="M247.52,19.16a18.14,18.14,0,0,1,7.29,7,20.48,20.48,0,0,1,2.62,10.43,20.83,20.83,0,0,1-2.62,10.54,18.06,18.06,0,0,1-7.29,7.07,22.52,22.52,0,0,1-10.79,2.5,22.89,22.89,0,0,1-10.9-2.5,18,18,0,0,1-7.33-7.07,20.82,20.82,0,0,1-2.62-10.54,20.47,20.47,0,0,1,2.62-10.43,18.06,18.06,0,0,1,7.33-7,22.91,22.91,0,0,1,10.9-2.5A22.54,22.54,0,0,1,247.52,19.16Zm-18.9,9a12.13,12.13,0,0,0-3.09,8.62,12.13,12.13,0,0,0,3.09,8.62,10.57,10.57,0,0,0,8.1,3.32,10.39,10.39,0,0,0,8-3.32,12.13,12.13,0,0,0,3.09-8.62,12.13,12.13,0,0,0-3.09-8.62,10.4,10.4,0,0,0-8-3.32A10.57,10.57,0,0,0,228.63,28.15Z"/><path class="cls-1" d="M280.75,18.68a15.94,15.94,0,0,1,8-2.1v9.28q-6.12-.37-9.76,2.84a10.94,10.94,0,0,0-3.65,8.66v19h-9.58V16.95h9.58v7.59A14.24,14.24,0,0,1,280.75,18.68Z"/><path class="cls-1" d="M304.07,1.62a5.74,5.74,0,0,1,1.55,4.13,5.64,5.64,0,0,1-1.55,4.05,5.52,5.52,0,0,1-7.81,0,5.64,5.64,0,0,1-1.55-4.05,5.74,5.74,0,0,1,1.55-4.13,5.52,5.52,0,0,1,7.81,0Zm-8.62,15.33H305V56.36h-9.58Z"/><path class="cls-1" d="M340.17,56.36V51.58a12.91,12.91,0,0,1-5.31,3.9,19.53,19.53,0,0,1-7.44,1.33,15.85,15.85,0,0,1-7.26-1.58,11.6,11.6,0,0,1-4.83-4.38,11.85,11.85,0,0,1-1.69-6.26,10.48,10.48,0,0,1,3.9-8.66q3.91-3.13,11.05-3.21H340.1v-1a6.64,6.64,0,0,0-2.28-5.38q-2.28-1.92-6.63-1.92a22.77,22.77,0,0,0-11.71,3.68L316,21.44a43.63,43.63,0,0,1,8.44-3.72,30.92,30.92,0,0,1,8.88-1.14q7.66,0,11.9,3.68t4.31,10.31l.07,25.79Zm-3.39-8.88a6.79,6.79,0,0,0,3.32-4.83V39.12h-9.95a10.81,10.81,0,0,0-5.64,1.14,4.07,4.07,0,0,0-1.8,3.72,4.79,4.79,0,0,0,1.88,4,8.08,8.08,0,0,0,5.12,1.47A12.51,12.51,0,0,0,336.78,47.49Z"/></g></g></g></svg>