<svg xmlns="http://www.w3.org/2000/svg" viewBox="0 0 186 69.47"><defs><style>.cls-1{opacity:0.3;}.cls-2{fill:#334d5c;}.cls-3{fill:#406172;}.cls-4{fill:#fff;}</style></defs><title>203_girar_1</title><g id="Capa_2" data-name="Capa 2"><g id="_2-_Pantalla_Random_categories" data-name="2- Pantalla Random categories"><g id="Botó_Girar" data-name="Botó Girar"><g id="Boto_Sortir" data-name="Boto Sortir"><g class="cls-1"><rect class="cls-2" y="5" width="186" height="64.47" rx="9.76" ry="9.76"/></g><rect class="cls-3" width="186" height="64.47" rx="9.76" ry="9.76"/></g><path class="cls-4" d="M57.82,31h2.92v8.82a15.3,15.3,0,0,1-9.09,3.16,12.67,12.67,0,0,1-6.35-1.63,12.15,12.15,0,0,1-6.21-10.65,11.72,11.72,0,0,1,1.68-6.16,12.09,12.09,0,0,1,4.6-4.41,13.11,13.11,0,0,1,6.45-1.61,13.85,13.85,0,0,1,4.89.89,13.13,13.13,0,0,1,4.13,2.44l-1.89,2.4a10.47,10.47,0,0,0-3.31-2.08,10.33,10.33,0,0,0-3.83-.74,9.38,9.38,0,0,0-4.73,1.24A9.17,9.17,0,0,0,43.66,26a9.3,9.3,0,0,0,0,9.35,9.39,9.39,0,0,0,3.43,3.4A9.28,9.28,0,0,0,51.85,40a10.07,10.07,0,0,0,3.07-.5,11.43,11.43,0,0,0,2.9-1.39Z"/><path class="cls-4" d="M67,18.68h3.29v24H67Z"/><path class="cls-4" d="M92.64,42.7l-4.77-7.55q-.82.07-1.34.07H80.43V42.7H77.13v-24h9.4q4.56,0,7.05,2.11a7.42,7.42,0,0,1,2.49,6,8.51,8.51,0,0,1-1.36,4.91,7.58,7.58,0,0,1-3.89,2.88l5.59,8.13ZM86.53,32.23a7.28,7.28,0,0,0,4.73-1.35,4.87,4.87,0,0,0,1.65-4A4.69,4.69,0,0,0,91.27,23a7.42,7.42,0,0,0-4.73-1.32H80.43V32.23Z"/><path class="cls-4" d="M119.78,42.7l-2.54-5.83H104.58l-2.51,5.83H98.61l10.67-24h3.43l10.63,24Zm-13.89-8.82H116l-5.08-11.67Z"/><path class="cls-4" d="M142.35,42.7l-4.77-7.55q-.82.07-1.34.07h-6.11V42.7h-3.29v-24h9.4q4.56,0,7.05,2.11a7.42,7.42,0,0,1,2.49,6,8.51,8.51,0,0,1-1.36,4.91,7.58,7.58,0,0,1-3.89,2.88l5.59,8.13Zm-6.11-10.46A7.28,7.28,0,0,0,141,30.88a4.88,4.88,0,0,0,1.65-4A4.7,4.7,0,0,0,141,23a7.41,7.41,0,0,0-4.73-1.32h-6.11V32.23Z"/></g></g></g></svg>