<svg xmlns="http://www.w3.org/2000/svg" viewBox="0 0 109 109"><defs><style>.cls-1{fill:#efc94c;}.cls-2{fill:#fff;}</style></defs><title>204_historia</title><g id="Capa_2" data-name="Capa 2"><g id="_1-_Pantalla_Inici" data-name="1- Pantalla Inici"><g id="Tipus_categories" data-name="Tipus categories"><g id="Historia"><rect class="cls-1" width="109" height="109" rx="22.04" ry="22.04"/><g id="Icona_Historia" data-name="Icona Historia"><path class="cls-2" d="M61.3,31.16a.94.94,0,0,0-.57,1.79,20.56,20.56,0,0,1,14.4,19.68v28c-2.29-.24-8.05-.77-14.9-.82l1.71-16.25L69.89,60a.94.94,0,0,0,.55-.74l.94-7.5a.94.94,0,0,0-1.11-1,118,118,0,0,1-13.93,1.86.94.94,0,0,0-.89,1l.92,14.75-1.5,3h-.72l-1.5-3,.92-14.75a.94.94,0,0,0-.89-1,118.09,118.09,0,0,1-13.93-1.86.94.94,0,0,0-1.11,1l.94,7.5a.93.93,0,0,0,.55.74l7.95,3.53,1.71,16.25c-6.85.05-12.62.58-14.9.82v-28A20.53,20.53,0,0,1,48.39,32.91a.94.94,0,1,0-.55-1.79A22.4,22.4,0,0,0,32,52.62V81.7a.94.94,0,0,0,.94.94H33a152.13,152.13,0,0,1,16.77-.93.94.94,0,0,0,.93-1l-.19-1.78h5.35a.94.94,0,0,0,0-1.88H50.36L48.87,62.84a.94.94,0,0,0-.55-.76l-8-3.54-.71-5.7a116.58,116.58,0,0,0,12,1.6l-.88,14.07a.94.94,0,0,0,.1.48l1.88,3.75a.94.94,0,0,0,.84.52h1.88a.94.94,0,0,0,.84-.52L58.15,69a.94.94,0,0,0,.1-.48l-.88-14.07a116.61,116.61,0,0,0,12-1.6l-.71,5.7-8,3.54a.94.94,0,0,0-.55.76L58.26,80.66a.94.94,0,0,0,.93,1A152.3,152.3,0,0,1,76,82.63a.93.93,0,0,0,.74-.23.94.94,0,0,0,.32-.7V52.62A22.43,22.43,0,0,0,61.3,31.16Z"/><path class="cls-2" d="M51.69,38.55a.94.94,0,0,0,.94.94h3.75a.94.94,0,0,0,.94-.94c0-3.57,2.15-10.59,2.17-10.66a.94.94,0,0,0-.75-1.2,27.52,27.52,0,0,0-4.23-.33h0a27.53,27.53,0,0,0-4.23.33.94.94,0,0,0-.75,1.2C49.53,28,51.69,35,51.69,38.55Zm1.88-10.29v2.79a.94.94,0,1,0,1.88,0V28.26c.65,0,1.3.06,1.94.14a53.22,53.22,0,0,0-1.91,9.22H53.53a53.31,53.31,0,0,0-1.91-9.22C52.26,28.33,52.91,28.29,53.56,28.26Z"/></g></g></g></g></g></svg>