<svg xmlns="http://www.w3.org/2000/svg" viewBox="0 0 109 109"><defs><style>.cls-1{fill:#e27a3f;}.cls-2{fill:#fff;}</style></defs><title>205_tecnologia</title><g id="Capa_2" data-name="Capa 2"><g id="_1-_Pantalla_Inici" data-name="1- Pantalla Inici"><g id="Tipus_categories" data-name="Tipus categories"><g id="Tecnologia"><rect class="cls-1" width="109" height="109" rx="22.04" ry="22.04"/><g id="Icona_Tecnologia" data-name="Icona Tecnologia"><path class="cls-2" d="M77.24,31.46H31.76a3.13,3.13,0,0,0-3.12,3.12V66a3.13,3.13,0,0,0,3.12,3.12H47.34v2.27a3.78,3.78,0,0,1-3.78,3.78H40.13a1.19,1.19,0,0,0,0,2.39H68.87a1.19,1.19,0,1,0,0-2.39H65.44a3.78,3.78,0,0,1-3.78-3.78V69.11H77.24A3.13,3.13,0,0,0,80.37,66V34.58A3.13,3.13,0,0,0,77.24,31.46ZM48.43,75.16a6.13,6.13,0,0,0,1.3-3.78V69.11h9.54v2.27a6.13,6.13,0,0,0,1.3,3.78ZM78,66a.74.74,0,0,1-.74.74H31.76A.74.74,0,0,1,31,66V59.72H78Zm0-8.65H31V34.58a.74.74,0,0,1,.74-.74H77.24a.74.74,0,0,1,.74.74V57.33Z"/><circle class="cls-2" cx="54.5" cy="63.22" r="1.29"/><path class="cls-2" d="M56.55,39.67a1.19,1.19,0,0,0-1.69,0L46.43,48.1a1.19,1.19,0,0,0,1.69,1.69l8.43-8.43A1.19,1.19,0,0,0,56.55,39.67Z"/><path class="cls-2" d="M61.54,44.56a1.19,1.19,0,0,0-1.69,0L56.5,47.91a1.19,1.19,0,1,0,1.69,1.69l3.36-3.36A1.19,1.19,0,0,0,61.54,44.56Z"/></g></g></g></g></g></svg>