<svg xmlns="http://www.w3.org/2000/svg" viewBox="0 0 109 109"><defs><style>.cls-1{fill:#45b29d;}.cls-2{fill:#fff;}</style></defs><title>206_geografia</title><g id="Capa_2" data-name="Capa 2"><g id="_1-_Pantalla_Inici" data-name="1- Pantalla Inici"><g id="Tipus_categories" data-name="Tipus categories"><g id="Geografia"><rect class="cls-1" width="109" height="109" rx="22.04" ry="22.04"/><g id="Icona_Geografia" data-name="Icona Geografia"><path class="cls-2" d="M74.86,34.14A28.8,28.8,0,1,0,83.3,54.5,28.61,28.61,0,0,0,74.86,34.14ZM68,38.08l1.27-5.26A26.33,26.33,0,0,1,79.77,47.44l-.66.13a2.6,2.6,0,0,0-2,1.92l-.26,1a0,0,0,0,1,0,0h0L75.23,49.4a2.61,2.61,0,0,0-2.76-.22l-1.92,1a2.6,2.6,0,0,0,.29,4.73l.09,0a0,0,0,0,1,0,.06l-1.19,1.37a0,0,0,0,1,0,0l-3.22-2.08a2.6,2.6,0,0,0-4,1.76l-.25,1.52a2.59,2.59,0,0,0,.79,2.32l1.68,1.57a0,0,0,0,1,0,0L62,65.67A2.6,2.6,0,0,0,61.57,67l-.24,5.94v0l-3.64,3.57a0,0,0,0,1,0,0l-2.36-1.38,0,0s-1.15-5.2-1.19-5.32L53,67a2.61,2.61,0,0,0-2.21-1.68L46,64.92l0,0L43.3,60.22a0,0,0,0,1,0,0L44,55.66v0l4.17-3.14h0l4,1.68a2.6,2.6,0,0,0,.72.18l5.59.61a2.59,2.59,0,0,0,1.79-.47L64,51.84a2.61,2.61,0,0,0,.86-3.17l-.34-.77a2.59,2.59,0,0,0-2.23-1.53l-10.4-.57h0a.07.07,0,0,1,0,0h0L55,44.88a2.61,2.61,0,0,0,1.11-.62L60,40.66h0l5.75-.59A2.6,2.6,0,0,0,68,38.08ZM48.52,36l2.15-4A2.92,2.92,0,0,0,51,30l-.29-1.42a26.31,26.31,0,0,1,7.71,0,3.83,3.83,0,0,1-.36.36l-3,1.22a2.93,2.93,0,0,0-1.13.81l-4.74,5.54a.36.36,0,0,1-.54,0A.51.51,0,0,1,48.52,36Zm-11.19-1.3v3.84a3.14,3.14,0,0,1-1.44,2.64l-2.76,1.79a5.68,5.68,0,0,0-1.61,1.57L29,48.18A26.27,26.27,0,0,1,37.34,34.67ZM39,72.45l-.36,2.94a26.35,26.35,0,0,1-9-12.39h1.63a.58.58,0,0,1,.49.27l3.29,5.13a3.16,3.16,0,0,0,.53.62l3.2,2.92A.58.58,0,0,1,39,72.45ZM54.5,80.74A26.08,26.08,0,0,1,41,77l.52-4.24a3.15,3.15,0,0,0-1-2.71s-3.27-3-3.3-3L34,61.89a3.13,3.13,0,0,0-2.65-1.45H28.94a26.22,26.22,0,0,1-.68-5.94q0-.33,0-.66L33.65,46a3.12,3.12,0,0,1,.89-.87l2.75-1.79a5.69,5.69,0,0,0,2.6-4.79v-5.8A26.11,26.11,0,0,1,48.15,29l.3,1.44a.36.36,0,0,1,0,.24l-2.15,4a6.35,6.35,0,0,0-.31.92,2.92,2.92,0,0,0,2.86,3.48,2.94,2.94,0,0,0,2.22-1l4.74-5.54a.36.36,0,0,1,.14-.1l3-1.22a2.93,2.93,0,0,0,1.13-.81l1.15-1.34A26.07,26.07,0,0,1,67,31.43c0,.07-1.48,6.05-1.48,6.05a0,0,0,0,1,0,0l-5.75.59a2.61,2.61,0,0,0-1.52.69l-3.82,3.6h0l-3.12.84a2.6,2.6,0,0,0,.53,5.1l10.4.57,0,0,.34.77a0,0,0,0,1,0,0l-3.7,2.66h0l-5.6-.61-4-1.68a2.61,2.61,0,0,0-2.56.32l-4.17,3.14a2.58,2.58,0,0,0-1,1.69l-.68,4.54a2.61,2.61,0,0,0,.32,1.69l2.71,4.68a2.6,2.6,0,0,0,2,1.28l4.77.41,0,0,1,2.8,1.09,5A2.6,2.6,0,0,0,54,77.36l2.36,1.38a2.6,2.6,0,0,0,3.13-.39l3.64-3.57A2.59,2.59,0,0,0,63.89,73l.24-5.94v0l2.74-4.15a2.59,2.59,0,0,0-.39-3.33L64.8,58a0,0,0,0,1,0,0L65,56.48a0,0,0,0,1,0,0h0l3.22,2.08a2.61,2.61,0,0,0,3.37-.48l1.19-1.37a2.6,2.6,0,0,0-1-4.13l-.09,0h0a.07.07,0,0,1,0,0h0l1.92-1h0l1.54,1.15a2.6,2.6,0,0,0,4.08-1.45l.26-1a0,0,0,0,1,0,0l.75-.14A26.24,26.24,0,0,1,54.5,80.74Z"/></g></g></g></g></g></svg>