<svg xmlns="http://www.w3.org/2000/svg" viewBox="0 0 109 109"><defs><style>.cls-1{fill:#7dce49;}.cls-2{fill:#fff;}</style></defs><title>208_ciencia</title><g id="Capa_2" data-name="Capa 2"><g id="_1-_Pantalla_Inici" data-name="1- Pantalla Inici"><g id="Tipus_categories" data-name="Tipus categories"><g id="Ciencia"><rect class="cls-1" width="109" height="109" rx="22.04" ry="22.04"/><g id="Icona_CIència" data-name="Icona CIència"><path class="cls-2" d="M72.57,48.77V34.2a2.85,2.85,0,0,0-.32-5.69H59.57a2.85,2.85,0,0,0-.32,5.69V48.77a18.42,18.42,0,0,0-7.43,5.33,1,1,0,1,0,1.46,1.22,16.51,16.51,0,0,1,7.24-5,1,1,0,0,0,.64-.9V34.21h5.39a1,1,0,1,0,0-1.9h-7a1,1,0,0,1,0-1.9H72.25a1,1,0,1,1,0,1.9h-1.9a1,1,0,1,0,0,1.9h.32V49.43a1,1,0,0,0,.64.9A16.49,16.49,0,1,1,59.71,81.19,1,1,0,1,0,59,82.95,18.39,18.39,0,1,0,72.57,48.77Z"/><circle class="cls-2" cx="73" cy="69.26" r="0.95"/><circle class="cls-2" cx="69.2" cy="73.06" r="0.95"/><path class="cls-2" d="M60.54,77.4a1,1,0,0,0-.81,1.72,14.58,14.58,0,0,0,18.81-20.5,1,1,0,0,0-1-.47l-.35,0-.13,0a7.3,7.3,0,0,0-2.84,1.53,3.22,3.22,0,0,1-2.46.92,3.14,3.14,0,0,1-2.33-1,5,5,0,0,0-7.14,0,3.14,3.14,0,0,1-2.33,1,3.22,3.22,0,0,1-2.46-.92,7.3,7.3,0,0,0-2.84-1.53l-.13,0-.35,0a1,1,0,0,0-1,.46l0,0a1,1,0,0,0,1,1.41h0a5.45,5.45,0,0,1,2.1,1.17,5.31,5.31,0,0,0,7.22-.16,3.14,3.14,0,0,1,4.66,0,5.31,5.31,0,0,0,7.22.16,5.58,5.58,0,0,1,1.76-1.06A12.68,12.68,0,0,1,60.54,77.4Z"/><path class="cls-2" d="M47.66,49.27V30.39a2.85,2.85,0,0,0-.32-5.69H34.66a2.85,2.85,0,0,0-.32,5.69V45.63a1,1,0,1,0,1.9,0V30.41h5.39a1,1,0,0,0,0-1.9h-7a1,1,0,0,1,0-1.9H47.34a1,1,0,0,1,0,1.9h-1.9a1,1,0,0,0,0,1.9h.32v19a1,1,0,0,0,.05.31L55,76.47a4.15,4.15,0,0,1-4.22,5.93H31.17A4.15,4.15,0,0,1,27,76.47l9.24-26.72a1,1,0,0,0-1.8-.62L25.15,75.84a6,6,0,0,0,6,8.45H50.83a6,6,0,0,0,6-8.45L47.66,49.27Z"/><path class="cls-2" d="M32.9,68.93a1,1,0,0,0-1.48.44l-2.67,7.72a2.74,2.74,0,0,0,.11,2.49,2.74,2.74,0,0,0,2.32.91H50.83a2.29,2.29,0,0,0,2.42-3.4l-2.67-7.72a1,1,0,0,0-1.48-.44,3.05,3.05,0,0,1-2.2.71,3.14,3.14,0,0,1-2.33-1,5,5,0,0,0-7.14,0,3.14,3.14,0,0,1-2.33,1,3.05,3.05,0,0,1-2.2-.71ZM38.67,70a3.14,3.14,0,0,1,4.66,0,5,5,0,0,0,3.57,1.5,5.41,5.41,0,0,0,2.27-.43l2.28,6.6a1.83,1.83,0,0,1,.13.76,1.83,1.83,0,0,1-.76.13H31.17a1.83,1.83,0,0,1-.76-.13,1.83,1.83,0,0,1,.13-.76l2.28-6.6a5.41,5.41,0,0,0,2.27.43A5,5,0,0,0,38.67,70Z"/></g></g></g></g></g></svg>