<svg xmlns="http://www.w3.org/2000/svg" viewBox="0 0 1024 116"><defs><style>.cls-1{fill:#7dce49;}.cls-2{fill:#fff;}</style></defs><title>301_ciencia_1</title><g id="Capa_2" data-name="Capa 2"><g id="_3-_Pantalla_Preguntes" data-name="3- Pantalla Preguntes"><g id="Seccio_Ciència" data-name="Seccio Ciència"><rect id="Titulo" class="cls-1" width="1024" height="116"/><path class="cls-2" d="M408.26,44.27a15.45,15.45,0,0,0-14.4.46,14.64,14.64,0,0,0-5.52,5.56,16,16,0,0,0,0,15.53,14.86,14.86,0,0,0,5.52,5.59,15.07,15.07,0,0,0,7.73,2A16.24,16.24,0,0,0,408.13,72a18.74,18.74,0,0,0,5.82-4l5.14,5.72a26.85,26.85,0,0,1-8.32,5.75,23.44,23.44,0,0,1-9.62,2.11,23.81,23.81,0,0,1-12-3.12A22.87,22.87,0,0,1,380.54,70a23.16,23.16,0,0,1-3.12-11.86,22.62,22.62,0,0,1,3.19-11.83A22.88,22.88,0,0,1,389.28,38,25.18,25.18,0,0,1,411,36.87a23.48,23.48,0,0,1,8,5.39l-5.07,6.37A17.16,17.16,0,0,0,408.26,44.27Z"/><path class="cls-2" d="M426.23,35.5h8.71V81h-8.71Z"/><path class="cls-2" d="M446.12,35.5h33.35v7.6H454.83V54.35h22.1V62h-22.1V73.4h25.42V81H446.12Zm14.37-13.65,6.56,9.36-6.63.65-8.06-6.69Z"/><path class="cls-2" d="M520.81,35.5h8.45V81H521L497.6,49.67V81h-8.52V35.5h8.26l23.47,31.4Z"/><path class="cls-2" d="M567.71,44.27a15.45,15.45,0,0,0-14.4.46,14.64,14.64,0,0,0-5.52,5.56,16,16,0,0,0,0,15.53,14.86,14.86,0,0,0,5.52,5.59,15.07,15.07,0,0,0,7.74,2A16.24,16.24,0,0,0,567.58,72a18.73,18.73,0,0,0,5.82-4l5.13,5.72a26.85,26.85,0,0,1-8.32,5.75,23.45,23.45,0,0,1-9.62,2.11,23.81,23.81,0,0,1-12-3.12A22.87,22.87,0,0,1,540,70a23.17,23.17,0,0,1-3.12-11.86A22.62,22.62,0,0,1,540,46.35,22.88,22.88,0,0,1,548.73,38a25.18,25.18,0,0,1,21.74-1.1,23.48,23.48,0,0,1,8,5.39l-5.07,6.37A17.16,17.16,0,0,0,567.71,44.27Z"/><path class="cls-2" d="M585.68,35.5h8.71V81h-8.71Z"/><path class="cls-2" d="M639.24,81l-4-9.62H613l-4,9.62h-9l20-45.5h9L648.6,81ZM616.1,63.9h16l-7.93-19.11Z"/><g id="Icona_CIència" data-name="Icona CIència"><path class="cls-2" d="M101.11,50.2V33.36a3.3,3.3,0,0,0-.37-6.57H86.09a3.3,3.3,0,0,0-.37,6.57V50.21a21.29,21.29,0,0,0-8.59,6.16,1.1,1.1,0,1,0,1.68,1.41A19.08,19.08,0,0,1,87.18,52a1.1,1.1,0,0,0,.74-1V33.38h6.23a1.1,1.1,0,1,0,0-2.2H86.09a1.1,1.1,0,0,1,0-2.2h14.66a1.1,1.1,0,0,1,0,2.2h-2.2a1.1,1.1,0,1,0,0,2.2h.37V51a1.1,1.1,0,0,0,.74,1,19.06,19.06,0,1,1-13.4,35.67,1.1,1.1,0,1,0-.83,2A21.26,21.26,0,1,0,101.11,50.2Z"/><circle class="cls-2" cx="101.61" cy="73.89" r="1.1"/><circle class="cls-2" cx="97.21" cy="78.28" r="1.1"/><path class="cls-2" d="M87.21,83.3a1.1,1.1,0,0,0-.93,2A16.86,16.86,0,0,0,108,61.59a1.1,1.1,0,0,0-1.1-.54l-.4.06-.15,0a8.44,8.44,0,0,0-3.28,1.77A3.72,3.72,0,0,1,100.24,64a3.63,3.63,0,0,1-2.7-1.2,5.79,5.79,0,0,0-8.26,0A3.63,3.63,0,0,1,86.6,64a3.72,3.72,0,0,1-2.85-1.06,8.44,8.44,0,0,0-3.28-1.77l-.15,0-.4-.06a1.1,1.1,0,0,0-1.1.54l0,.05a1.1,1.1,0,0,0,1.13,1.63h0a6.29,6.29,0,0,1,2.43,1.35,6.14,6.14,0,0,0,8.35-.18,3.63,3.63,0,0,1,5.39,0,6.14,6.14,0,0,0,8.35.18,6.46,6.46,0,0,1,2-1.22A14.66,14.66,0,0,1,87.21,83.3Z"/><path class="cls-2" d="M72.31,50.79V29a3.3,3.3,0,0,0-.37-6.57H57.29A3.3,3.3,0,0,0,56.92,29V46.58a1.1,1.1,0,0,0,2.2,0V29h6.23a1.1,1.1,0,1,0,0-2.2H57.29a1.1,1.1,0,0,1,0-2.2H71.95a1.1,1.1,0,0,1,0,2.2h-2.2a1.1,1.1,0,1,0,0,2.2h.37V51a1.1,1.1,0,0,0,.06.36L80.86,82.22A4.8,4.8,0,0,1,76,89.07H53.26a4.8,4.8,0,0,1-4.88-6.85L59.06,51.33A1.1,1.1,0,0,0,57,50.61L46.3,81.5a7,7,0,0,0,7,9.77H76a7,7,0,0,0,7-9.77L72.31,50.79Z"/><path class="cls-2" d="M55.26,73.5a1.1,1.1,0,0,0-1.71.51l-3.09,8.93a2.64,2.64,0,0,0,2.8,3.94H76a2.64,2.64,0,0,0,2.8-3.94L75.69,74A1.1,1.1,0,0,0,74,73.5a3.53,3.53,0,0,1-2.54.82,3.63,3.63,0,0,1-2.7-1.2,5.79,5.79,0,0,0-8.26,0,3.63,3.63,0,0,1-2.7,1.2,3.53,3.53,0,0,1-2.54-.82Zm6.67,1.29a3.63,3.63,0,0,1,5.39,0,5.78,5.78,0,0,0,4.13,1.73,6.26,6.26,0,0,0,2.62-.5l2.64,7.63a2.12,2.12,0,0,1,.15.87,2.12,2.12,0,0,1-.87.14H53.26a2.12,2.12,0,0,1-.87-.14,2.12,2.12,0,0,1,.15-.87L55.17,76a6.25,6.25,0,0,0,2.62.5,5.78,5.78,0,0,0,4.13-1.73Z"/></g></g></g></g></svg>