<svg xmlns="http://www.w3.org/2000/svg" viewBox="0 0 1024 116"><defs><style>.cls-1{fill:#df5a49;}.cls-2{fill:#fff;}</style></defs><title>302_art_1</title><g id="Capa_2" data-name="Capa 2"><g id="_3-_Pantalla_Preguntes" data-name="3- Pantalla Preguntes"><g id="Seccio_Art" data-name="Seccio Art"><rect id="Titulo" class="cls-1" width="1024" height="116"/><path class="cls-2" d="M484.41,81l-4-9.62H458.15l-4,9.62h-9l20-45.5h9L493.77,81ZM461.27,63.9h16l-7.93-19.11Z"/><path class="cls-2" d="M527.76,81,519.9,67.54a14.37,14.37,0,0,1-1.62.06H508V81h-8.71V35.5h19q8.84,0,13.65,4.1t4.81,11.57a17.11,17.11,0,0,1-2.31,9.1,14.13,14.13,0,0,1-6.73,5.65l10,15.08ZM508,59.94h10.27q4.94,0,7.54-2.15t2.6-6.37q0-4.16-2.6-6.24t-7.54-2.08H508Z"/><path class="cls-2" d="M541.22,35.5h37.12v7.73H564.16V81h-8.78V43.23H541.22Z"/><g id="Icona_Art" data-name="Icona Art"><path class="cls-2" d="M106.45,28.64c-1.87-1.87-5.62-.8-11.79,3.36A127,127,0,0,0,76.93,47.06C67.77,56.22,60.8,65.22,58.48,70.78a8.08,8.08,0,0,0-1.19-.33,9.31,9.31,0,0,0-7.15,1.66,10.4,10.4,0,0,0-4,5.87,17.13,17.13,0,0,1-3.55,6.68,1.52,1.52,0,0,0,.14,2.12,11.54,11.54,0,0,0,7.77,2.9A14.08,14.08,0,0,0,58.64,87a16.36,16.36,0,0,0,2.25-2,9.7,9.7,0,0,0,2.61-8.09c5.45-2,15-9.18,24.53-18.76a127,127,0,0,0,15.06-17.72C107.25,34.26,108.32,30.51,106.45,28.64ZM58.67,82.94a13.25,13.25,0,0,1-1.8,1.56c-3.53,2.52-7.85,2.81-11,.87a20.08,20.08,0,0,0,3.19-6.65h0l0-.08a7.41,7.41,0,0,1,2.81-4.06,6.26,6.26,0,0,1,4.8-1.16,4.66,4.66,0,0,1,3.09,2.1C61.14,77.67,60.67,80.79,58.67,82.94Zm3.79-8.87a5.65,5.65,0,0,0-1.35-1.68,36.59,36.59,0,0,1,4.55-7.72l4.76,4.76A35.91,35.91,0,0,1,62.46,74.07Zm10.43-6.48L67.51,62.2c.93-1.2,1.94-2.44,3-3.7l6.08,6.08Q74.67,66.21,72.89,67.58Zm27.22-28.16A127.5,127.5,0,0,1,85.88,56c-2.41,2.41-4.75,4.61-7,6.58l-6.39-6.39c2-2.29,4.24-4.65,6.57-7A127.55,127.55,0,0,1,95.67,35c6.09-4.22,8.2-4.22,8.6-4.17C104.33,31.22,104.32,33.32,100.11,39.42Z"/><path class="cls-2" d="M57.38,78.83a1.52,1.52,0,0,0-2.07.6,1.1,1.1,0,0,1-.15.21,7.26,7.26,0,0,1-.88.76,5.76,5.76,0,0,1-1.89.9,1.52,1.52,0,1,0,.77,2.94,8.79,8.79,0,0,0,2.89-1.36A14.09,14.09,0,0,0,57.4,81.7a4.14,4.14,0,0,0,.58-.81A1.52,1.52,0,0,0,57.38,78.83Z"/></g></g></g></g></svg>