<svg xmlns="http://www.w3.org/2000/svg" viewBox="0 0 1024 116"><defs><style>.cls-1{fill:#45b29d;}.cls-2{fill:#fff;}</style></defs><title>303_geografia_1</title><g id="Capa_2" data-name="Capa 2"><g id="_3-_Pantalla_Preguntes" data-name="3- Pantalla Preguntes"><g id="Seccio_Geografia" data-name="Seccio Geografia"><rect id="Titulo" class="cls-1" width="1024" height="116"/><path class="cls-2" d="M351.94,58.38h7.6V75.67A30.38,30.38,0,0,1,351.09,80a29.58,29.58,0,0,1-9.56,1.66,24.24,24.24,0,0,1-12.19-3.12A23.28,23.28,0,0,1,320.67,70a22.79,22.79,0,0,1-3.19-11.86,22.11,22.11,0,0,1,3.25-11.8A23.42,23.42,0,0,1,329.61,38a25.43,25.43,0,0,1,12.45-3.09,27.54,27.54,0,0,1,9.62,1.75,25.58,25.58,0,0,1,8.19,4.81l-4.94,6.44a18.76,18.76,0,0,0-6-3.83,18.33,18.33,0,0,0-6.86-1.37,15.72,15.72,0,0,0-7.9,2,15.08,15.08,0,0,0-5.69,5.62,15.68,15.68,0,0,0,0,15.67,15.6,15.6,0,0,0,13.62,7.74A17.55,17.55,0,0,0,347,73a21.76,21.76,0,0,0,4.91-2.11Z"/><path class="cls-2" d="M369.62,35.5H403v7.6H378.33V54.35h22.1V62h-22.1V73.4h25.42V81H369.62Z"/><path class="cls-2" d="M445.57,38A23.28,23.28,0,0,1,454.31,70a23.15,23.15,0,0,1-8.74,8.48,25.87,25.87,0,0,1-24.64,0A23.14,23.14,0,0,1,412.19,70,23,23,0,0,1,420.94,38a26.36,26.36,0,0,1,24.64,0Zm-19.92,6.79A15.57,15.57,0,0,0,420,66a15.7,15.7,0,0,0,5.65,5.66,14.94,14.94,0,0,0,7.7,2.08,14.65,14.65,0,0,0,7.6-2.08A15.29,15.29,0,0,0,446.55,66a15.55,15.55,0,0,0,2-7.86,15.37,15.37,0,0,0-2-7.83A15.12,15.12,0,0,0,441,44.76a14.83,14.83,0,0,0-7.6-2A15.3,15.3,0,0,0,425.65,44.76Z"/><path class="cls-2" d="M494.48,58.38h7.6V75.67A30.38,30.38,0,0,1,493.64,80a29.58,29.58,0,0,1-9.56,1.66,24.24,24.24,0,0,1-12.19-3.12A23.28,23.28,0,0,1,463.22,70,22.79,22.79,0,0,1,460,58.19a22.11,22.11,0,0,1,3.25-11.8A23.42,23.42,0,0,1,472.16,38a25.43,25.43,0,0,1,12.45-3.09,27.54,27.54,0,0,1,9.62,1.75,25.58,25.58,0,0,1,8.19,4.81l-4.94,6.44a18.76,18.76,0,0,0-6-3.83,18.33,18.33,0,0,0-6.86-1.37,15.72,15.72,0,0,0-7.9,2A15.08,15.08,0,0,0,471,50.38a15.68,15.68,0,0,0,0,15.67,15.6,15.6,0,0,0,13.62,7.74,17.55,17.55,0,0,0,4.91-.75,21.76,21.76,0,0,0,4.91-2.11Z"/><path class="cls-2" d="M540.63,81l-7.86-13.46a14.37,14.37,0,0,1-1.62.06H520.87V81h-8.71V35.5h19q8.84,0,13.65,4.1t4.81,11.57a17.11,17.11,0,0,1-2.31,9.1,14.13,14.13,0,0,1-6.73,5.65l10,15.08ZM520.87,59.94h10.27q4.94,0,7.54-2.15t2.6-6.37q0-4.16-2.6-6.24t-7.54-2.08H520.87Z"/><path class="cls-2" d="M592.83,81l-4-9.62H566.57l-4,9.62h-9l20-45.5h9L602.19,81ZM569.69,63.9h16l-7.93-19.11Z"/><path class="cls-2" d="M607.71,35.5h31.4L639,43.1H616.42V55.39H637V63H616.42V81h-8.71Z"/><path class="cls-2" d="M645.61,35.5h8.71V81h-8.71Z"/><path class="cls-2" d="M699.17,81l-4-9.62H672.91l-4,9.62h-9l20-45.5h9L708.53,81ZM676,63.9h16l-7.93-19.11Z"/><g id="Icona_Geografia" data-name="Icona Geografia"><path class="cls-2" d="M98.21,35A33.29,33.29,0,1,0,108,58.5,33.07,33.07,0,0,0,98.21,35Zm-7.94,4.56,1.46-6.08a30.44,30.44,0,0,1,12.15,16.9l-.77.15a3,3,0,0,0-2.35,2.23l-.3,1.2a0,0,0,0,1,0,0,0,0,0,0,1,0,0L98.63,52.6a3,3,0,0,0-3.19-.26L93.22,53.5A3,3,0,0,0,93.55,59l.11,0a0,0,0,0,1,0,.07L92.3,60.67a0,0,0,0,1-.06,0l-3.72-2.4a3,3,0,0,0-4.59,2l-.29,1.75a3,3,0,0,0,.91,2.68l1.94,1.82a0,0,0,0,1,0,.05l-3.16,4.79a3,3,0,0,0-.49,1.53l-.27,6.86a0,0,0,0,1,0,0L78.34,84a0,0,0,0,1-.05,0l-2.73-1.6,0,0s-1.33-6-1.37-6.15L73,73A3,3,0,0,0,70.41,71l-5.51-.48,0,0-3.14-5.41a0,0,0,0,1,0,0l.79-5.24,0,0,4.82-3.63h0l4.67,1.95a3,3,0,0,0,.83.21l6.46.7a3,3,0,0,0,2.07-.54l4.28-3.07a3,3,0,0,0,1-3.66l-.4-.89a3,3,0,0,0-2.58-1.77l-12-.66h0a.09.09,0,0,1,0-.06h0l3.61-1a3,3,0,0,0,1.28-.72L81,42.5h0l6.64-.68A3,3,0,0,0,90.27,39.52ZM67.76,37.08l2.48-4.68a3.38,3.38,0,0,0,.33-2.26l-.34-1.64a30.42,30.42,0,0,1,8.91,0,4.43,4.43,0,0,1-.42.41L75.2,30.33a3.39,3.39,0,0,0-1.31.94l-5.48,6.41a.41.41,0,0,1-.63,0A.58.58,0,0,1,67.76,37.08Zm-12.93-1.5V40a3.63,3.63,0,0,1-1.66,3.06L50,45.14A6.57,6.57,0,0,0,48.12,47l-2.89,4.24A30.37,30.37,0,0,1,54.83,35.58Zm1.93,43.67-.42,3.4A30.45,30.45,0,0,1,46,68.33h1.88a.67.67,0,0,1,.57.31l3.81,5.93a3.65,3.65,0,0,0,.61.72l3.7,3.38A.68.68,0,0,1,56.76,79.25Zm17.91,9.58A30.14,30.14,0,0,1,59.1,84.51l.6-4.9a3.64,3.64,0,0,0-1.16-3.13S54.76,73,54.72,73L50.92,67a3.62,3.62,0,0,0-3.06-1.67H45.13a30.31,30.31,0,0,1-.79-6.87q0-.38,0-.76l6.22-9.11a3.61,3.61,0,0,1,1-1l3.18-2.07a6.58,6.58,0,0,0,3-5.54v-6.7a30.19,30.19,0,0,1,9.54-4.24l.34,1.66a.42.42,0,0,1,0,.28l-2.48,4.68a7.34,7.34,0,0,0-.36,1.06,3.37,3.37,0,0,0,3.31,4,3.39,3.39,0,0,0,2.57-1.18l5.48-6.41a.42.42,0,0,1,.16-.12l3.52-1.41a3.39,3.39,0,0,0,1.3-.93l1.33-1.54a30.14,30.14,0,0,1,6.65,2.64c0,.08-1.71,7-1.71,7a0,0,0,0,1,0,0l-6.65.68a3,3,0,0,0-1.75.8l-4.42,4.17h0l-3.61,1a3,3,0,0,0,.62,5.9l12,.66a0,0,0,0,1,0,0L84,53A0,0,0,0,1,84,53l-4.28,3.07h0l-6.47-.71-4.67-1.95a3,3,0,0,0-3,.37l-4.82,3.63a3,3,0,0,0-1.16,1.95l-.79,5.25a3,3,0,0,0,.37,2L62.3,72a3,3,0,0,0,2.34,1.48l5.51.48a0,0,0,0,1,0,0l1.21,3.24L72.65,83a3,3,0,0,0,1.42,1.95l2.73,1.6a3,3,0,0,0,3.62-.45L84.63,82a3,3,0,0,0,.9-2l.27-6.86v0L89,68.25a3,3,0,0,0-.46-3.84l-1.94-1.82a0,0,0,0,1,0,0l.29-1.75a0,0,0,0,1,.07,0l3.72,2.4a3,3,0,0,0,3.89-.55L95.91,61a3,3,0,0,0-1.21-4.78l-.11,0h0a.08.08,0,0,1,0-.06h0L96.81,55h0l1.78,1.33a3,3,0,0,0,4.71-1.68l.3-1.2a0,0,0,0,1,0,0l.86-.17a30.34,30.34,0,0,1-29.87,35.6Z"/></g></g></g></g></svg>