<svg xmlns="http://www.w3.org/2000/svg" viewBox="0 0 1024 116"><defs><style>.cls-1{fill:#efc94c;}.cls-2{fill:#fff;}</style></defs><title>304_historia_1</title><g id="Capa_2" data-name="Capa 2"><g id="_3-_Pantalla_Preguntes" data-name="3- Pantalla Preguntes"><g id="Seccio_Historia" data-name="Seccio Historia"><rect id="Titulo" class="cls-1" width="1024" height="116"/><path class="cls-2" d="M359.71,35.5h8.71V54.94H391.1V35.5h8.71V81H391.1V62.54H368.42V81h-8.71Z"/><path class="cls-2" d="M411.06,35.5h8.71V81h-8.71Z"/><path class="cls-2" d="M452.36,43.88a21.7,21.7,0,0,0-6.47-1.17A9.06,9.06,0,0,0,441,43.88a3.67,3.67,0,0,0-1.82,3.25,4.28,4.28,0,0,0,1.27,3.15,9.9,9.9,0,0,0,3.19,2.08,50.42,50.42,0,0,0,5.23,1.79,57.29,57.29,0,0,1,7.57,2.73,13.52,13.52,0,0,1,5,4,11.1,11.1,0,0,1,2.08,7,12,12,0,0,1-2.24,7.25,14,14,0,0,1-6.18,4.71,23.41,23.41,0,0,1-9,1.63,28.31,28.31,0,0,1-10.4-2,29.52,29.52,0,0,1-8.84-5.3l3.64-7.41a26.61,26.61,0,0,0,7.74,5,20.56,20.56,0,0,0,8,1.82,10.15,10.15,0,0,0,5.72-1.4,4.6,4.6,0,0,0,.81-7,9.44,9.44,0,0,0-3.22-2q-2-.78-5.33-1.75a63,63,0,0,1-7.54-2.67,13.09,13.09,0,0,1-5-3.93,10.84,10.84,0,0,1-2.08-6.92A11.6,11.6,0,0,1,431.69,41a13.6,13.6,0,0,1,6-4.58,22.92,22.92,0,0,1,8.94-1.62,30.23,30.23,0,0,1,8.74,1.3,29.57,29.57,0,0,1,7.7,3.51l-3.51,7.6A33,33,0,0,0,452.36,43.88Z"/><path class="cls-2" d="M466.7,35.5h37.11v7.73H489.64V81h-8.77V43.23H466.7Z"/><path class="cls-2" d="M540.37,38A23.28,23.28,0,0,1,549.12,70a23.15,23.15,0,0,1-8.74,8.48,25.87,25.87,0,0,1-24.63,0A23.14,23.14,0,0,1,507,70,23,23,0,0,1,515.74,38a26.36,26.36,0,0,1,24.63,0Zm-19.92,6.79A15.57,15.57,0,0,0,514.83,66a15.71,15.71,0,0,0,5.65,5.66,14.94,14.94,0,0,0,7.7,2.08,14.65,14.65,0,0,0,7.61-2.08A15.29,15.29,0,0,0,541.35,66a15.54,15.54,0,0,0,2-7.86,15.37,15.37,0,0,0-2-7.83,15.12,15.12,0,0,0-5.56-5.59,14.83,14.83,0,0,0-7.61-2A15.3,15.3,0,0,0,520.45,44.76Zm4.75-22.91,6.56,9.36-6.63.65-8.06-6.69Z"/><path class="cls-2" d="M588.44,81l-7.86-13.46a14.37,14.37,0,0,1-1.62.06H568.68V81H560V35.5h19q8.84,0,13.65,4.1t4.81,11.57a17.11,17.11,0,0,1-2.31,9.1,14.13,14.13,0,0,1-6.73,5.65l10,15.08ZM568.68,59.94H579q4.94,0,7.54-2.15t2.6-6.37q0-4.16-2.6-6.24T579,43.1H568.68Z"/><path class="cls-2" d="M607,35.5h8.71V81H607Z"/><path class="cls-2" d="M660.52,81l-4-9.62H634.26l-4,9.62h-9l20-45.5h9L669.88,81ZM637.38,63.9h16l-7.93-19.11Z"/><g id="Icono_Historia" data-name="Icono Historia"><path class="cls-2" d="M83.6,30.56a1.08,1.08,0,0,0-.65,2.07A23.76,23.76,0,0,1,99.59,55.37v32.4c-2.64-.28-9.31-.89-17.23-1l2-18.78L93.53,64a1.08,1.08,0,0,0,.64-.86l1.08-8.67A1.08,1.08,0,0,0,94,53.23a136.4,136.4,0,0,1-16.11,2.15,1.08,1.08,0,0,0-1,1.15l1.07,17.05-1.74,3.48h-.83l-1.74-3.48,1.07-17.05a1.08,1.08,0,0,0-1-1.15,136.51,136.51,0,0,1-16.11-2.15,1.08,1.08,0,0,0-1.29,1.2l1.08,8.67A1.08,1.08,0,0,0,58,64L67.14,68l2,18.78c-7.92.06-14.58.67-17.23,1V55.37a23.74,23.74,0,0,1,16.8-22.79A1.08,1.08,0,1,0,68,30.51,25.89,25.89,0,0,0,49.72,55.37V89a1.08,1.08,0,0,0,1.08,1.08h.13A175.85,175.85,0,0,1,70.32,89a1.09,1.09,0,0,0,1.08-1.2l-.22-2.05h6.19a1.08,1.08,0,1,0,0-2.17H70.95L69.23,67.19a1.09,1.09,0,0,0-.64-.88l-9.2-4.09-.82-6.59a134.76,134.76,0,0,0,13.85,1.85l-1,16.26a1.09,1.09,0,0,0,.11.55l2.17,4.34a1.09,1.09,0,0,0,1,.6h2.17a1.09,1.09,0,0,0,1-.6L80,74.29a1.09,1.09,0,0,0,.11-.55l-1-16.26a134.8,134.8,0,0,0,13.85-1.85l-.82,6.59-9.2,4.09a1.09,1.09,0,0,0-.64.88l-2.17,20.6A1.09,1.09,0,0,0,81.16,89a176.05,176.05,0,0,1,19.38,1.08,1.07,1.07,0,0,0,.85-.26,1.08,1.08,0,0,0,.37-.81V55.37A25.92,25.92,0,0,0,83.6,30.56Z"/><path class="cls-2" d="M72.49,39.11a1.08,1.08,0,0,0,1.08,1.08h4.34A1.08,1.08,0,0,0,79,39.11C79,35,81.48,26.87,81.5,26.79a1.08,1.08,0,0,0-.87-1.39A31.81,31.81,0,0,0,75.75,25h0a31.83,31.83,0,0,0-4.89.38A1.08,1.08,0,0,0,70,26.79C70,26.87,72.49,35,72.49,39.11Zm2.17-11.9v3.22a1.08,1.08,0,1,0,2.17,0V27.22c.75,0,1.5.07,2.25.16A61.52,61.52,0,0,0,76.86,38H74.61a61.63,61.63,0,0,0-2.2-10.65C73.15,27.29,73.9,27.24,74.65,27.22Z"/></g></g></g></g></svg>