<svg xmlns="http://www.w3.org/2000/svg" viewBox="0 0 1024 116"><defs><style>.cls-1{fill:#e27a3f;}.cls-2{fill:#fff;}</style></defs><title>305_tecnologia_1</title><g id="Capa_2" data-name="Capa 2"><g id="_3-_Pantalla_Preguntes" data-name="3- Pantalla Preguntes"><g id="Seccio_Tecnologia" data-name="Seccio Tecnologia"><rect id="Titulo" class="cls-1" width="1024" height="116"/><path class="cls-2" d="M295.71,35.5h37.11v7.73H318.66V81h-8.77V43.23H295.71Z"/><path class="cls-2" d="M339,35.5h33.35v7.6H347.71V54.35h22.1V62h-22.1V73.4h25.42V81H339Z"/><path class="cls-2" d="M409.24,44.27a15.45,15.45,0,0,0-14.4.46,14.64,14.64,0,0,0-5.52,5.56,16,16,0,0,0,0,15.53,14.86,14.86,0,0,0,5.52,5.59,15.07,15.07,0,0,0,7.73,2A16.24,16.24,0,0,0,409.11,72a18.74,18.74,0,0,0,5.82-4l5.14,5.72a26.85,26.85,0,0,1-8.32,5.75,23.44,23.44,0,0,1-9.62,2.11,23.81,23.81,0,0,1-12-3.12A22.87,22.87,0,0,1,381.51,70a23.16,23.16,0,0,1-3.12-11.86,22.62,22.62,0,0,1,3.19-11.83A22.88,22.88,0,0,1,390.26,38,25.18,25.18,0,0,1,412,36.87a23.48,23.48,0,0,1,8,5.39l-5.07,6.37A17.16,17.16,0,0,0,409.24,44.27Z"/><path class="cls-2" d="M458.93,35.5h8.45V81h-8.25l-23.4-31.33V81h-8.52V35.5h8.26l23.46,31.4Z"/><path class="cls-2" d="M511.55,38A23.28,23.28,0,0,1,520.29,70a23.15,23.15,0,0,1-8.74,8.48,25.87,25.87,0,0,1-24.64,0A23.14,23.14,0,0,1,478.17,70,23,23,0,0,1,486.91,38a26.36,26.36,0,0,1,24.64,0Zm-19.92,6.79A15.57,15.57,0,0,0,486,66a15.7,15.7,0,0,0,5.65,5.66,14.94,14.94,0,0,0,7.7,2.08A14.65,14.65,0,0,0,507,71.71,15.29,15.29,0,0,0,512.52,66a15.54,15.54,0,0,0,2-7.86,15.37,15.37,0,0,0-2-7.83A15.12,15.12,0,0,0,507,44.76a14.83,14.83,0,0,0-7.61-2A15.3,15.3,0,0,0,491.62,44.76Z"/><path class="cls-2" d="M531.14,35.5h8.71V73.13h19.63V81H531.14Z"/><path class="cls-2" d="M599.29,38A23.28,23.28,0,0,1,608,70a23.16,23.16,0,0,1-8.74,8.48,25.87,25.87,0,0,1-24.63,0A23.14,23.14,0,0,1,565.92,70,23,23,0,0,1,574.66,38a26.36,26.36,0,0,1,24.63,0Zm-19.92,6.79A15.57,15.57,0,0,0,573.75,66a15.71,15.71,0,0,0,5.66,5.66,14.94,14.94,0,0,0,7.7,2.08,14.65,14.65,0,0,0,7.61-2.08A15.29,15.29,0,0,0,600.27,66a15.54,15.54,0,0,0,2-7.86,15.37,15.37,0,0,0-2-7.83,15.12,15.12,0,0,0-5.56-5.59,14.83,14.83,0,0,0-7.61-2A15.3,15.3,0,0,0,579.37,44.76Z"/><path class="cls-2" d="M648.21,58.38h7.61V75.67A30.39,30.39,0,0,1,647.36,80a29.58,29.58,0,0,1-9.55,1.66,24.24,24.24,0,0,1-12.19-3.12A23.27,23.27,0,0,1,616.94,70a22.79,22.79,0,0,1-3.19-11.86A22.11,22.11,0,0,1,617,46.39,23.43,23.43,0,0,1,625.88,38a25.43,25.43,0,0,1,12.45-3.09,27.55,27.55,0,0,1,9.62,1.75,25.58,25.58,0,0,1,8.19,4.81l-4.94,6.44a18.75,18.75,0,0,0-6-3.83,18.33,18.33,0,0,0-6.86-1.37,15.72,15.72,0,0,0-7.9,2,15.08,15.08,0,0,0-5.69,5.62,15.68,15.68,0,0,0,0,15.67,15.63,15.63,0,0,0,5.69,5.66,15.47,15.47,0,0,0,7.93,2.08A17.55,17.55,0,0,0,643.3,73a21.76,21.76,0,0,0,4.91-2.11Z"/><path class="cls-2" d="M665.89,35.5h8.71V81h-8.71Z"/><path class="cls-2" d="M719.45,81l-4-9.62H693.19l-4,9.62h-9l20-45.5h9L728.81,81ZM696.31,63.9h16l-7.93-19.11Z"/><g id="Icono_Tecnologia" data-name="Icono Tecnologia"><path class="cls-2" d="M101.69,30.86H49.11a3.61,3.61,0,0,0-3.61,3.61v36.3a3.61,3.61,0,0,0,3.61,3.61h18V77a4.37,4.37,0,0,1-4.37,4.37h-4a1.38,1.38,0,0,0,0,2.76H92a1.38,1.38,0,0,0,0-2.76H88A4.37,4.37,0,0,1,83.67,77V74.39h18a3.61,3.61,0,0,0,3.61-3.61V34.47A3.61,3.61,0,0,0,101.69,30.86ZM68.38,81.38A7.09,7.09,0,0,0,69.89,77V74.39h11V77a7.09,7.09,0,0,0,1.5,4.37Zm34.16-10.6a.85.85,0,0,1-.85.85H49.11a.85.85,0,0,1-.85-.85V63.53h54.29Zm0-10H48.26V34.47a.85.85,0,0,1,.85-.85h52.58a.85.85,0,0,1,.85.85v26.3Z"/><circle class="cls-2" cx="75.4" cy="67.58" r="1.49"/><path class="cls-2" d="M77.77,40.36a1.38,1.38,0,0,0-1.95,0L66.07,50.1A1.38,1.38,0,0,0,68,52.05l9.74-9.74A1.38,1.38,0,0,0,77.77,40.36Z"/><path class="cls-2" d="M83.54,46a1.38,1.38,0,0,0-1.95,0l-3.88,3.88a1.38,1.38,0,1,0,1.95,1.95L83.54,48A1.38,1.38,0,0,0,83.54,46Z"/></g></g></g></g></svg>