<svg xmlns="http://www.w3.org/2000/svg" viewBox="0 0 1024 768"><defs><style>.cls-1,.cls-2{fill:#df5a49;}.cls-1{opacity:0.4;}.cls-2{stroke:#fff;stroke-miterlimit:10;stroke-width:6px;}</style></defs><title>311_incorrecte</title><g id="Capa_2" data-name="Capa 2"><g id="_3-_Pantalla_Preguntes" data-name="3- Pantalla Preguntes"><g id="Incorrecte"><g id="Vermell"><rect class="cls-1" width="1024" height="768"/></g><g id="Uncheck"><path id="_Trazado_" data-name="&lt;Trazado&gt;" class="cls-2" d="M263.91,614.76l76.34,76.34a27,27,0,0,0,38.17,0L512,557.51,645.59,691.1a27,27,0,0,0,38.17,0l76.34-76.34a27,27,0,0,0,0-38.17L626.51,443,760.09,309.41a27,27,0,0,0,0-38.17L683.76,194.9a27,27,0,0,0-38.17,0L512,328.49,378.41,194.91a27,27,0,0,0-38.17,0l-76.34,76.34a27,27,0,0,0,0,38.17L397.49,443,263.91,576.59A27,27,0,0,0,263.91,614.76Z"/></g></g></g></g></svg>