<svg xmlns="http://www.w3.org/2000/svg" viewBox="0 0 52 48.35"><defs><style>.cls-1{fill:#df5a49;stroke:#fff;stroke-miterlimit:10;stroke-width:2px;}</style></defs><title>312_vida</title><g id="Capa_2" data-name="Capa 2"><g id="_3-_Pantalla_Preguntes" data-name="3- Pantalla Preguntes"><g id="Capa_40" data-name="Capa 40"><path class="cls-1" d="M25.85,9.13A13.08,13.08,0,0,1,37.84,1c7.22,0,12.42,6.18,13.08,13.54a13.48,13.48,0,0,1-.42,5.12,22.63,22.63,0,0,1-6.9,11.5L25.85,47,8.4,31.17a22.63,22.63,0,0,1-6.9-11.5,13.48,13.48,0,0,1-.42-5.12C1.73,7.18,6.94,1,14.16,1A12.67,12.67,0,0,1,25.85,9.13Z"/></g></g></g></svg>