<svg xmlns="http://www.w3.org/2000/svg" viewBox="0 0 744.36 121.98"><defs><style>.cls-1{opacity:0.3;}.cls-2{fill:#fff;}.cls-3{fill:#334d5c;}</style></defs><title>314_pregunta_sortir</title><g id="Capa_2" data-name="Capa 2"><g id="_3-_Pantalla_Preguntes" data-name="3- Pantalla Preguntes"><g id="Correcte_copia" data-name="Correcte copia"><g id="Gris_sortir" data-name="Gris sortir"><g id="Pregunta_sortir" data-name="Pregunta sortir"><g id="Quadrat_sortir" data-name="Quadrat sortir"><g class="cls-1"><rect class="cls-2" y="5" width="744.36" height="116.98" rx="9.76" ry="9.76"/></g><rect class="cls-2" width="744.36" height="116.98" rx="9.76" ry="9.76"/></g><g id="Text_sortir" data-name="Text sortir"><path class="cls-3" d="M61.12,45.32a21.25,21.25,0,0,0-6.34-1.15,8.88,8.88,0,0,0-4.84,1.15,3.59,3.59,0,0,0-1.79,3.19,4.2,4.2,0,0,0,1.24,3.09,9.73,9.73,0,0,0,3.12,2,49.52,49.52,0,0,0,5.13,1.75,56.3,56.3,0,0,1,7.43,2.68A13.25,13.25,0,0,1,70,62a10.88,10.88,0,0,1,2,6.88A11.78,11.78,0,0,1,69.86,76a13.78,13.78,0,0,1-6.06,4.62A22.94,22.94,0,0,1,55,82.23a27.77,27.77,0,0,1-10.2-1.94,29,29,0,0,1-8.67-5.2l3.57-7.27a26.1,26.1,0,0,0,7.59,4.91,20.17,20.17,0,0,0,7.84,1.78,10,10,0,0,0,5.61-1.37,4.51,4.51,0,0,0,.8-6.88,9.24,9.24,0,0,0-3.16-2q-1.91-.77-5.23-1.72a61.73,61.73,0,0,1-7.39-2.61,12.84,12.84,0,0,1-4.91-3.86,10.63,10.63,0,0,1-2-6.79,11.37,11.37,0,0,1,2.07-6.79A13.34,13.34,0,0,1,46.71,38a22.5,22.5,0,0,1,8.77-1.59,29.64,29.64,0,0,1,8.57,1.27,29,29,0,0,1,7.55,3.44l-3.44,7.46A32.29,32.29,0,0,0,61.12,45.32Z"/><path class="cls-3" d="M106.32,52q4.11,4.65,4.11,13.07,0,1.66-.06,2.49H85.19a9.5,9.5,0,0,0,9.75,7.78,13,13,0,0,0,5-1,12.23,12.23,0,0,0,4.18-2.84l4.46,4.65a17.28,17.28,0,0,1-6.22,4.33A20.92,20.92,0,0,1,94.24,82,19,19,0,0,1,85,79.87a15.15,15.15,0,0,1-6.15-6.09,18.33,18.33,0,0,1-2.17-9,18.31,18.31,0,0,1,2.2-9.05,15.57,15.57,0,0,1,6.15-6.15,18.16,18.16,0,0,1,9-2.2Q102.21,47.36,106.32,52Zm-3.47,10a8.27,8.27,0,0,0-2.49-6A9.69,9.69,0,0,0,88,56a9.71,9.71,0,0,0-3,6Z"/><path class="cls-3" d="M148.74,47.62V78.47a15.89,15.89,0,0,1-2.2,8.45,14.46,14.46,0,0,1-6.25,5.55,21.49,21.49,0,0,1-9.4,1.94,25,25,0,0,1-14.41-4.53l3.31-6a17.55,17.55,0,0,0,10.65,3.57,10.74,10.74,0,0,0,7.3-2.36,8.09,8.09,0,0,0,2.71-6.44v-4a11.33,11.33,0,0,1-4.46,4A14.07,14.07,0,0,1,129.62,80a15,15,0,0,1-7.9-2.07,14.14,14.14,0,0,1-5.36-5.8,18.53,18.53,0,0,1-1.91-8.57,18,18,0,0,1,1.91-8.45,14,14,0,0,1,5.36-5.71,15.21,15.21,0,0,1,7.9-2,13.87,13.87,0,0,1,6.34,1.4,11.7,11.7,0,0,1,4.49,4v-5.1ZM137.94,70.79a9.94,9.94,0,0,0,2.52-7,9.94,9.94,0,0,0-2.52-7,9.2,9.2,0,0,0-13.07,0,10.86,10.86,0,0,0,0,14.06,9.23,9.23,0,0,0,13.07,0Z"/><path class="cls-3" d="M190,47.62V81.72h-8.35V75.41Q178.2,82,169.78,82q-5.74,0-9.05-3.51T157.41,69V47.62h8.35V66.55a7.79,7.79,0,0,0,1.94,5.61,7.09,7.09,0,0,0,5.39,2,7.9,7.9,0,0,0,6.25-2.8,10.45,10.45,0,0,0,2.29-6.95V47.62Z"/><path class="cls-3" d="M213.29,49.11a13.79,13.79,0,0,1,6.92-1.82v8q-5.29-.32-8.45,2.46a9.47,9.47,0,0,0-3.16,7.49V81.72h-8.29V47.62h8.29v6.57A12.32,12.32,0,0,1,213.29,49.11Z"/><path class="cls-3" d="M274.52,47.62V94.09h-8.29V76.24a12.31,12.31,0,0,1-4.75,4.37,14.46,14.46,0,0,1-6.73,1.5,16.22,16.22,0,0,1-8.51-2.2,15,15,0,0,1-5.71-6.18,19.79,19.79,0,0,1-2-9.15,19.51,19.51,0,0,1,2-9,14.68,14.68,0,0,1,5.67-6.09,16.16,16.16,0,0,1,8.38-2.17,14.54,14.54,0,0,1,6.82,1.53,13,13,0,0,1,4.84,4.4V47.62Zm-11,24.64a10.54,10.54,0,0,0,2.71-7.49,10.54,10.54,0,0,0-2.71-7.49,9.13,9.13,0,0,0-7-2.9,9,9,0,0,0-6.95,2.9,11.61,11.61,0,0,0,0,15,9,9,0,0,0,6.95,2.9A9.12,9.12,0,0,0,263.52,72.25Z"/><path class="cls-3" d="M316.66,47.62V81.72h-8.35V75.41Q304.86,82,296.45,82q-5.74,0-9.05-3.51T284.08,69V47.62h8.35V66.55a7.79,7.79,0,0,0,1.94,5.61,7.09,7.09,0,0,0,5.39,2,7.9,7.9,0,0,0,6.25-2.8,10.45,10.45,0,0,0,2.29-6.95V47.62Z"/><path class="cls-3" d="M353.47,52q4.11,4.65,4.11,13.07,0,1.66-.06,2.49H332.34a9.5,9.5,0,0,0,9.75,7.78,13,13,0,0,0,5-1,12.23,12.23,0,0,0,4.18-2.84l4.46,4.65a17.28,17.28,0,0,1-6.22,4.33A20.92,20.92,0,0,1,341.39,82a19,19,0,0,1-9.21-2.17A15.15,15.15,0,0,1,326,73.78a18.33,18.33,0,0,1-2.17-9,18.31,18.31,0,0,1,2.2-9.05,15.57,15.57,0,0,1,6.15-6.15,18.16,18.16,0,0,1,9-2.2Q349.36,47.36,353.47,52ZM350,62a8.27,8.27,0,0,0-2.49-6,9.69,9.69,0,0,0-12.33,0,9.71,9.71,0,0,0-3,6Z"/><path class="cls-3" d="M375.12,47.68l8.67-.06,8.92,25.95,8.73-25.95h8.35l-13,34.11h-8.54Z"/><path class="cls-3" d="M437.62,49.53a15.69,15.69,0,0,1,6.31,6.09,17.73,17.73,0,0,1,2.26,9,18,18,0,0,1-2.26,9.12,15.62,15.62,0,0,1-6.31,6.12A19.48,19.48,0,0,1,428.28,82a19.8,19.8,0,0,1-9.43-2.17,15.56,15.56,0,0,1-6.34-6.12,18,18,0,0,1-2.26-9.12,17.72,17.72,0,0,1,2.26-9,15.64,15.64,0,0,1,6.34-6.09,19.81,19.81,0,0,1,9.43-2.17A19.49,19.49,0,0,1,437.62,49.53ZM421.27,57.3a10.49,10.49,0,0,0-2.68,7.46,10.49,10.49,0,0,0,2.68,7.46,9.14,9.14,0,0,0,7,2.87,9,9,0,0,0,6.88-2.87,10.49,10.49,0,0,0,2.68-7.46,10.49,10.49,0,0,0-2.68-7.46,9,9,0,0,0-6.88-2.87A9.15,9.15,0,0,0,421.27,57.3Z"/><path class="cls-3" d="M453.72,34.42H462v47.3h-8.29Z"/><path class="cls-3" d="M487.73,54.56a16.44,16.44,0,0,0-4.88-.83,6.57,6.57,0,0,0-3.35.73,2.45,2.45,0,0,0-1.24,2.26,2.68,2.68,0,0,0,1.56,2.45A25.14,25.14,0,0,0,484.76,61a47.75,47.75,0,0,1,5.86,2.14,11,11,0,0,1,4,3.12,8.36,8.36,0,0,1,1.69,5.45,8.78,8.78,0,0,1-3.83,7.65A16.39,16.39,0,0,1,482.85,82a24.42,24.42,0,0,1-7.71-1.24,18.14,18.14,0,0,1-6.37-3.54l2.87-5.8a16.79,16.79,0,0,0,5.48,3.09,18.33,18.33,0,0,0,6.06,1.12,7.26,7.26,0,0,0,3.67-.8,2.59,2.59,0,0,0,1.37-2.39,2.89,2.89,0,0,0-1.59-2.68,28.3,28.3,0,0,0-5.16-2,43.7,43.7,0,0,1-5.61-2,10.13,10.13,0,0,1-3.76-3,8.21,8.21,0,0,1-1.59-5.26,8.88,8.88,0,0,1,3.67-7.68,15.34,15.34,0,0,1,9.21-2.65,23.7,23.7,0,0,1,6.66,1,20.7,20.7,0,0,1,5.83,2.68l-3,6A24.56,24.56,0,0,0,487.73,54.56Z"/><path class="cls-3" d="M534.07,54.56a16.44,16.44,0,0,0-4.88-.83,6.57,6.57,0,0,0-3.35.73,2.45,2.45,0,0,0-1.24,2.26,2.68,2.68,0,0,0,1.56,2.45A25.14,25.14,0,0,0,531.11,61,47.75,47.75,0,0,1,537,63.14a11,11,0,0,1,4,3.12,8.36,8.36,0,0,1,1.69,5.45,8.78,8.78,0,0,1-3.83,7.65A16.39,16.39,0,0,1,529.19,82a24.42,24.42,0,0,1-7.71-1.24,18.14,18.14,0,0,1-6.37-3.54l2.87-5.8a16.79,16.79,0,0,0,5.48,3.09,18.33,18.33,0,0,0,6.06,1.12,7.26,7.26,0,0,0,3.67-.8,2.59,2.59,0,0,0,1.37-2.39A2.89,2.89,0,0,0,533,69.8a28.3,28.3,0,0,0-5.16-2,43.7,43.7,0,0,1-5.61-2,10.13,10.13,0,0,1-3.76-3,8.21,8.21,0,0,1-1.59-5.26,8.88,8.88,0,0,1,3.67-7.68,15.34,15.34,0,0,1,9.21-2.65,23.7,23.7,0,0,1,6.66,1,20.7,20.7,0,0,1,5.83,2.68l-3,6A24.56,24.56,0,0,0,534.07,54.56Z"/><path class="cls-3" d="M574,49.53a15.69,15.69,0,0,1,6.31,6.09,17.73,17.73,0,0,1,2.26,9,18,18,0,0,1-2.26,9.12A15.62,15.62,0,0,1,574,79.87,19.48,19.48,0,0,1,564.64,82a19.8,19.8,0,0,1-9.43-2.17,15.56,15.56,0,0,1-6.34-6.12,18,18,0,0,1-2.26-9.12,17.72,17.72,0,0,1,2.26-9,15.64,15.64,0,0,1,6.34-6.09,19.81,19.81,0,0,1,9.43-2.17A19.49,19.49,0,0,1,574,49.53ZM557.62,57.3a10.49,10.49,0,0,0-2.68,7.46,10.49,10.49,0,0,0,2.68,7.46,9.14,9.14,0,0,0,7,2.87,9,9,0,0,0,6.88-2.87,10.49,10.49,0,0,0,2.68-7.46,10.49,10.49,0,0,0-2.68-7.46,9,9,0,0,0-6.88-2.87A9.15,9.15,0,0,0,557.62,57.3Z"/><path class="cls-3" d="M602.73,49.11a13.79,13.79,0,0,1,6.92-1.82v8q-5.29-.32-8.45,2.46A9.47,9.47,0,0,0,598,65.27V81.72h-8.29V47.62H598v6.57A12.32,12.32,0,0,1,602.73,49.11Z"/><path class="cls-3" d="M635.4,79.62a16.18,16.18,0,0,1-8.54,2.49,10.22,10.22,0,0,1-7.2-2.58q-2.81-2.58-2.8-7.62V55.07h-4.78L612,49h4.84V39.65h8.22V49h9.75v6.06h-9.75V70.44a5,5,0,0,0,.89,3.35,3.42,3.42,0,0,0,2.68,1,11.88,11.88,0,0,0,4.85-1.4Z"/><path class="cls-3" d="M649.36,34.36a5,5,0,0,1,1.34,3.57,4.88,4.88,0,0,1-1.34,3.51,4.77,4.77,0,0,1-6.76,0,4.88,4.88,0,0,1-1.34-3.51,5,5,0,0,1,1.34-3.57,4.77,4.77,0,0,1,6.76,0ZM641.9,47.62h8.29V81.72H641.9Z"/><path class="cls-3" d="M673.42,49.11a13.79,13.79,0,0,1,6.92-1.82v8Q675,55,671.89,57.78a9.47,9.47,0,0,0-3.16,7.49V81.72h-8.29V47.62h8.29v6.57A12.32,12.32,0,0,1,673.42,49.11Z"/><path class="cls-3" d="M686.14,40.76q3.63-3.54,9.82-3.54,6,0,9.53,2.8a9.65,9.65,0,0,1,3.54,8,10.35,10.35,0,0,1-.83,4.27,11.9,11.9,0,0,1-2,3.12,37,37,0,0,1-3.12,3,24.23,24.23,0,0,0-3.92,4,7.5,7.5,0,0,0-1.31,4.5H691.5a12,12,0,0,1,.76-4.46,11.42,11.42,0,0,1,1.82-3.16,30.8,30.8,0,0,1,2.9-2.9A21.91,21.91,0,0,0,700.17,53a6.32,6.32,0,0,0,1-3.7,4.48,4.48,0,0,0-1.56-3.73,6.85,6.85,0,0,0-4.37-1.24,5.79,5.79,0,0,0-6.37,6.18h-6.44Q682.51,44.3,686.14,40.76Zm11.57,33.63A4.47,4.47,0,0,1,699,77.64,4.66,4.66,0,0,1,697.71,81a4.17,4.17,0,0,1-3.16,1.31A4,4,0,0,1,691.46,81a4.69,4.69,0,0,1-1.24-3.32,4.47,4.47,0,0,1,1.24-3.25,4.15,4.15,0,0,1,3.09-1.28A4.22,4.22,0,0,1,697.71,74.39Z"/></g></g></g></g></g></g></svg>