<svg xmlns="http://www.w3.org/2000/svg" viewBox="0 0 110.36 96.97"><defs><style>.cls-1{opacity:0.3;}.cls-2{fill:#df5a49;}.cls-3{fill:#fff;}</style></defs><title>315_si</title><g id="Capa_2" data-name="Capa 2"><g id="_3-_Pantalla_Preguntes" data-name="3- Pantalla Preguntes"><g id="Correcte_copia" data-name="Correcte copia"><g id="Gris_sortir" data-name="Gris sortir"><g id="_0-_Botons_si_o_no" data-name="0- Botons si o no"><g id="Boto_si" data-name="Boto si"><g id="Boto_Inici" data-name="Boto Inici"><g class="cls-1"><rect class="cls-2" y="5" width="110.36" height="91.97" rx="9.76" ry="9.76"/></g><rect class="cls-2" width="110.36" height="91.97" rx="9.76" ry="9.76"/></g><path class="cls-3" d="M51.07,33.55a21.25,21.25,0,0,0-6.34-1.15,8.88,8.88,0,0,0-4.84,1.15,3.59,3.59,0,0,0-1.79,3.19,4.2,4.2,0,0,0,1.24,3.09,9.73,9.73,0,0,0,3.12,2,49.52,49.52,0,0,0,5.13,1.75A56.3,56.3,0,0,1,55,46.3a13.25,13.25,0,0,1,4.94,4,10.88,10.88,0,0,1,2,6.88,11.78,11.78,0,0,1-2.2,7.11,13.78,13.78,0,0,1-6.06,4.62,22.94,22.94,0,0,1-8.83,1.59,27.77,27.77,0,0,1-10.2-1.94A29,29,0,0,1,26,63.32l3.57-7.27A26.1,26.1,0,0,0,37.2,61,20.17,20.17,0,0,0,45,62.75a10,10,0,0,0,5.61-1.37,4.51,4.51,0,0,0,.8-6.88,9.25,9.25,0,0,0-3.16-2q-1.91-.77-5.23-1.72a61.73,61.73,0,0,1-7.39-2.61,12.84,12.84,0,0,1-4.91-3.86,10.63,10.63,0,0,1-2-6.79,11.37,11.37,0,0,1,2.07-6.79,13.34,13.34,0,0,1,5.86-4.5,22.5,22.5,0,0,1,8.77-1.59A29.64,29.64,0,0,1,54,25.9a29,29,0,0,1,7.55,3.44L58.11,36.8A32.29,32.29,0,0,0,51.07,33.55Z"/><path class="cls-3" d="M76.34,21.5l8,3.25-8.16,6.57-6.44-.64ZM69.78,35.85h8.29V70H69.78Z"/></g></g></g></g></g></g></svg>