<svg xmlns="http://www.w3.org/2000/svg" viewBox="0 0 844.94 92.61"><defs><style>.cls-1{fill:none;stroke:#efc94c;stroke-miterlimit:10;stroke-width:2px;}.cls-2{opacity:0.3;}.cls-3{fill:#efc94c;}.cls-4{fill:#fff;}</style></defs><title>401_historia</title><g id="Capa_2" data-name="Capa 2"><g id="_4-_Pantalla_puntuacions" data-name="4- Pantalla puntuacions"><g id="Puntuacions"><g id="Historia_puntuacions" data-name="Historia puntuacions"><rect id="Secció_medalles" data-name="Secció medalles" class="cls-1" x="178" y="1" width="665.94" height="86.61" rx="22.04" ry="22.04"/><g id="Icona_Historia_Esquerra" data-name="Icona Historia Esquerra"><g id="Buit"><g class="cls-2"><rect class="cls-3" y="6" width="91.25" height="86.61" rx="22.04" ry="22.04"/></g><rect class="cls-3" y="1" width="91.25" height="86.61" rx="22.04" ry="22.04"/></g><g id="Icona_Historia" data-name="Icona Historia"><path class="cls-4" d="M51.32,25.76a.79.79,0,0,0-1,.49.74.74,0,0,0,.51.94A16.45,16.45,0,0,1,62.9,42.81V65.08c-1.91-.19-6.74-.61-12.48-.65l1.43-12.91,6.65-2.81a.75.75,0,0,0,.46-.59l.79-6a.72.72,0,0,0-.24-.64.82.82,0,0,0-.69-.19,103.77,103.77,0,0,1-11.66,1.48.81.81,0,0,0-.55.25.72.72,0,0,0-.2.54l.77,11.72-1.26,2.39h-.6l-1.26-2.39.77-11.72a.72.72,0,0,0-.2-.54.81.81,0,0,0-.55-.25,103.86,103.86,0,0,1-11.66-1.48.82.82,0,0,0-.69.19.72.72,0,0,0-.24.64l.79,6a.75.75,0,0,0,.46.59l6.65,2.81,1.43,12.91c-5.74,0-10.56.46-12.48.65V42.81A16.44,16.44,0,0,1,40.51,27.15a.74.74,0,0,0,.52-.93.79.79,0,0,0-1-.49A17.93,17.93,0,0,0,26.78,42.81v23.1a.73.73,0,0,0,.27.56.81.81,0,0,0,.52.19h.1a134.09,134.09,0,0,1,14-.74.8.8,0,0,0,.58-.25.72.72,0,0,0,.2-.58l-.16-1.41H46.8a.75.75,0,1,0,0-1.49H42.16L40.91,50.93a.75.75,0,0,0-.46-.6l-6.66-2.81L33.19,43c2,.34,6.29,1,10,1.27l-.74,11.18a.72.72,0,0,0,.08.38l1.57,3a.79.79,0,0,0,.7.41h1.57a.79.79,0,0,0,.7-.41l1.57-3a.72.72,0,0,0,.08-.38L48,44.26c3.75-.24,8.07-.93,10-1.27l-.6,4.53L50.8,50.33a.75.75,0,0,0-.46.6L48.77,65.09a.72.72,0,0,0,.2.58.8.8,0,0,0,.58.25,134.25,134.25,0,0,1,14,.74.81.81,0,0,0,.62-.18.73.73,0,0,0,.27-.56V42.81A17.94,17.94,0,0,0,51.32,25.76Z"/><path class="cls-4" d="M43.27,31.63a.77.77,0,0,0,.79.75H47.2a.77.77,0,0,0,.79-.75c0-2.83,1.8-8.41,1.82-8.47a.71.71,0,0,0-.08-.61.78.78,0,0,0-.54-.34,24.25,24.25,0,0,0-3.54-.26h0a24.26,24.26,0,0,0-3.54.26.79.79,0,0,0-.54.34.72.72,0,0,0-.08.61C41.47,23.22,43.27,28.8,43.27,31.63Zm1.57-8.18v2.21a.79.79,0,0,0,1.57,0V23.46c.54,0,1.09,0,1.63.11a40.42,40.42,0,0,0-1.6,7.32H44.81a40.49,40.49,0,0,0-1.6-7.32C43.75,23.51,44.3,23.48,44.84,23.46Z"/></g></g></g></g></g></g></svg>