<svg xmlns="http://www.w3.org/2000/svg" viewBox="0 0 454.81 56.81"><defs><style>.cls-1{fill:#fff;}</style></defs><title>401_puntuacions</title><g id="Capa_2" data-name="Capa 2"><g id="_4-_Pantalla_Puntuacions" data-name="4- Pantalla Puntuacions"><path class="cls-1" d="M36.21,9.43q5.34,4.64,5.34,13.11,0,8.84-5.34,13.74t-15.07,4.9H9.87V56.36H0V4.79H21.15Q30.87,4.79,36.21,9.43Zm-7,20.63q3-2.43,3-7.22t-3-7.07q-3-2.36-8.58-2.36H9.87V32.49H20.63Q26.23,32.49,29.21,30.06Z"/><path class="cls-1" d="M85.76,16.95V56.36H76.11V49.07q-4,7.66-13.7,7.66-6.63,0-10.46-4.05T48.11,41.63V16.95h9.65V38.83A9,9,0,0,0,60,45.31a8.19,8.19,0,0,0,6.23,2.36,9.12,9.12,0,0,0,7.22-3.24,12.09,12.09,0,0,0,2.65-8V16.95Z"/><path class="cls-1" d="M132.1,20.67q3.9,4.09,3.9,11.09V56.36h-9.65V34.56A8.89,8.89,0,0,0,124,28a8.59,8.59,0,0,0-6.41-2.39A9.72,9.72,0,0,0,110,28.88a11.89,11.89,0,0,0-2.76,8.1V56.36H97.7V16.95h9.58v7.37q4.05-7.59,14.15-7.74Q128.2,16.58,132.1,20.67Z"/><path class="cls-1" d="M169.83,53.93A18.69,18.69,0,0,1,160,56.81a11.81,11.81,0,0,1-8.33-3q-3.24-3-3.24-8.8V25.57h-5.53l-.07-7h5.6V7.74h9.5V18.57h11.27v7H157.89V43.32a5.74,5.74,0,0,0,1,3.87A4,4,0,0,0,162,48.33a13.72,13.72,0,0,0,5.6-1.62Z"/><path class="cls-1" d="M213.74,16.95V56.36h-9.65V49.07q-4,7.66-13.71,7.66-6.63,0-10.46-4.05t-3.83-11.05V16.95h9.65V38.83A9,9,0,0,0,188,45.31a8.19,8.19,0,0,0,6.23,2.36,9.12,9.12,0,0,0,7.22-3.24,12.08,12.08,0,0,0,2.65-8V16.95Z"/><path class="cls-1" d="M249,56.36V51.58a12.91,12.91,0,0,1-5.31,3.9,19.53,19.53,0,0,1-7.44,1.33A15.85,15.85,0,0,1,229,55.22a11.6,11.6,0,0,1-4.83-4.38,11.85,11.85,0,0,1-1.69-6.26,10.48,10.48,0,0,1,3.9-8.66q3.91-3.13,11.05-3.21h11.49v-1a6.64,6.64,0,0,0-2.28-5.38q-2.28-1.92-6.63-1.92a22.77,22.77,0,0,0-11.71,3.68l-3.46-6.63a43.63,43.63,0,0,1,8.44-3.72,30.92,30.92,0,0,1,8.88-1.14q7.66,0,11.9,3.68t4.31,10.31l.07,25.79Zm-3.39-8.88a6.79,6.79,0,0,0,3.32-4.83V39.12h-9.95a10.81,10.81,0,0,0-5.64,1.14A4.07,4.07,0,0,0,231.5,44a4.79,4.79,0,0,0,1.88,4,8.08,8.08,0,0,0,5.12,1.47A12.51,12.51,0,0,0,245.57,47.49Z"/><path class="cls-1" d="M285.94,25.05a10.07,10.07,0,0,0-7.77,3.24,11.91,11.91,0,0,0-3,8.4,12.12,12.12,0,0,0,3,8.55,10.07,10.07,0,0,0,7.77,3.24q7.07,0,10.61-4.64l6,4.94a17.42,17.42,0,0,1-7,5.89,23.29,23.29,0,0,1-10.09,2.06,21,21,0,0,1-10.35-2.5,17.62,17.62,0,0,1-7-7,21.18,21.18,0,0,1-2.51-10.43,21.31,21.31,0,0,1,2.54-10.54,17.83,17.83,0,0,1,7.07-7.07,21.2,21.2,0,0,1,10.43-2.5,23.49,23.49,0,0,1,9.62,1.88,17.37,17.37,0,0,1,6.89,5.34l-5.82,5.53A13.34,13.34,0,0,0,285.94,25.05Z"/><path class="cls-1" d="M319.32,1.62a5.74,5.74,0,0,1,1.55,4.13,5.64,5.64,0,0,1-1.55,4.05,5.52,5.52,0,0,1-7.81,0A5.64,5.64,0,0,1,310,5.75a5.74,5.74,0,0,1,1.55-4.13,5.52,5.52,0,0,1,7.81,0ZM310.7,16.95h9.58V56.36H310.7Z"/><path class="cls-1" d="M360.17,19.16a18.14,18.14,0,0,1,7.29,7,20.48,20.48,0,0,1,2.62,10.43,20.83,20.83,0,0,1-2.62,10.54,18.06,18.06,0,0,1-7.29,7.07,22.52,22.52,0,0,1-10.79,2.5,22.89,22.89,0,0,1-10.9-2.5,18,18,0,0,1-7.33-7.07,20.82,20.82,0,0,1-2.62-10.54,20.47,20.47,0,0,1,2.62-10.43,18.06,18.06,0,0,1,7.33-7,22.91,22.91,0,0,1,10.9-2.5A22.54,22.54,0,0,1,360.17,19.16Zm-18.9,9a12.13,12.13,0,0,0-3.09,8.62,12.13,12.13,0,0,0,3.09,8.62,10.57,10.57,0,0,0,8.1,3.32,10.39,10.39,0,0,0,8-3.32,12.13,12.13,0,0,0,3.09-8.62,12.13,12.13,0,0,0-3.09-8.62,10.4,10.4,0,0,0-8-3.32A10.57,10.57,0,0,0,341.28,28.15Z"/><path class="cls-1" d="M412.82,20.67q3.9,4.09,3.91,11.09V56.36h-9.65V34.56A8.89,8.89,0,0,0,404.71,28a8.59,8.59,0,0,0-6.41-2.39,9.71,9.71,0,0,0-7.55,3.24A11.88,11.88,0,0,0,388,37V56.36h-9.58V16.95H388v7.37q4.05-7.59,14.15-7.74Q408.91,16.58,412.82,20.67Z"/><path class="cls-1" d="M444.9,25a19,19,0,0,0-5.64-1,7.6,7.6,0,0,0-3.87.85A2.83,2.83,0,0,0,434,27.48a3.1,3.1,0,0,0,1.8,2.84,29.06,29.06,0,0,0,5.71,2.1,55,55,0,0,1,6.78,2.47,12.77,12.77,0,0,1,4.61,3.61,9.66,9.66,0,0,1,2,6.3,10.14,10.14,0,0,1-4.42,8.84,18.94,18.94,0,0,1-11.12,3.09,28.22,28.22,0,0,1-8.92-1.44A21,21,0,0,1,423,51.21l3.32-6.7a19.39,19.39,0,0,0,6.34,3.57,21.17,21.17,0,0,0,7,1.29,8.4,8.4,0,0,0,4.24-.92,3,3,0,0,0,1.58-2.76,3.34,3.34,0,0,0-1.84-3.09,32.66,32.66,0,0,0-6-2.28A50.55,50.55,0,0,1,431.16,38a11.72,11.72,0,0,1-4.35-3.46A9.49,9.49,0,0,1,425,28.44a10.27,10.27,0,0,1,4.24-8.88,17.73,17.73,0,0,1,10.65-3.06,27.41,27.41,0,0,1,7.7,1.11,23.9,23.9,0,0,1,6.74,3.09l-3.46,6.93A28.36,28.36,0,0,0,444.9,25Z"/></g></g></svg>