<svg xmlns="http://www.w3.org/2000/svg" viewBox="0 0 50.7 63.38"><defs><style>.cls-1{fill:#fff;}</style></defs><title>402_icoHistoria</title><g id="Capa_2" data-name="Capa 2"><g id="_4-_Pantalla_puntuacions" data-name="4- Pantalla puntuacions"><g id="Puntuacions"><g id="Historia_puntuacions" data-name="Historia puntuacions"><g id="Icona_Historia" data-name="Icona Historia"><path class="cls-1" d="M33,5.4a1.06,1.06,0,0,0-.64,2A23.15,23.15,0,0,1,48.59,29.57V61.14c-2.58-.27-9.07-.87-16.78-.93l1.93-18.3,8.95-4a1.05,1.05,0,0,0,.62-.83l1.06-8.45a1.06,1.06,0,0,0-1.25-1.17,132.88,132.88,0,0,1-15.69,2.09,1.06,1.06,0,0,0-1,1.12l1,16.61L25.75,50.7h-.81l-1.69-3.39,1-16.61a1.06,1.06,0,0,0-1-1.12A133,133,0,0,1,7.6,27.48a1.06,1.06,0,0,0-1.25,1.17L7.4,37.1a1.05,1.05,0,0,0,.62.83l8.95,4,1.93,18.3c-7.71.06-14.21.65-16.78.93V29.57A23.12,23.12,0,0,1,18.47,7.37a1.06,1.06,0,1,0-.62-2A25.23,25.23,0,0,0,0,29.57V62.32a1.06,1.06,0,0,0,1.06,1.06h.13a171.31,171.31,0,0,1,18.88-1,1.06,1.06,0,0,0,1.05-1.17l-.21-2h6a1.06,1.06,0,0,0,0-2.11H20.69L19,41.08a1.06,1.06,0,0,0-.62-.86l-9-4-.8-6.42a131.28,131.28,0,0,0,13.5,1.8l-1,15.84a1.06,1.06,0,0,0,.11.54l2.11,4.22a1.06,1.06,0,0,0,.95.58h2.11a1.06,1.06,0,0,0,.95-.58L29.46,48a1.06,1.06,0,0,0,.11-.54l-1-15.84a131.32,131.32,0,0,0,13.5-1.8l-.8,6.42-9,4a1.06,1.06,0,0,0-.62.86L29.58,61.15a1.06,1.06,0,0,0,1.05,1.17,171.51,171.51,0,0,1,18.88,1,1,1,0,0,0,.83-.26,1.06,1.06,0,0,0,.36-.79V29.57A25.25,25.25,0,0,0,33,5.4Z"/><path class="cls-1" d="M22.18,13.73a1.06,1.06,0,0,0,1.06,1.06h4.22a1.06,1.06,0,0,0,1.06-1.06c0-4,2.42-11.93,2.45-12A1.06,1.06,0,0,0,30.12.37,31,31,0,0,0,25.36,0h0a31,31,0,0,0-4.76.37,1.05,1.05,0,0,0-.85,1.35C19.76,1.81,22.18,9.72,22.18,13.73ZM24.29,2.14V5.28a1.06,1.06,0,1,0,2.11,0V2.14c.73,0,1.46.07,2.19.15a59.93,59.93,0,0,0-2.15,10.38H24.25A60,60,0,0,0,22.11,2.3C22.83,2.21,23.56,2.17,24.29,2.14Z"/></g></g></g></g></g></svg>