<svg xmlns="http://www.w3.org/2000/svg" viewBox="0 0 844.94 92.61"><defs><style>.cls-1{fill:none;stroke:#e27a3f;stroke-miterlimit:10;stroke-width:2px;}.cls-2{opacity:0.3;}.cls-3{fill:#e27a3f;}.cls-4{fill:#fff;}</style></defs><title>404_tecnologia</title><g id="Capa_2" data-name="Capa 2"><g id="_4-_Pantalla_puntuacions" data-name="4- Pantalla puntuacions"><g id="Puntuacions"><g id="Tecnologia_puntuacions" data-name="Tecnologia puntuacions"><rect id="Secció_medalles" data-name="Secció medalles" class="cls-1" x="178" y="1" width="665.94" height="86.61" rx="22.04" ry="22.04"/><g id="Icona_Tecnologia_Esquerra" data-name="Icona Tecnologia Esquerra"><g class="cls-2"><rect class="cls-3" y="6" width="91.25" height="86.61" rx="22.04" ry="22.04"/></g><rect class="cls-3" y="1" width="91.25" height="86.61" rx="22.04" ry="22.04"/><g id="Icona_Tecnologia" data-name="Icona Tecnologia"><path class="cls-4" d="M64.67,26H26.58A2.55,2.55,0,0,0,24,28.47v25a2.55,2.55,0,0,0,2.61,2.48h13v1.81a3.09,3.09,0,0,1-3.16,3H33.59a.95.95,0,1,0,0,1.9H57.66a.95.95,0,1,0,0-1.9H54.78a3.09,3.09,0,0,1-3.16-3V55.91h13a2.55,2.55,0,0,0,2.61-2.48v-25A2.55,2.55,0,0,0,64.67,26ZM40.54,60.72a4.72,4.72,0,0,0,1.09-3V55.91h8v1.81a4.72,4.72,0,0,0,1.09,3Zm24.74-7.29a.6.6,0,0,1-.62.59H26.58a.6.6,0,0,1-.62-.59v-5H65.28Zm0-6.88H26V28.47a.6.6,0,0,1,.62-.59H64.67a.6.6,0,0,1,.62.59V46.55Z"/><ellipse class="cls-4" cx="45.63" cy="51.23" rx="1.08" ry="1.02"/><path class="cls-4" d="M47.34,32.52a1,1,0,0,0-1.41,0l-7.06,6.7a.91.91,0,0,0,0,1.34,1,1,0,0,0,1.41,0l7.06-6.7A.91.91,0,0,0,47.34,32.52Z"/><path class="cls-4" d="M51.52,36.4a1,1,0,0,0-1.41,0L47.3,39.07a.91.91,0,0,0,0,1.34,1,1,0,0,0,1.41,0l2.81-2.67A.91.91,0,0,0,51.52,36.4Z"/></g></g></g></g></g></g></svg>