<svg xmlns="http://www.w3.org/2000/svg" viewBox="0 0 73.54 62.18"><defs><style>.cls-1{fill:#fff;}</style></defs><title>405_icoTecnologia</title><g id="Capa_2" data-name="Capa 2"><g id="_4-_Pantalla_puntuacions" data-name="4- Pantalla puntuacions"><g id="Puntuacions"><g id="Tecnologia_puntuacions" data-name="Tecnologia puntuacions"><g id="Icona_Tecnologia" data-name="Icona Tecnologia"><path class="cls-1" d="M69.1,0H4.44A4.34,4.34,0,0,0,0,4.21V46.59A4.34,4.34,0,0,0,4.44,50.8H26.6v3.07A5.25,5.25,0,0,1,21.23,59H16.34a1.61,1.61,0,1,0,0,3.22H57.2a1.61,1.61,0,1,0,0-3.22H52.32a5.25,5.25,0,0,1-5.37-5.1V50.8H69.1a4.34,4.34,0,0,0,4.44-4.21V4.21A4.34,4.34,0,0,0,69.1,0Zm-41,59A8,8,0,0,0,30,53.87V50.8H43.56v3.07A8,8,0,0,0,45.4,59Zm42-12.38a1,1,0,0,1-1,1H4.44a1,1,0,0,1-1-1V38.13H70.15Zm0-11.68H3.39V4.21a1,1,0,0,1,1-1H69.1a1,1,0,0,1,1,1v30.7Z"/><ellipse class="cls-1" cx="36.77" cy="42.86" rx="1.83" ry="1.74"/><path class="cls-1" d="M39.68,11.09a1.76,1.76,0,0,0-2.4,0l-12,11.37a1.55,1.55,0,0,0,0,2.28,1.76,1.76,0,0,0,2.4,0l12-11.37A1.55,1.55,0,0,0,39.68,11.09Z"/><path class="cls-1" d="M46.78,17.68a1.76,1.76,0,0,0-2.4,0l-4.77,4.53a1.55,1.55,0,0,0,0,2.28,1.76,1.76,0,0,0,2.4,0L46.78,20A1.55,1.55,0,0,0,46.78,17.68Z"/></g></g></g></g></g></svg>