<svg xmlns="http://www.w3.org/2000/svg" viewBox="0 0 844.94 92.61"><defs><style>.cls-1{fill:none;stroke:#45b29d;stroke-miterlimit:10;stroke-width:2px;}.cls-2{opacity:0.3;}.cls-3{fill:#45b29d;}.cls-4{fill:#fff;}</style></defs><title>407_geografia</title><g id="Capa_2" data-name="Capa 2"><g id="_4-_Pantalla_puntuacions" data-name="4- Pantalla puntuacions"><g id="Puntuacions"><g id="Geografia_puntuacions" data-name="Geografia puntuacions"><rect id="Secció_medalles" data-name="Secció medalles" class="cls-1" x="178" y="1" width="665.94" height="86.61" rx="22.04" ry="22.04"/><g id="Icona_Geografia_Esquerra" data-name="Icona Geografia Esquerra"><g class="cls-2"><rect class="cls-3" y="6" width="91.25" height="86.61" rx="22.04" ry="22.04"/></g><rect class="cls-3" y="1" width="91.25" height="86.61" rx="22.04" ry="22.04"/><g id="Icona_Geografia" data-name="Icona Geografia"><path class="cls-4" d="M62.67,28.12a25,25,0,0,0-34.09,0,22.07,22.07,0,0,0,0,32.36,25,25,0,0,0,34.09,0,22.07,22.07,0,0,0,0-32.36Zm-5.75,3.13L58,27.08a21,21,0,0,1,8.8,11.61l-.56.1a2.14,2.14,0,0,0-1.7,1.53l-.22.82s0,0,0,0h0L63,40.25a2.28,2.28,0,0,0-2.31-.18l-1.61.8a2,2,0,0,0-1.16,2,2.05,2.05,0,0,0,1.41,1.8l.08,0a0,0,0,0,1,0,0,0,0,0,0,1,0,0l-1,1.09h0l-2.7-1.65A2.27,2.27,0,0,0,53.59,44a2.08,2.08,0,0,0-1.26,1.55l-.21,1.21a2,2,0,0,0,.66,1.84l1.41,1.25a0,0,0,0,1,0,0l-2.29,3.3a2,2,0,0,0-.36,1.05l-.2,4.72v0l-3.05,2.84h0l-2-1.1v0s-1-4.13-1-4.22l-.87-2.22a2.17,2.17,0,0,0-1.85-1.34l-4-.33h0l-2.27-3.72a0,0,0,0,1,0,0l.57-3.61v0l3.49-2.5h0L43.73,44a2.27,2.27,0,0,0,.6.15l4.68.48a2.26,2.26,0,0,0,1.5-.37l3.1-2.11a2,2,0,0,0,.72-2.52L54,39.06a2.17,2.17,0,0,0-1.87-1.22l-8.71-.45h0a.06.06,0,0,1,0,0h0l2.61-.67a2.21,2.21,0,0,0,.93-.49l3.2-2.86h0L55,32.83A2.14,2.14,0,0,0,56.92,31.26Zm-16.3-1.68,1.8-3.21a2.22,2.22,0,0,0,.24-1.55l-.24-1.13a23.2,23.2,0,0,1,6.45,0,3.14,3.14,0,0,1-.3.28l-2.55,1a2.46,2.46,0,0,0-.95.64l-4,4.4a.31.31,0,0,1-.46,0A.38.38,0,0,1,40.62,29.58Zm-9.37-1V31.6a2.47,2.47,0,0,1-1.2,2.1l-2.31,1.42a4.65,4.65,0,0,0-1.35,1.25l-2.09,2.91A20.74,20.74,0,0,1,31.26,28.55Zm1.4,30-.3,2.34a21,21,0,0,1-7.51-9.84h1.36a.49.49,0,0,1,.41.21l2.76,4.08a2.55,2.55,0,0,0,.44.5l2.68,2.32A.45.45,0,0,1,32.66,58.57Zm13,6.58a22.72,22.72,0,0,1-11.28-3l.44-3.37a2.43,2.43,0,0,0-.84-2.15s-2.74-2.38-2.76-2.41l-2.76-4.08A2.66,2.66,0,0,0,26.21,49h-2a19.82,19.82,0,0,1-.57-4.72q0-.26,0-.52l4.5-6.26a2.55,2.55,0,0,1,.74-.69l2.31-1.42A4.47,4.47,0,0,0,33.4,31.6V27a22.46,22.46,0,0,1,6.91-2.92l.25,1.14a.27.27,0,0,1,0,.19l-1.8,3.21a4.87,4.87,0,0,0-.26.73,2.22,2.22,0,0,0,.54,2,2.48,2.48,0,0,0,1.85.81,2.53,2.53,0,0,0,1.86-.81l4-4.4a.3.3,0,0,1,.12-.08l2.55-1a2.45,2.45,0,0,0,.94-.64l1-1.06A22.52,22.52,0,0,1,56.08,26c0,.05-1.24,4.81-1.24,4.81l0,0L50,31.27a2.24,2.24,0,0,0-1.27.55l-3.2,2.86h0l-2.61.67a2.09,2.09,0,0,0-1.59,1.73,2,2,0,0,0,1.08,2.05,2.27,2.27,0,0,0,1,.27l8.71.45,0,0,.29.61a0,0,0,0,1,0,0l-3.1,2.11h0l-4.69-.48-3.38-1.34a2.28,2.28,0,0,0-2.15.26l-3.49,2.5a2,2,0,0,0-.84,1.34l-.57,3.61a2,2,0,0,0,.27,1.34l2.27,3.72a2.19,2.19,0,0,0,1.69,1l4,.33,0,0,.87,2.23.91,3.95a2.08,2.08,0,0,0,1,1.34l2,1.1a2.27,2.27,0,0,0,2.62-.31l3.05-2.84A2,2,0,0,0,53.49,59l.2-4.72v0L56,51a2,2,0,0,0-.33-2.64l-1.41-1.25a0,0,0,0,1,0,0l.21-1.21s0,0,0,0h0l2.69,1.65A2.27,2.27,0,0,0,60,47.13L61,46a2,2,0,0,0,.47-1.86,2.11,2.11,0,0,0-1.34-1.43l-.08,0h0a.05.05,0,0,1,0,0h0l1.61-.8h0l1.29.92a2.26,2.26,0,0,0,2,.29,2.1,2.1,0,0,0,1.38-1.45l.22-.82,0,0,.63-.11a19.83,19.83,0,0,1,.33,3.63C67.59,55.8,57.74,65.15,45.62,65.15Z"/></g></g></g></g></g></g></svg>