<svg xmlns="http://www.w3.org/2000/svg" viewBox="0 0 62.17 59.01"><defs><style>.cls-1{fill:#fff;}</style></defs><title>408_icoGeografia</title><g id="Capa_2" data-name="Capa 2"><g id="_4-_Pantalla_puntuacions" data-name="4- Pantalla puntuacions"><g id="Puntuacions"><g id="Geografia_puntuacions" data-name="Geografia puntuacions"><g id="Icona_Geografia" data-name="Icona Geografia"><path class="cls-1" d="M53.07,8.64A31.74,31.74,0,0,0,31.09,0a31.74,31.74,0,0,0-22,8.64,28.45,28.45,0,0,0,0,41.72,31.74,31.74,0,0,0,22,8.64,31.74,31.74,0,0,0,22-8.64,28.45,28.45,0,0,0,0-41.72Zm-7.41,4L47,7.29a27.09,27.09,0,0,1,11.34,15l-.72.13a2.75,2.75,0,0,0-2.19,2l-.28,1.06s0,0,0,0h0l-1.66-1.18a2.94,2.94,0,0,0-3-.23l-2.07,1a2.61,2.61,0,0,0-1.5,2.52,2.65,2.65,0,0,0,1.81,2.33l.1,0a0,0,0,0,1,0,0,0,0,0,0,1,0,0l-1.29,1.41a0,0,0,0,1-.05,0L44,29.3a2.92,2.92,0,0,0-2.66-.2,2.68,2.68,0,0,0-1.63,2l-.27,1.56A2.58,2.58,0,0,0,40.32,35l1.81,1.61a0,0,0,0,1,0,0l-3,4.25a2.57,2.57,0,0,0-.46,1.36l-.26,6.08v0l-3.93,3.66a0,0,0,0,1,0,0l-2.55-1.42,0,0s-1.24-5.33-1.28-5.45l-1.13-2.87a2.8,2.8,0,0,0-2.38-1.72L22,40.18l0,0L19,35.36a0,0,0,0,1,0,0l.74-4.65,0,0,4.5-3.22h0l4.36,1.73a2.93,2.93,0,0,0,.78.19l6,.62a2.91,2.91,0,0,0,1.94-.48l4-2.72a2.59,2.59,0,0,0,.93-3.25l-.37-.79a2.79,2.79,0,0,0-2.41-1.57l-11.23-.58h0a.07.07,0,0,1,0-.05h0l3.37-.86A2.86,2.86,0,0,0,32.86,19L37,15.32h0l6.21-.61A2.76,2.76,0,0,0,45.65,12.68Zm-21-2.17L27,6.37a2.86,2.86,0,0,0,.3-2l-.31-1.46a29.91,29.91,0,0,1,8.32,0,4,4,0,0,1-.39.37L31.59,4.53a3.17,3.17,0,0,0-1.22.83L25.25,11a.4.4,0,0,1-.59,0A.5.5,0,0,1,24.63,10.52ZM12.56,9.19v3.93A3.18,3.18,0,0,1,11,15.83L8,17.66A6,6,0,0,0,6.3,19.27L3.6,23A26.74,26.74,0,0,1,12.56,9.19Zm1.81,38.71-.39,3A27.11,27.11,0,0,1,4.29,38.21H6a.64.64,0,0,1,.53.28l3.55,5.26a3.28,3.28,0,0,0,.57.64l3.46,3A.58.58,0,0,1,14.36,47.89Zm16.72,8.49a29.29,29.29,0,0,1-14.54-3.82l.56-4.34A3.14,3.14,0,0,0,16,45.44s-3.53-3.07-3.56-3.11L8.91,37.07A3.43,3.43,0,0,0,6,35.59H3.5a25.56,25.56,0,0,1-.73-6.09q0-.34,0-.68l5.81-8.08a3.29,3.29,0,0,1,1-.89l3-1.83a5.76,5.76,0,0,0,2.81-4.91V7.18a29,29,0,0,1,8.91-3.76l.32,1.48a.35.35,0,0,1,0,.25L22.19,9.29a6.28,6.28,0,0,0-.33.94,2.87,2.87,0,0,0,.7,2.53,3.2,3.2,0,0,0,2.39,1,3.26,3.26,0,0,0,2.4-1l5.12-5.68a.39.39,0,0,1,.15-.1L35.9,5.72a3.16,3.16,0,0,0,1.22-.83l1.24-1.37a29,29,0,0,1,6.21,2.34c0,.07-1.6,6.2-1.6,6.2a0,0,0,0,1,0,0l-6.21.61a2.89,2.89,0,0,0-1.64.71L31,17.11h0L27.58,18a2.7,2.7,0,0,0-2.05,2.23,2.61,2.61,0,0,0,1.39,2.65,2.93,2.93,0,0,0,1.24.35l11.23.58,0,0,.37.79a0,0,0,0,1,0,0l-4,2.72h0l-6-.63L25.35,25a2.94,2.94,0,0,0-2.77.33l-4.5,3.22A2.62,2.62,0,0,0,17,30.3l-.74,4.65a2.56,2.56,0,0,0,.35,1.73l2.93,4.79a2.82,2.82,0,0,0,2.18,1.32l5.15.43,0,0L28,46.11,29.2,51.2a2.68,2.68,0,0,0,1.32,1.73l2.55,1.42a2.93,2.93,0,0,0,3.38-.4l3.93-3.66a2.59,2.59,0,0,0,.84-1.79l.26-6.08v0l3-4.25A2.56,2.56,0,0,0,44,34.73L42.2,33.12a0,0,0,0,1,0,0l.27-1.56s0,0,0,0h0L46,33.64a2.93,2.93,0,0,0,3.64-.49l1.29-1.41a2.56,2.56,0,0,0,.6-2.4,2.71,2.71,0,0,0-1.73-1.84l-.1,0h0a.07.07,0,0,1,0,0h0l2.07-1h0l1.66,1.18a2.92,2.92,0,0,0,2.62.38,2.71,2.71,0,0,0,1.78-1.87L58.14,25a0,0,0,0,1,0,0l.81-.15a25.57,25.57,0,0,1,.43,4.67C59.41,44.32,46.7,56.38,31.09,56.38Z"/></g></g></g></g></g></svg>