<svg xmlns="http://www.w3.org/2000/svg" viewBox="0 0 844.94 92.61"><defs><style>.cls-1{fill:none;stroke:#df5a49;stroke-miterlimit:10;stroke-width:2px;}.cls-2{opacity:0.3;}.cls-3{fill:#df5a49;}.cls-4{fill:#fff;}</style></defs><title>410_art</title><g id="Capa_2" data-name="Capa 2"><g id="_4-_Pantalla_puntuacions" data-name="4- Pantalla puntuacions"><g id="Puntuacions"><g id="Art_puntuacions" data-name="Art puntuacions"><rect id="Secció_medalles" data-name="Secció medalles" class="cls-1" x="178" y="1" width="665.94" height="86.61" rx="22.04" ry="22.04"/><g id="Icona_Art_Esquerra" data-name="Icona Art Esquerra"><g class="cls-2"><rect class="cls-3" y="6" width="91.25" height="86.61" rx="22.04" ry="22.04"/></g><rect class="cls-3" y="1" width="91.25" height="86.61" rx="22.04" ry="22.04"/><g id="Icona_Art" data-name="Icona Art"><path class="cls-4" d="M68.56,23.63c-1.35-1.28-4.07-.55-8.54,2.31A91,91,0,0,0,47.19,36.29c-6.64,6.3-11.68,12.48-13.36,16.3a6.1,6.1,0,0,0-.86-.23,7,7,0,0,0-5.18,1.14,7.12,7.12,0,0,0-2.91,4,11.59,11.59,0,0,1-2.57,4.59,1,1,0,0,0,.1,1.46,8.62,8.62,0,0,0,5.63,2,10.57,10.57,0,0,0,5.9-1.86,11.67,11.67,0,0,0,1.63-1.35,6.45,6.45,0,0,0,1.89-5.56c3.95-1.34,10.83-6.31,17.77-12.9A88.63,88.63,0,0,0,66.14,31.74C69.15,27.49,69.92,24.91,68.56,23.63ZM34,61A9.46,9.46,0,0,1,32.66,62a7.54,7.54,0,0,1-8,.6A13.52,13.52,0,0,0,27,58.06h0V58a5.07,5.07,0,0,1,2-2.79,4.72,4.72,0,0,1,3.47-.79,3.39,3.39,0,0,1,2.24,1.44A4.15,4.15,0,0,1,34,61Zm2.75-6.1a3.92,3.92,0,0,0-1-1.16A24.88,24.88,0,0,1,39,48.39l3.45,3.27A26.39,26.39,0,0,1,36.71,54.85Zm7.55-4.46-3.9-3.7c.67-.82,1.4-1.67,2.18-2.55l4.4,4.18Q45.55,49.45,44.26,50.4ZM64,31a89,89,0,0,1-10.3,11.4c-1.75,1.66-3.44,3.17-5.05,4.52L44,42.57c1.47-1.58,3.07-3.19,4.76-4.8a91.28,91.28,0,0,1,12-9.78c4.41-2.9,5.94-2.9,6.23-2.87C67,25.4,67,26.85,64,31Z"/><path class="cls-4" d="M33,58.13a1.13,1.13,0,0,0-1.5.41.76.76,0,0,1-.11.14,5.18,5.18,0,0,1-.63.52,4.27,4.27,0,0,1-1.37.62,1,1,0,0,0-.79,1.28,1.09,1.09,0,0,0,1.06.78,1.17,1.17,0,0,0,.28,0,6.52,6.52,0,0,0,2.09-.94,10.06,10.06,0,0,0,1-.8,2.85,2.85,0,0,0,.42-.56A1,1,0,0,0,33,58.13Z"/></g></g></g></g></g></g></svg>