<svg xmlns="http://www.w3.org/2000/svg" viewBox="0 0 58.29 52.61"><defs><style>.cls-1{fill:#df5a49;}.cls-2{fill:#fff;}</style></defs><title>412_icoArt_ple</title><g id="Capa_2" data-name="Capa 2"><g id="_4-_Pantalla_puntuacions" data-name="4- Pantalla puntuacions"><g id="Puntuacions"><g id="Art_puntuacions" data-name="Art puntuacions"><g id="Icona_Art_ple" data-name="Icona Art ple"><path class="cls-1" d="M57.5.75c-1.67-1.59-5-.68-10.55,2.85A112.41,112.41,0,0,0,31.08,16.4c-8.2,7.78-14.44,15.43-16.51,20.15a7.53,7.53,0,0,0-1.06-.28,8.68,8.68,0,0,0-6.4,1.41,8.8,8.8,0,0,0-3.59,5A14.33,14.33,0,0,1,.33,48.34a1.25,1.25,0,0,0,.12,1.8,10.65,10.65,0,0,0,7,2.46,13.06,13.06,0,0,0,7.29-2.3,14.43,14.43,0,0,0,2-1.67,8,8,0,0,0,2.33-6.87C23.93,40.1,32.44,34,41,25.83A109.53,109.53,0,0,0,54.49,10.77C58.21,5.52,59.17,2.34,57.5.75Z"/><g id="Icona_Art" data-name="Icona Art"><path class="cls-2" d="M57.5.75c-1.67-1.59-5-.68-10.55,2.85A112.41,112.41,0,0,0,31.08,16.4c-8.2,7.78-14.44,15.43-16.51,20.15a7.53,7.53,0,0,0-1.06-.28,8.68,8.68,0,0,0-6.4,1.41,8.8,8.8,0,0,0-3.59,5A14.33,14.33,0,0,1,.33,48.34a1.25,1.25,0,0,0,.12,1.8,10.65,10.65,0,0,0,7,2.46,13.06,13.06,0,0,0,7.29-2.3,14.43,14.43,0,0,0,2-1.67,8,8,0,0,0,2.33-6.87C23.93,40.1,32.44,34,41,25.83A109.53,109.53,0,0,0,54.49,10.77C58.21,5.52,59.17,2.34,57.5.75ZM14.73,46.88a11.69,11.69,0,0,1-1.61,1.33,9.32,9.32,0,0,1-9.83.74A16.7,16.7,0,0,0,6.15,43.3h0l0-.07a6.27,6.27,0,0,1,2.52-3.45,5.84,5.84,0,0,1,4.29-1,4.19,4.19,0,0,1,2.76,1.78A5.13,5.13,0,0,1,14.73,46.88Zm3.4-7.54a4.84,4.84,0,0,0-1.21-1.43A30.74,30.74,0,0,1,21,31.35l4.26,4A32.62,32.62,0,0,1,18.13,39.34Zm9.33-5.51-4.82-4.57c.83-1,1.73-2.07,2.69-3.15l5.44,5.17Q29.05,32.66,27.46,33.83ZM51.82,9.91A110,110,0,0,1,39.09,24c-2.16,2.05-4.25,3.91-6.24,5.59l-5.72-5.43c1.81-1.95,3.79-3.95,5.88-5.93A112.81,112.81,0,0,1,47.85,6.14c5.46-3.58,7.34-3.59,7.7-3.54C55.6,2.94,55.59,4.73,51.82,9.91Z"/><path class="cls-2" d="M13.58,43.39a1.4,1.4,0,0,0-1.85.51.93.93,0,0,1-.13.18,6.41,6.41,0,0,1-.78.64,5.28,5.28,0,0,1-1.69.76,1.29,1.29,0,0,0-1,1.58,1.35,1.35,0,0,0,1.32,1,1.44,1.44,0,0,0,.35,0,8.06,8.06,0,0,0,2.58-1.16,12.43,12.43,0,0,0,1.2-1,3.53,3.53,0,0,0,.52-.69A1.26,1.26,0,0,0,13.58,43.39Z"/></g></g></g></g></g></g></svg>