<svg xmlns="http://www.w3.org/2000/svg" viewBox="0 0 844.94 92.61"><defs><style>.cls-1{fill:none;stroke:#7dce49;stroke-miterlimit:10;stroke-width:2px;}.cls-2{opacity:0.3;}.cls-3{fill:#7dce49;}.cls-4{fill:#fff;}</style></defs><title>413_ciencia</title><g id="Capa_2" data-name="Capa 2"><g id="_4-_Pantalla_puntuacions" data-name="4- Pantalla puntuacions"><g id="Puntuacions"><g id="Ciencia_puntuacions" data-name="Ciencia puntuacions"><rect id="Secció_medalles" data-name="Secció medalles" class="cls-1" x="178" y="1" width="665.94" height="86.61" rx="22.04" ry="22.04"/><g id="Icona_Ciència_Esquerra" data-name="Icona Ciència Esquerra"><g class="cls-2"><rect class="cls-3" y="6" width="91.25" height="86.61" rx="22.04" ry="22.04"/></g><rect class="cls-3" y="1" width="91.25" height="86.61" rx="22.04" ry="22.04"/><g id="Icona_CIència" data-name="Icona CIència"><path class="cls-4" d="M60.75,39.75V28.17a2.26,2.26,0,0,0-.27-4.52H49.87a2.26,2.26,0,0,0-.27,4.52V39.75A15.42,15.42,0,0,0,43.39,44a.73.73,0,0,0,.1,1.06A.83.83,0,0,0,44.61,45a13.86,13.86,0,0,1,6.06-4,.76.76,0,0,0,.54-.71V28.18h4.51a.76.76,0,1,0,0-1.51H49.87a.76.76,0,1,1,0-1.51H60.49a.76.76,0,1,1,0,1.51H58.89a.76.76,0,1,0,0,1.51h.27V40.28a.76.76,0,0,0,.54.71A13.17,13.17,0,0,1,69,53.37c0,7.22-6.19,13.1-13.8,13.1a14.37,14.37,0,0,1-5.19-1,.81.81,0,0,0-1,.42.74.74,0,0,0,.44,1A16,16,0,0,0,55.18,68c8.49,0,15.39-6.55,15.39-14.61a14.65,14.65,0,0,0-9.82-13.62Z"/><ellipse class="cls-4" cx="61.11" cy="56.03" rx="0.8" ry="0.76"/><ellipse class="cls-4" cx="57.93" cy="59.05" rx="0.8" ry="0.76"/><path class="cls-4" d="M50.68,62.5a.82.82,0,0,0-1.06.36.74.74,0,0,0,.38,1A12.65,12.65,0,0,0,55.18,65c6.73,0,12.21-5.2,12.21-11.59a11.13,11.13,0,0,0-1.63-5.79.81.81,0,0,0-.8-.37l-.29,0-.11,0a6.21,6.21,0,0,0-2.37,1.22,2.78,2.78,0,0,1-2.06.73,2.69,2.69,0,0,1-2-.82,4.35,4.35,0,0,0-6,0,2.69,2.69,0,0,1-2,.82,2.78,2.78,0,0,1-2.06-.73,6.21,6.21,0,0,0-2.37-1.22l-.11,0-.29,0a.81.81,0,0,0-.8.37l0,0a.74.74,0,0,0,.29,1,.83.83,0,0,0,.53.09h0a4.63,4.63,0,0,1,1.76.93,4.62,4.62,0,0,0,6-.13,2.72,2.72,0,0,1,3.9,0,4.62,4.62,0,0,0,6,.13,4.73,4.73,0,0,1,1.47-.84,9.66,9.66,0,0,1,1.14,4.55A10.37,10.37,0,0,1,55.18,63.44a11,11,0,0,1-4.5-.95Z"/><path class="cls-4" d="M39.89,40.15v-15a2.26,2.26,0,0,0-.27-4.52H29a2.26,2.26,0,0,0-.27,4.52V37.26a.8.8,0,0,0,1.59,0V25.16h4.51a.76.76,0,1,0,0-1.51H29a.76.76,0,1,1,0-1.51H39.63a.76.76,0,1,1,0,1.51H38a.76.76,0,1,0,0,1.51h.27V40.28a.72.72,0,0,0,0,.25l7.74,21.23a3.46,3.46,0,0,1-.3,3.35,3.9,3.9,0,0,1-3.24,1.36H26.1a3.9,3.9,0,0,1-3.24-1.36,3.46,3.46,0,0,1-.3-3.35L30.3,40.52a.75.75,0,0,0-.49-1,.81.81,0,0,0-1,.47L21.06,61.26a4.86,4.86,0,0,0,.5,4.72,5.47,5.47,0,0,0,4.53,2H42.55a5.47,5.47,0,0,0,4.53-2,4.86,4.86,0,0,0,.5-4.72L39.89,40.15Z"/><path class="cls-4" d="M27.54,55.76a.83.83,0,0,0-.71-.13.78.78,0,0,0-.53.48l-2.24,6.13a2.08,2.08,0,0,0,.09,2A2.35,2.35,0,0,0,26.1,65H42.55a2.35,2.35,0,0,0,1.94-.73,2.08,2.08,0,0,0,.09-2l-2.24-6.14a.78.78,0,0,0-.53-.48.83.83,0,0,0-.71.13,2.64,2.64,0,0,1-1.84.56,2.69,2.69,0,0,1-2-.82,4.35,4.35,0,0,0-6,0,2.69,2.69,0,0,1-2,.82,2.64,2.64,0,0,1-1.84-.56Zm4.83.89a2.72,2.72,0,0,1,3.9,0,4.29,4.29,0,0,0,3,1.19,4.74,4.74,0,0,0,1.9-.34l1.91,5.24a1.39,1.39,0,0,1,.11.6,1.6,1.6,0,0,1-.63.1H26.1a1.6,1.6,0,0,1-.63-.1,1.39,1.39,0,0,1,.11-.6l1.91-5.24a4.74,4.74,0,0,0,1.9.34,4.29,4.29,0,0,0,3-1.19Z"/></g></g></g></g></g></g></svg>