<svg xmlns="http://www.w3.org/2000/svg" viewBox="0 0 59.64 56.61"><defs><style>.cls-1{fill:#7dce49;}.cls-2{fill:#fff;}</style></defs><title>415_icoCiencia_ple</title><g id="Capa_2" data-name="Capa 2"><g id="_4-_Pantalla_puntuacions" data-name="4- Pantalla puntuacions"><g id="Puntuacions"><g id="Ciencia_puntuacions" data-name="Ciencia puntuacions"><g id="Icona_CIència_ple" data-name="Icona CIència ple"><path class="cls-1" d="M25.13,31.61c-.4-.32,1.67-3.3,2-3.68a18.44,18.44,0,0,1,7.44-5.06V9A2.77,2.77,0,0,1,32,6.32,2.79,2.79,0,0,1,34.9,3.61H47.59a2.79,2.79,0,0,1,2.86,2.71A2.77,2.77,0,0,1,47.91,9V22.86h0A17.52,17.52,0,0,1,59.64,39.14c0,9.63-8.25,17.46-18.4,17.46a19.16,19.16,0,0,1-6.92-1.28c-.49-.19-3.39-1.26-3.19-1.72"/><path class="cls-1" d="M9.65,19.88V5.4A2.77,2.77,0,0,1,7.11,2.71,2.79,2.79,0,0,1,10,0H22.65a2.79,2.79,0,0,1,2.86,2.71A2.77,2.77,0,0,1,23,5.4V23.34h0l9.2,25.24a5.81,5.81,0,0,1-.6,5.64,6.53,6.53,0,0,1-5.42,2.39H6.48a6.53,6.53,0,0,1-5.42-2.39,5.81,5.81,0,0,1-.6-5.64L9.7,23.2"/><g id="Icona_CIència" data-name="Icona CIència"><path class="cls-2" d="M47.91,22.86V9a2.77,2.77,0,0,0,2.54-2.69,2.79,2.79,0,0,0-2.86-2.71H34.9A2.79,2.79,0,0,0,32,6.32,2.77,2.77,0,0,0,34.58,9V22.86a18.44,18.44,0,0,0-7.44,5.06.87.87,0,0,0,.12,1.27,1,1,0,0,0,1.34-.11,16.57,16.57,0,0,1,7.24-4.74.91.91,0,0,0,.64-.85V9h5.39a.9.9,0,1,0,0-1.81h-7a.9.9,0,1,1,0-1.81H47.59a.9.9,0,1,1,0,1.81h-1.9a.9.9,0,1,0,0,1.81H46V23.49a.91.91,0,0,0,.64.85,15.75,15.75,0,0,1,11.1,14.8c0,8.63-7.4,15.66-16.5,15.66A17.18,17.18,0,0,1,35,53.65a1,1,0,0,0-1.24.5.89.89,0,0,0,.52,1.18,19.16,19.16,0,0,0,6.92,1.28c10.15,0,18.4-7.83,18.4-17.46A17.52,17.52,0,0,0,47.91,22.86Z"/><ellipse class="cls-2" cx="48.34" cy="42.32" rx="0.95" ry="0.9"/><ellipse class="cls-2" cx="44.53" cy="45.93" rx="0.95" ry="0.9"/><path class="cls-2" d="M35.87,50.05a1,1,0,0,0-1.27.43.88.88,0,0,0,.46,1.2A15.12,15.12,0,0,0,41.24,53c8,0,14.59-6.21,14.59-13.85a13.31,13.31,0,0,0-2-6.93,1,1,0,0,0-1-.44l-.35,0-.13,0a7.43,7.43,0,0,0-2.84,1.45,3.32,3.32,0,0,1-2.46.87,3.22,3.22,0,0,1-2.33-1,5.2,5.2,0,0,0-7.15,0,3.22,3.22,0,0,1-2.33,1,3.32,3.32,0,0,1-2.46-.87A7.43,7.43,0,0,0,30,31.85l-.13,0-.35,0a1,1,0,0,0-1,.44l0,0a.88.88,0,0,0,.35,1.23,1,1,0,0,0,.63.11h0a5.53,5.53,0,0,1,2.1,1.11,5.52,5.52,0,0,0,7.23-.15,3.25,3.25,0,0,1,4.67,0,5.52,5.52,0,0,0,7.23.15,5.65,5.65,0,0,1,1.76-1,11.55,11.55,0,0,1,1.36,5.44c0,6.64-5.69,12-12.69,12a13.15,13.15,0,0,1-5.38-1.13Z"/><path class="cls-2" d="M23,23.34V5.4a2.77,2.77,0,0,0,2.54-2.69A2.79,2.79,0,0,0,22.65,0H10A2.79,2.79,0,0,0,7.11,2.71,2.77,2.77,0,0,0,9.65,5.4V19.88a1,1,0,0,0,1.9,0V5.42h5.39a.93.93,0,0,0,1-.9.93.93,0,0,0-1-.9H10a.93.93,0,0,1-1-.9.93.93,0,0,1,1-.9H22.65a.93.93,0,0,1,1,.9.93.93,0,0,1-1,.9h-1.9a.93.93,0,0,0-1,.9.93.93,0,0,0,1,.9h.32V23.49a.86.86,0,0,0,.05.3l9.25,25.38a4.14,4.14,0,0,1-.35,4,4.66,4.66,0,0,1-3.87,1.63H6.48A4.66,4.66,0,0,1,2.6,53.17a4.14,4.14,0,0,1-.35-4L11.5,23.79a.89.89,0,0,0-.59-1.15,1,1,0,0,0-1.21.56L.45,48.58a5.81,5.81,0,0,0,.6,5.64,6.53,6.53,0,0,0,5.42,2.39H26.14a6.53,6.53,0,0,0,5.42-2.39,5.81,5.81,0,0,0,.6-5.64L23,23.34Z"/><path class="cls-2" d="M8.2,42a1,1,0,0,0-.85-.15.93.93,0,0,0-.63.57L4,49.76a2.49,2.49,0,0,0,.11,2.37A2.82,2.82,0,0,0,6.48,53H26.14a2.82,2.82,0,0,0,2.32-.87,2.49,2.49,0,0,0,.11-2.37L25.9,42.42a.93.93,0,0,0-.63-.57,1,1,0,0,0-.85.15,3.16,3.16,0,0,1-2.2.67,3.22,3.22,0,0,1-2.33-1,5.2,5.2,0,0,0-7.15,0,3.22,3.22,0,0,1-2.33,1A3.16,3.16,0,0,1,8.2,42ZM14,43.06a3.25,3.25,0,0,1,4.67,0,5.13,5.13,0,0,0,3.57,1.42,5.67,5.67,0,0,0,2.27-.41l2.28,6.27a1.66,1.66,0,0,1,.13.72,1.92,1.92,0,0,1-.76.12H6.48a1.92,1.92,0,0,1-.76-.12,1.66,1.66,0,0,1,.13-.72l2.28-6.27a5.67,5.67,0,0,0,2.27.41A5.13,5.13,0,0,0,14,43.06Z"/></g></g></g></g></g></g></svg>