<svg xmlns="http://www.w3.org/2000/svg" viewBox="0 0 144 50"><defs><style>.cls-1{opacity:0.3;}.cls-2{fill:#334d5c;}.cls-3{fill:#fff;}</style></defs><title>416_tornar_1</title><g id="Capa_2" data-name="Capa 2"><g id="_4-_Pantalla_Puntuacions" data-name="4- Pantalla Puntuacions"><g id="Tornar_dreta" data-name="Tornar dreta"><g id="Boto_Sortir" data-name="Boto Sortir"><g class="cls-1"><rect class="cls-2" y="5" width="144" height="45" rx="9.76" ry="9.76"/></g><rect class="cls-2" width="144" height="45" rx="9.76" ry="9.76"/></g><path class="cls-3" d="M21.68,9.68H39.44v2.86H32.1V32.4H29V12.54h-7.3Z"/><path class="cls-3" d="M52.08,16.24A8,8,0,0,1,55.2,19.3a8.91,8.91,0,0,1,1.12,4.5,9,9,0,0,1-1.12,4.51,7.91,7.91,0,0,1-3.12,3.08,10,10,0,0,1-9.15,0,7.94,7.94,0,0,1-3.12-3.07,9,9,0,0,1-1.12-4.53,8.92,8.92,0,0,1,1.12-4.5,8,8,0,0,1,3.12-3.07,10,10,0,0,1,9.15,0Zm-7.56,2.31a5.39,5.39,0,0,0-2,2.16,6.61,6.61,0,0,0-.73,3.13A6.76,6.76,0,0,0,42.47,27a5.24,5.24,0,0,0,2,2.16,6.23,6.23,0,0,0,6,0,5.25,5.25,0,0,0,2-2.16,6.75,6.75,0,0,0,.73-3.18,6.59,6.59,0,0,0-.73-3.13,5.4,5.4,0,0,0-2-2.16,6.11,6.11,0,0,0-6,0Z"/><path class="cls-3" d="M66,16.12a7.15,7.15,0,0,1,3.7-1v2.92a5.52,5.52,0,0,0-6.1,5.29V32.4h-3V15.23h3v3.7A6.21,6.21,0,0,1,66,16.12Z"/><path class="cls-3" d="M87.23,16.9a6.71,6.71,0,0,1,1.72,4.89V32.4h-3V22.6a4.59,4.59,0,0,0-1.22-3.39A4.54,4.54,0,0,0,81.35,18a5.18,5.18,0,0,0-3.75,1.48A5.8,5.8,0,0,0,76,23.22V32.4h-3V15.23h3v3.64q1.72-3.67,6.53-3.73A6.3,6.3,0,0,1,87.23,16.9Z"/><path class="cls-3" d="M104.82,32.4V30q-1.92,2.53-6,2.53a6.85,6.85,0,0,1-3.13-.68A5,5,0,0,1,93.6,30a5.08,5.08,0,0,1-.73-2.7,4.41,4.41,0,0,1,1.7-3.65,7.63,7.63,0,0,1,4.76-1.38h5.45v-.81a3.55,3.55,0,0,0-1.12-2.81,4.78,4.78,0,0,0-3.26-1,9.34,9.34,0,0,0-5.29,1.85L93.85,17.4a15.72,15.72,0,0,1,3.43-1.74,11.67,11.67,0,0,1,3.75-.54,7.19,7.19,0,0,1,5,1.57,5.71,5.71,0,0,1,1.79,4.4l0,11.3ZM103,29a4,4,0,0,0,1.77-2.71V24.58h-5a5.87,5.87,0,0,0-3,.62,2.13,2.13,0,0,0-1,1.95,2.53,2.53,0,0,0,1,2.11,4.29,4.29,0,0,0,2.69.78A6.15,6.15,0,0,0,103,29Z"/><path class="cls-3" d="M118.62,16.12a7.15,7.15,0,0,1,3.7-1v2.92a5.52,5.52,0,0,0-6.1,5.29V32.4h-3V15.23h3v3.7A6.21,6.21,0,0,1,118.62,16.12Z"/></g></g></g></svg>