<svg xmlns="http://www.w3.org/2000/svg" viewBox="0 0 216 59"><defs><style>.cls-1{opacity:0.3;}.cls-2{fill:#334d5c;}.cls-3{fill:#406172;}.cls-4{fill:#fff;}</style></defs><title>417_continuar</title><g id="Capa_2" data-name="Capa 2"><g id="_0-_Inici_dreta_esquerra_copia" data-name="0- Inici dreta esquerra copia"><g id="Boto_Inici" data-name="Boto Inici"><g class="cls-1"><rect class="cls-2" y="5" width="216" height="54" rx="9.76" ry="9.76"/></g><rect class="cls-3" width="216" height="54" rx="9.76" ry="9.76"/></g><path class="cls-4" d="M43.57,19.38A8.9,8.9,0,0,0,32.25,23,8.88,8.88,0,0,0,40,36.35a9,9,0,0,0,3.56-.74,10.32,10.32,0,0,0,3.1-2l1.91,2.08a12.91,12.91,0,0,1-4.06,2.69,12.12,12.12,0,0,1-10.72-.59,11.66,11.66,0,0,1-5.91-10.25,11.37,11.37,0,0,1,1.6-5.92,11.56,11.56,0,0,1,4.37-4.24,12.29,12.29,0,0,1,6.11-1.55,12.44,12.44,0,0,1,4.67.91,11.57,11.57,0,0,1,3.91,2.56l-1.88,2.28A9.54,9.54,0,0,0,43.57,19.38Z"/><path class="cls-4" d="M64,22.66a8.07,8.07,0,0,1,3.17,3.12,9.06,9.06,0,0,1,1.14,4.57,9.16,9.16,0,0,1-1.14,4.59A8,8,0,0,1,64,38.07a10.21,10.21,0,0,1-9.31,0A8.06,8.06,0,0,1,51.57,35a9.12,9.12,0,0,1-1.14-4.6,9.05,9.05,0,0,1,1.14-4.57,8.07,8.07,0,0,1,3.17-3.12,10.21,10.21,0,0,1,9.31,0ZM56.36,25a5.47,5.47,0,0,0-2.08,2.19,6.7,6.7,0,0,0-.74,3.18,6.87,6.87,0,0,0,.74,3.23,5.34,5.34,0,0,0,2.08,2.19,6,6,0,0,0,3.05.78,5.91,5.91,0,0,0,3-.78,5.34,5.34,0,0,0,2.08-2.19,6.87,6.87,0,0,0,.74-3.23,6.7,6.7,0,0,0-.74-3.18A5.47,5.47,0,0,0,62.43,25a5.81,5.81,0,0,0-3-.79A5.87,5.87,0,0,0,56.36,25Z"/><path class="cls-4" d="M87.16,23.34a6.83,6.83,0,0,1,1.75,5V39.09H85.84v-10a4.29,4.29,0,0,0-4.65-4.69,5.27,5.27,0,0,0-3.81,1.5,5.9,5.9,0,0,0-1.67,3.81v9.34H72.64V21.64h3.07v3.7q1.75-3.73,6.63-3.79A6.41,6.41,0,0,1,87.16,23.34Z"/><path class="cls-4" d="M103.76,37.94a7.52,7.52,0,0,1-4.09,1.29A4.65,4.65,0,0,1,96.3,38,5,5,0,0,1,95,34.24V24.57H92.54V22.23H95V17.55h3.1v4.69h5.35v2.34H98.12v9.11a3.24,3.24,0,0,0,.53,2.08,2,2,0,0,0,1.58.63,5.52,5.52,0,0,0,2.71-.83Z"/><path class="cls-4" d="M110.38,15.23a2.12,2.12,0,0,1,0,2.84,2,2,0,0,1-2.74,0,2.12,2.12,0,0,1,0-2.84,2,2,0,0,1,2.74,0Zm-2.89,6.4h3.07V39.09h-3.07Z"/><path class="cls-4" d="M131.05,23.34a6.83,6.83,0,0,1,1.75,5V39.09h-3.07v-10a4.29,4.29,0,0,0-4.65-4.69,5.27,5.27,0,0,0-3.81,1.5,5.9,5.9,0,0,0-1.67,3.81v9.34h-3.07V21.64h3.07v3.7q1.75-3.73,6.63-3.79A6.41,6.41,0,0,1,131.05,23.34Z"/><path class="cls-4" d="M153.72,21.64V39.09h-3.1V35.4q-1.72,3.73-6.47,3.79a6.25,6.25,0,0,1-4.75-1.8,6.9,6.9,0,0,1-1.72-5V21.64h3.1v10A4.73,4.73,0,0,0,142,35.05a4.41,4.41,0,0,0,3.32,1.24,4.9,4.9,0,0,0,3.88-1.73,6.49,6.49,0,0,0,1.44-4.34V21.64Z"/><path class="cls-4" d="M170.35,39.09V36.65q-1.95,2.58-6.11,2.57a7,7,0,0,1-3.18-.69A5.11,5.11,0,0,1,159,36.62a5.17,5.17,0,0,1-.74-2.74,4.48,4.48,0,0,1,1.73-3.71,7.76,7.76,0,0,1,4.83-1.4h5.54v-.83a3.61,3.61,0,0,0-1.14-2.85,4.86,4.86,0,0,0-3.32-1A9.5,9.5,0,0,0,160.49,26l-1.29-2.11a16,16,0,0,1,3.48-1.77,11.9,11.9,0,0,1,3.81-.54,7.3,7.3,0,0,1,5,1.6,5.8,5.8,0,0,1,1.82,4.47l0,11.48Zm-1.83-3.45a4.1,4.1,0,0,0,1.8-2.76V31.14H165.2a6,6,0,0,0-3.08.63,2.16,2.16,0,0,0-1,2,2.57,2.57,0,0,0,1,2.14,4.35,4.35,0,0,0,2.74.79A6.25,6.25,0,0,0,168.52,35.65Z"/><path class="cls-4" d="M184.38,22.54a7.26,7.26,0,0,1,3.76-1v3a5.61,5.61,0,0,0-6.2,5.38v9.21h-3.07V21.64h3.07V25.4A6.32,6.32,0,0,1,184.38,22.54Z"/></g></g></svg>