<svg xmlns="http://www.w3.org/2000/svg" viewBox="0 0 257.95 57.1"><defs><style>.cls-1{fill:#fff;}</style></defs><title>501_titolCredits</title><g id="Capa_2" data-name="Capa 2"><g id="_5-_Pantalla_Crèdits" data-name="5- Pantalla Crèdits"><g id="Títol_Crèdits" data-name="Títol Crèdits"><path class="cls-1" d="M35,14.74a17.52,17.52,0,0,0-16.32.52,16.59,16.59,0,0,0-6.26,6.3,17.5,17.5,0,0,0-2.28,8.8,17.49,17.49,0,0,0,2.28,8.8,16.85,16.85,0,0,0,6.26,6.34,17.08,17.08,0,0,0,8.77,2.32,18.42,18.42,0,0,0,7.4-1.62,21.24,21.24,0,0,0,6.59-4.49l5.82,6.48a30.43,30.43,0,0,1-9.43,6.52,26.58,26.58,0,0,1-10.9,2.39,27,27,0,0,1-13.63-3.54,25.92,25.92,0,0,1-9.73-9.62A26.25,26.25,0,0,1,0,30.5,25.65,25.65,0,0,1,3.61,17.09a25.93,25.93,0,0,1,9.84-9.5A27.94,27.94,0,0,1,27.26,4.13,27.92,27.92,0,0,1,38.09,6.34a26.61,26.61,0,0,1,9.06,6.12l-5.75,7.22A19.43,19.43,0,0,0,35,14.74Z"/><path class="cls-1" d="M70,18.68a15.94,15.94,0,0,1,8-2.1v9.28q-6.12-.37-9.76,2.84a10.94,10.94,0,0,0-3.65,8.66v19H55V16.95h9.58v7.59A14.24,14.24,0,0,1,70,18.68Z"/><path class="cls-1" d="M115.27,22Q120,27.41,120,37.13q0,1.92-.07,2.87H90.85a11,11,0,0,0,11.27,9,15,15,0,0,0,5.78-1.14,14.14,14.14,0,0,0,4.83-3.28L117.89,50a19.94,19.94,0,0,1-7.18,5,24.17,24.17,0,0,1-9.39,1.77,21.92,21.92,0,0,1-10.65-2.5,17.51,17.51,0,0,1-7.11-7A21.19,21.19,0,0,1,81,36.77,21.16,21.16,0,0,1,83.59,26.3a18,18,0,0,1,7.11-7.11,21,21,0,0,1,10.39-2.54Q110.52,16.65,115.27,22ZM97.55.44,105,11.05l-7.52.74L88.34,4.2Zm13.7,33.16a9.56,9.56,0,0,0-2.87-6.93,11.2,11.2,0,0,0-14.26,0,11.23,11.23,0,0,0-3.5,7Z"/><path class="cls-1" d="M166.29,1.69V56.36h-9.58V50a14.23,14.23,0,0,1-5.49,5,16.7,16.7,0,0,1-7.77,1.73,18.75,18.75,0,0,1-9.84-2.54A17.34,17.34,0,0,1,127,47.12a22.86,22.86,0,0,1-2.36-10.57A22.56,22.56,0,0,1,127,26.12a17,17,0,0,1,6.56-7,18.68,18.68,0,0,1,9.69-2.5,16.81,16.81,0,0,1,7.88,1.77,15,15,0,0,1,5.6,5.08V1.69ZM153.58,45.42a12.17,12.17,0,0,0,3.13-8.66,12.18,12.18,0,0,0-3.13-8.66,10.55,10.55,0,0,0-8.07-3.35,10.43,10.43,0,0,0-8,3.35,12.53,12.53,0,0,0-3.17,8.66,12.53,12.53,0,0,0,3.17,8.66,10.43,10.43,0,0,0,8,3.35A10.54,10.54,0,0,0,153.58,45.42Z"/><path class="cls-1" d="M187.22,1.62a5.74,5.74,0,0,1,1.55,4.13,5.64,5.64,0,0,1-1.55,4.05,5.52,5.52,0,0,1-7.81,0,5.64,5.64,0,0,1-1.55-4.05,5.74,5.74,0,0,1,1.55-4.13,5.52,5.52,0,0,1,7.81,0ZM178.6,16.95h9.58V56.36H178.6Z"/><path class="cls-1" d="M223.1,53.93a18.69,18.69,0,0,1-9.87,2.87,11.81,11.81,0,0,1-8.33-3q-3.24-3-3.24-8.8V25.57h-5.53l-.07-7h5.6V7.74h9.5V18.57h11.27v7H211.16V43.32a5.74,5.74,0,0,0,1,3.87,4,4,0,0,0,3.09,1.14,13.72,13.72,0,0,0,5.6-1.62Z"/><path class="cls-1" d="M248,25a19,19,0,0,0-5.64-1,7.6,7.6,0,0,0-3.87.85,2.83,2.83,0,0,0-1.44,2.62,3.1,3.1,0,0,0,1.8,2.84,29.06,29.06,0,0,0,5.71,2.1,55,55,0,0,1,6.78,2.47A12.77,12.77,0,0,1,256,38.5a9.66,9.66,0,0,1,2,6.3,10.14,10.14,0,0,1-4.42,8.84,18.94,18.94,0,0,1-11.12,3.09,28.22,28.22,0,0,1-8.92-1.44,21,21,0,0,1-7.37-4.09l3.32-6.7a19.39,19.39,0,0,0,6.34,3.57,21.17,21.17,0,0,0,7,1.29,8.4,8.4,0,0,0,4.24-.92,3,3,0,0,0,1.58-2.76,3.34,3.34,0,0,0-1.84-3.09,32.66,32.66,0,0,0-6-2.28A50.55,50.55,0,0,1,234.3,38a11.72,11.72,0,0,1-4.35-3.46,9.49,9.49,0,0,1-1.84-6.08,10.27,10.27,0,0,1,4.24-8.88A17.73,17.73,0,0,1,243,16.5a27.41,27.41,0,0,1,7.7,1.11,23.9,23.9,0,0,1,6.74,3.09L254,27.63A28.36,28.36,0,0,0,248,25Z"/></g></g></g></svg>