<svg xmlns="http://www.w3.org/2000/svg" viewBox="0 0 744.36 121.98"><defs><style>.cls-1{opacity:0.3;}.cls-2{fill:#7dce49;}.cls-3{fill:#f9f9f9;}</style></defs><title>601_banner_guanyat</title><g id="Capa_2" data-name="Capa 2"><g id="_3-_Pantalla_Preguntes" data-name="3- Pantalla Preguntes"><g id="Correcte_copia_2" data-name="Correcte copia 2"><g id="Gris_sortir_copia" data-name="Gris sortir copia"><g id="Pregunta_sortir_copia" data-name="Pregunta sortir copia"><g id="Quadrat_sortir" data-name="Quadrat sortir"><g class="cls-1"><rect class="cls-2" y="5" width="744.36" height="116.98" rx="9.76" ry="9.76"/></g><rect class="cls-2" width="744.36" height="116.98" rx="9.76" ry="9.76"/></g><g id="Capa_57" data-name="Capa 57"><path class="cls-3" d="M141.33,37.36h10v18.4h20V37.36h10v44.1h-10V64.07h-20V81.46h-10Z"/><path class="cls-3" d="M223.48,81.46,220,72.89H199.6l-3.46,8.57H185.87L205,37.36h10.27l18.84,44.1Zm-20.6-16.57H216.8l-6.93-17.14Z"/><path class="cls-3" d="M260.3,46.34a21.87,21.87,0,0,0-6.52-1.23,7.67,7.67,0,0,0-4.09.95,3.07,3.07,0,0,0-1.51,2.77,3.88,3.88,0,0,0,2.17,3.56,33.52,33.52,0,0,0,6.71,2.55,58,58,0,0,1,7.46,2.65,13.24,13.24,0,0,1,5,4,11,11,0,0,1,2.08,7,12,12,0,0,1-2.24,7.28,13.79,13.79,0,0,1-6.14,4.63A23.61,23.61,0,0,1,254.35,82a30.4,30.4,0,0,1-10.52-1.89A28.4,28.4,0,0,1,234.88,75l4-8.13a26.83,26.83,0,0,0,7.69,4.85,20.68,20.68,0,0,0,7.94,1.83,8.76,8.76,0,0,0,4.82-1.13,4,4,0,0,0,.57-6.08,8.94,8.94,0,0,0-3-1.8q-1.79-.69-4.95-1.58a56.2,56.2,0,0,1-7.4-2.52,13,13,0,0,1-4.95-3.84,10.63,10.63,0,0,1-2.08-6.87,11.65,11.65,0,0,1,2.14-7,13.59,13.59,0,0,1,6-4.6,23.06,23.06,0,0,1,8.95-1.61,31,31,0,0,1,8.95,1.32,30.29,30.29,0,0,1,7.81,3.53l-3.84,8.25A33.48,33.48,0,0,0,260.3,46.34Z"/><path class="cls-3" d="M323,59.22h8.63V76.36a29.91,29.91,0,0,1-8.44,4.19,30.37,30.37,0,0,1-9.45,1.61,24.11,24.11,0,0,1-12-3A22.26,22.26,0,0,1,290.2,59.35a21.87,21.87,0,0,1,3.15-11.56A22.2,22.2,0,0,1,302,39.63a25.48,25.48,0,0,1,12.25-3,27.12,27.12,0,0,1,9.61,1.76,25.62,25.62,0,0,1,8.1,4.79l-5.61,7.12a18.27,18.27,0,0,0-5.67-3.65,16.76,16.76,0,0,0-6.43-1.32,13.72,13.72,0,0,0-12,6.9,14,14,0,0,0-1.83,7.09,14.13,14.13,0,0,0,1.86,7.15,13.71,13.71,0,0,0,12.06,7,15.13,15.13,0,0,0,4.22-.66A23.41,23.41,0,0,0,323,71Z"/><path class="cls-3" d="M352.16,70.72a9.54,9.54,0,0,0,7.15,2.74,9.13,9.13,0,0,0,6.93-2.71,10.42,10.42,0,0,0,2.58-7.5V37.36h10V63.26a20.37,20.37,0,0,1-2.36,10,16.05,16.05,0,0,1-6.77,6.55,22.19,22.19,0,0,1-10.39,2.3,22.56,22.56,0,0,1-10.46-2.3,16.16,16.16,0,0,1-6.87-6.55,20.14,20.14,0,0,1-2.39-10V37.36h10V63.26A10.22,10.22,0,0,0,352.16,70.72Z"/><path class="cls-3" d="M419,81.46l-3.46-8.57H395.15l-3.46,8.57H381.42l19.15-44.1h10.27l18.84,44.1Zm-20.6-16.57h13.92l-6.93-17.14Z"/><path class="cls-3" d="M464.77,37.36h9.45v44.1h-9.07L443.79,53.11V81.46h-9.51V37.36h9.07l21.42,28.48Z"/><path class="cls-3" d="M521.22,37.36,505.15,67.22V81.46h-10v-14L478.88,37.36h10l11.28,19.78,11-19.78Z"/><path class="cls-3" d="M555.11,81.46l-3.46-8.57H531.23l-3.46,8.57H517.5l19.15-44.1h10.27l18.84,44.1Zm-20.6-16.57h13.92L541.5,47.76Z"/><path class="cls-3" d="M561.41,37.36h36.86V45.8H584.78V81.46h-10V45.8H561.41Z"/><path class="cls-3" d="M610.33,73.4A4.92,4.92,0,0,1,611.68,77a5,5,0,0,1-1.35,3.62,4.94,4.94,0,0,1-7,0A5,5,0,0,1,602,77a4.86,4.86,0,0,1,1.39-3.59,5.06,5.06,0,0,1,7,0Zm-8-35.72h9.26V48.83l-1.7,17.77H604l-1.7-17.77Z"/></g></g></g></g></g></g></svg>