<svg xmlns="http://www.w3.org/2000/svg" viewBox="0 0 110.36 96.97"><defs><style>.cls-1{opacity:0.3;}.cls-2{fill:#334d5c;}.cls-3{fill:#fff;}</style></defs><title>603_botó_no</title><g id="Capa_2" data-name="Capa 2"><g id="_3-_Pantalla_Preguntes" data-name="3- Pantalla Preguntes"><g id="Correcte_copia_2" data-name="Correcte copia 2"><g id="Gris_sortir_copia" data-name="Gris sortir copia"><g id="_0-_Botons_si_o_no_copia" data-name="0- Botons si o no copia"><g id="Boto_no_copia" data-name="Boto no copia"><g id="Boto_Inici" data-name="Boto Inici"><g class="cls-1"><rect class="cls-2" y="5" width="110.36" height="91.97" rx="9.76" ry="9.76"/></g><rect class="cls-2" width="110.36" height="91.97" rx="9.76" ry="9.76"/></g><path class="cls-3" d="M44.85,23.51h8.29V68.14H45L22.09,37.41V68.14H13.74V23.51h8.1l23,30.79Z"/><path class="cls-3" d="M88,35.94A15.69,15.69,0,0,1,94.35,42a17.73,17.73,0,0,1,2.26,9,18,18,0,0,1-2.26,9.12A15.62,15.62,0,0,1,88,66.29a19.48,19.48,0,0,1-9.34,2.17,19.8,19.8,0,0,1-9.43-2.17,15.56,15.56,0,0,1-6.34-6.12,18,18,0,0,1-2.26-9.12,17.72,17.72,0,0,1,2.26-9,15.64,15.64,0,0,1,6.34-6.09,19.81,19.81,0,0,1,9.43-2.17A19.49,19.49,0,0,1,88,35.94ZM71.69,43.72A10.49,10.49,0,0,0,69,51.18a10.49,10.49,0,0,0,2.68,7.46,9.14,9.14,0,0,0,7,2.87,9,9,0,0,0,6.88-2.87,10.49,10.49,0,0,0,2.68-7.46,10.49,10.49,0,0,0-2.68-7.46,9,9,0,0,0-6.88-2.87A9.15,9.15,0,0,0,71.69,43.72Z"/></g></g></g></g></g></g></svg>